<?xml version="1.0" encoding="UTF-8"?><svg id="Layer_2" xmlns="http://www.w3.org/2000/svg" viewBox="0 0 1687.65 716.49"><defs><style>.cls-1{fill:#262626;}</style></defs><path class="cls-1" d="M1245.36,274.61c1.23-1.08,28.84.68,32.82-.1,1.41.07,4.78,3.45,5,4.59l-.42,32.18c-1.43.69-3.14,2.38-4.63,1.18l-33.34-33.34c-1.08-.58.23-4.2.58-4.51h0Z"/><path class="cls-1" d="M1488.6,516.89l32.3-.07c1.95,1.18,4.36,3.07,4.6,5.48.96,9.67-.79,20.91,0,30.76.34,2.05-3.42,2.94-4.59,2.18l-32.88-32.88c-1.26-1.92.02-3.64.58-5.46h-.01Z"/><path class="cls-1" d="M1489.81,273.66l30.64-.11c3.3.71,5.67,3.11,6.01,6.46.92,9.03-.77,19.63,0,28.84-.31,2.33-2.9,4.07-5.09,2.64l-33.35-33.35c-1.08-.92.91-4.21,1.8-4.49h-.01Z"/><path class="cls-1" d="M1444.72,309.91c-.36.93-3.76,3.21-4.92,1.59l-32.87-32.87c-.98-1.46,1.19-5.12,3.13-5.08,8.98.92,20.12-1.14,28.83,0,3,.39,5.44,3.08,6,6l-.16,30.36h0Z"/><path class="cls-1" d="M1440.41,436.36c.15.05,2.37,1.76,2.58,1.97.7.73,1.12,2.06,1.91,2.89l-.05,30.24c-.31,1.64-2.59,2.7-4.09,2.68-2.39-.03-30.03-29.86-34.22-33.44.62-1.51,1.76-4.14,3.55-4.48l30.32.14Z"/><path class="cls-1" d="M1247.07,112.47l30.6-.1c3.17.09,5.25,3.03,5.55,5.96.92,9.03-.77,19.63,0,28.84-.31,2.33-2.9,4.07-5.09,2.64l-32.83-33.38c-.29-1.73.12-3.19,1.78-3.96h-.01Z"/><path class="cls-1" d="M1489.31,355.67c10,.58,21.29-.99,31.14-.08,3.92.36,4.41,2.39,6,5.51-.72,8.93.87,19.11,0,27.88-.21,2.1-2.01,4.11-4.08,4.55l-34.6-34.09,1.53-3.78h0Z"/><path class="cls-1" d="M1119.94,149.18c-.49.54-3.73,1.68-4.45.63l-32.84-33.35c1.33-2.73.63-3.8,4.06-4.11,7.05-.64,20.78-.6,27.87,0,3.72.32,5.65,2.31,6,6,.66,7.04.58,20.75,0,27.86-.06.71-.23,2.53-.63,2.97h-.01Z"/><path class="cls-1" d="M1360.59,275.33c1.3,1.07,2.48,1.28,2.74,3.26,1.23,9.26-.99,21.2,0,30.76.04,1.46-2.87,3.18-4.23,2.46l-33.09-33.07.18-4.24c.78-.42,1.38-.82,2.31-.94,8.96-1.1,20.11.89,29.31,0,1.96-.44,1.99,1.13,2.78,1.78h0Z"/><path class="cls-1" d="M1039.2,35.41c.09.19.91.27.78.89-.91,9.2,1.09,20.35-.01,29.31-.13,1.1-.87,1.94-1.07,3.01l-3.45,1-32-31.83c-1.08-1.87-.41-6.02,2.16-6.05,9.09.92,20.43-1.18,29.24.07,2.55.36,3.27,1.48,4.33,3.59h.02Z"/><path class="cls-1" d="M1603.48,517.96c1.33.85,2.88,3.21,3.09,4.82.65,4.98.67,22.91,0,27.87-.39,2.88-1.94,3.69-4.49,4.44l-33.91-34.2c1.43-1.22.43-3.42,2.61-4.11h29.78c.88.12,2.16.71,2.91,1.18h.01Z"/><path class="cls-1" d="M1603.49,599.52c1.11.62,2.97,3.48,3.07,4.83-.93,8.78,1.16,19.86,0,28.35-.3,2.17-3.72,3.82-5.57,2.64l-31.42-31.42c-1.58-2.67.44-5.22,3.14-5.55,8.39-1.03,18.76.79,27.37,0,.98.11,2.55.69,3.41,1.16h0Z"/><path class="cls-1" d="M1570.41,436.3l31.56-.08c1.14.22,4.53,3.59,4.59,5-.94,9.3,1.16,20.77,0,29.8-.3,2.35-2.48,3.15-4.6,2.66l-33.73-34.24,2.17-3.13h0Z"/><path class="cls-1" d="M1278.73,193.13c.17.06,2.48,1.92,2.78,2.24.76.8,1.59,1.95,1.69,3.1v30.26c-.96,2.14-3.89,3-5.82,1.45l-31.65-31.66c-.94-1.35-.55-4.27,1.23-4.6l26.41.03c1.81-.61,3.33-1.56,5.36-.83h0Z"/><path class="cls-1" d="M1651.5,516.91l31.07-.09c1.14.22,4.53,3.59,4.59,5-.95,9.11,1.18,20.5,0,29.32-.31,2.33-2.9,4.07-5.09,2.64l-32.81-33.34c.16-1.2.97-3.15,2.23-3.52h.01Z"/><path class="cls-1" d="M1519.5,471.91c-10.69-10.34-20.95-21.11-31.73-31.39l1.42-3.88,31.74-.45c1.64.22,4.34,2.91,4.56,4.56l-.02,31.69c-.19,1.35-1.93,1.8-3.12,1.72-1.9-.12-1.83-1.27-2.85-2.25h0Z"/><path class="cls-1" d="M1444.72,228.35c-.12.36-3.13,2.61-3.9,2.06l-33.73-33.73c.26-1.61.32-3.1,2.02-3.75h30.75c1.41.07,4.78,3.46,5,4.6l-.14,30.81h0Z"/><path class="cls-1" d="M1521.97,193.13c.15.05,2.37,1.76,2.58,1.97.7.73,1.12,2.06,1.91,2.89v29.79c-1.31,1.91-2.56,3.63-5.1,2.16l-32.85-33.39,1.79-3.59,31.67.16h0Z"/><path class="cls-1" d="M1602.57,273.73c.11.04.14.57.3.64,1.28.51,1.62.08,2.68,1.51.78,1.05,1.32,1.83,1.49,3.2.72,5.94.59,21.28-.02,27.35-.31,3.09-1.56,5.78-5.06,4.11l-32.84-33.35c.71-1.27,1.05-3.33,2.65-3.6l30.79.15h0Z"/><path class="cls-1" d="M1361.19,357.26c1.03.84,1.97,2.5,2.14,3.84,1.09,8.63-.87,19.47,0,28.35-.34,2.58-3.21,4.04-5.57,2.64l-31.9-32.44c.38-2.32.64-3.8,3.13-4.05,6.46-.63,22.5-.78,28.8-.01,1.43.17,2.31.78,3.39,1.67h0Z"/><path class="cls-1" d="M1686.02,682.01c.38.47,1.07,2.27,1.15,2.93,1.08,8.64-.88,19.46.01,28.35-1.37,2.37-2.88,4.37-5.82,2.4l-31.18-31.18c-1.43-2.18.3-4.78,2.64-5.09,8.67-1.16,19.88.93,28.83,0,1.03.14,3.74,1.81,4.37,2.59Z"/><path class="cls-1" d="M1199.52,195.57c1.29,1.07,1.01,2.19,2.14,3.36-.9,9.06,1.07,20.03,0,28.84-.15,1.23-2.7,3.37-4.18,3.07l-33.32-33.33c-.13-1.84,1.44-3.4,3.14-3.62,8.67-1.16,19.88.93,28.83,0,1,.14,2.63,1.03,3.39,1.67h0Z"/><path class="cls-1" d="M1601.47,229.22c-8.58-8.62-17.1-17.26-25.62-25.96-.88-.9-6.42-5.68-6.58-6.09-.62-1.59.6-2.64.89-4.12l32.78-.07c1.16.22,4.1,3.2,4.11,4.52l-.04,30.24c-1.01,2.59-3.39,3.68-5.55,1.48h.01Z"/><path class="cls-1" d="M1193.74,146.15c-10.12-9.35-19.28-19.76-29.38-29.1-.85-2.15.79-4.43,2.95-4.7,9.14.81,19.87-1,28.81.03,3.34.38,4.7,2.41,5.54,5.5l-.03,28.8c-3.32,5.44-5.07,2.09-7.88-.51v-.02Z"/><path class="cls-1" d="M1436.98,389.39c-9.76-9.71-19.54-19.46-29.39-29.1-.84-2.16.79-4.42,2.95-4.7,9.14.81,19.87-1,28.81.03,3.34.38,4.7,2.41,5.54,5.5l-.03,28.8c-3.19,5.28-5.06,2.29-7.88-.51v-.02Z"/><path class="cls-1" d="M1521.26,149.18c-.51-.25-4.3-4.82-5.13-5.64-9.05-8.92-18.12-17.78-27.12-26.73-.93-1.92-.09-4.17,2.13-4.47,9.22-1.25,21.22,1,30.75,0,1.64.22,4.34,2.91,4.56,4.56l-.04,29.76c-.56,2.05-3.23,3.45-5.15,2.52Z"/><path class="cls-1" d="M1363.24,149.25l-4.51-.39c-9.41-9.29-18.55-18.88-28.03-28.11-.76-.74-1.88-.92-2.4-1.44-.7-.71-1.07-2.59-2.29-3.33l1.51-3.18,1.47-.45c9.29.81,20.2-1.02,29.29.02,3.46.4,5.22,2.62,5.54,5.98.69,7.34.54,20.89,0,28.35-.06.89-.15,1.75-.57,2.55h-.01Z"/><path class="cls-1" d="M1606.92,148.25c-.51.9-3.99,1.63-4.96.61l-31.92-31.92.12-4.01c.79-.42,1.66-.51,2.55-.57,9.61-.71,20.08.6,29.79,0,1.33,0,4.3,2.95,4.52,4.11l-.1,31.79h0Z"/><path class="cls-1" d="M1201.47,67.62c-.4,1.27-3.81,1.55-4.91.64l-31.9-31.9c-1.59-2.78.47-4.39,3.12-4.61,7.16-.57,20.78-.66,27.86,0,3.68.35,5.03,2.05,6,5.52l-.17,30.36h0Z"/><path class="cls-1" d="M1118.32,33.03c.59.45,1.27.79,1.78,1.34l.47,34.04-3.15,1.31-33.8-33.49c-.33-2.27.14-4.16,2.6-4.48,9.14-1.2,20.85.97,30.28,0,1.27-.27,1.35.94,1.82,1.29h0Z"/><path class="cls-1" d="M1282.44,35.41c.1.2.68.09.78.89,1.12,9.04-.9,20.46-.04,29.76-.26,1.36-2.15,2.94-3.59,2.7l-33.87-33.87c-.01-1.24,1.51-2.88,2.7-3.11,9.26.63,19.68-.88,28.79-.03,3.12.29,3.88.97,5.23,3.66Z"/><path class="cls-1" d="M1607.24,35.41c.09.19.91.27.78.89l-.04,29.76c.02,1.2-3.16,2.75-4.04,2.67l-32.43-31.9c-1.31-2.86-.34-4.6,2.71-5.02,5.84-.81,21.72-.63,27.8-.06,3.12.29,3.88.97,5.23,3.66h0Z"/><path class="cls-1" d="M1525.32,67.6c-.53.53-3.3,1.63-3.95.66l-31.9-31.9c-1.07-3.52.94-4.37,4.09-4.6,7.03-.53,19.97-.65,26.9,0,3.52.33,5.65,2.43,6.01,5.98.59,5.74.69,21.31-.01,26.92-.07.55-.84,2.66-1.13,2.95h-.01Z"/><path class="cls-1" d="M1680.22,632.63c-8.77-8.45-17.75-18.89-26.93-26.56-.39-.33-.5-1.16-.81-1.35-.4-.25-1.16.02-1.64-.27-2.82-1.72-.13-5.79,2.46-6.1l29.28.04c1.14.22,4.53,3.59,4.59,5l-.04,28.8c-.74,2.21-3.08,3.42-5.26,2.4-.73-.34-1.08-1.41-1.65-1.96h0Z"/><path class="cls-1" d="M1649.86,194.05c.05-.12,1.66-1.75,1.77-1.8.77-.38,6.79-.42,7.95-.26s1.71.85,2.83,1.01c4.29.6,18.56-1.06,21.16.43.89.51,3.55,3.39,3.6,4.56-.88,8.53,1.08,19.12,0,27.39-.36,2.73-2.55,5.6-5.33,3.36l-31.66-31.66c-.57-.82-.71-2.1-.32-3.03h0Z"/><path class="cls-1" d="M1328.14,194.03l31.11-.12c1.64.21,3.86,2.45,4.08,4.08-.73,9.42.89,20.06,0,29.32-.24,2.54-2.23,4.09-4.6,3.13l-32.39-32.39c-1.31-1.68.43-3.12,1.8-4.01h0Z"/><path class="cls-1" d="M1604.43,357.27c.97.79,2.06,2.05,2.14,3.36-.95,8.92,1.19,20.21,0,28.83-.3,2.18-1.9,2.18-3.63,3.1l-33.81-33.81c1-2.43.84-2.95,3.58-3.15,9.57-.71,20.37.35,29.98.28.58.46,1.17.92,1.74,1.39h0Z"/><path class="cls-1" d="M1681.97,309.93c-.22-.13-.4-1-.78-1.36-10.39-9.69-20.01-20.13-30.35-29.84-.97-2.88.5-3.16,1.89-5.01l29.85-.13c1.14.22,4.53,3.59,4.59,5-1.05,8.32,1.33,19.92-.05,27.82-.39,2.24-2.75,4.94-5.15,3.52h0Z"/><path class="cls-1" d="M1683.69,436.31l3.5,3.96v29.78c-1.31,1.91-2.57,3.63-5.1,2.16l-32.38-32.91c-.11-1.18,1.54-2.87,2.67-3.08l31.31.09h0Z"/><path class="cls-1" d="M1443.17,114.56c.85.98,1.54,1.88,1.72,3.31,1.05,8.34-.84,18.81,0,27.39-.34,2.58-3.21,4.04-5.57,2.64l-30.46-30.46c-1.45-2.71-.12-4.45,2.64-5.09,8.83.79,19.22-.97,27.85.03,2.31.27,2.45.61,3.82,2.18Z"/><path class="cls-1" d="M1685.46,113.57c.88.92,1.54,2.05,1.7,3.34.65,5.15.64,21.75,0,26.9-.23,1.84-1.54,4.08-3.62,4.11l-32.89-32.45c.74-.87,1.22-2.12,1.91-2.89.73-.81,1.07-1.05,2.17-1.19,8.1-1.08,18.55.87,26.91,0,1.61.26,2.74,1.06,3.81,2.18h0Z"/><path class="cls-1" d="M1362.22,32.38c.18.12,2.44,3.33,2.48,3.54.07.44-.83,1.29-.94,2.3-.95,8.73,1.17,19.78.05,28.35-.31,2.39-2.19,2.71-4.13,1.68l-31.42-31.42c-1.2-2.08-.41-4.87,2.16-5.09,5.3.98,28.64-1.46,31.8.63h0Z"/><path class="cls-1" d="M1440.56,68.71l-32-32.26c-.87-3.59.68-4.4,3.91-4.7,6.53-.6,19.91-.61,26.42,0,3.19.3,5.56,2.19,6,5.52,1.12,8.56-.9,19.52,0,28.35-.02,2.72-2.77,1.64-4.33,3.09h0Z"/><path class="cls-1" d="M1687,389.07c-.12.36-3.13,2.61-3.9,2.06l-31.96-31.42-.48-1.42c1.53-.67.98-2.85,3.12-2.7,9.08.73,19.44-.89,28.36,0,2.29.23,3.9,2.16,5,4.12l-.14,29.37h0Z"/><path class="cls-1" d="M1686.99,63.3c-1.68,1.6-1.27,3.14-4.39,2.53l-29.55-28.99c-1.2-2.07-.42-4.87,2.16-5.09,8.35.64,17.73-.77,25.95,0,3.19.3,5.56,2.19,6,5.52,1.02,7.78-.68,18-.17,26.03h0Z"/><path class="cls-1" d="M187.98,304.02c1.84.97,1.91,3.38,1.51,5.23l-36.38,36.54c-.69.85-.69,2.09,0,2.93l33.15,33.05c1.99,4.65-1.53,8.01-6.05,6.05l-33.05-33.15c-.85-.69-2.09-.69-2.93,0l-31.61,31.71c-4.51,2.01-7.88-1.46-6.02-5.93l31.69-31.73c.69-.85.69-2.09,0-2.93l-34.09-34.04c-3.1-4.01,1.58-8.94,5.74-6.22l34.3,34.31c.85.69,2.09.69,2.93,0l34.53-34.55c2.11-1.62,3.6-2.69,6.29-1.27h0Z"/><path class="cls-1" d="M380.82,111.27l-34.87,34.98.18,1.07,34.78,35.01c.94,3.92-1.18,6.77-5.31,5.79l-36.08-35.37-34.65,33.93c-5.05,1.4-7.7-3.51-4.37-7.26,9.33-10.51,21.97-20.12,30.89-30.74.42-.5,1.69-1.88,1.61-2.37l-34.81-35.02c-1.93-3.55,1.21-7.6,5.12-6.33l35.78,35.26c.46.08,1.91-1.2,2.39-1.6,11.7-9.9,22.21-23.75,33.88-33.98,5.32-4.05,9.85,2.08,5.45,6.65v-.02Z"/><path class="cls-1" d="M580.88,111.27c-9.37,11.34-24.69,21.99-33.55,33.35-.55.7-1.39,1.54-1.3,2.52l34.94,35.18c.94,3.92-1.18,6.77-5.31,5.79l-36.08-35.37-34.65,33.93c-5.36,1.05-7.77-3.72-3.95-7.66l32.14-32.27-34.87-35.45c-2.28-4.19,2.5-8.59,6.3-5.59l35.04,34.57,35.83-35.65c5.39-3.8,9.71,1.49,5.45,6.65h.01Z"/><path class="cls-1" d="M188.02,103.92c1.49,1.17,2.25,4.15,1.13,5.88l-36.03,35.93c-.69.85-.69,2.09,0,2.93l33.15,33.05c1.99,4.65-1.53,8.01-6.05,6.05l-33.05-33.15c-.85-.69-2.09-.69-2.93,0l-31.61,31.71c-4.51,2.01-7.88-1.46-6.02-5.93l31.69-31.73c.69-.85.69-2.09,0-2.93l-34.09-34.04c-3.1-4.01,1.58-8.94,5.74-6.22l34.3,34.31c.85.69,2.09.69,2.93,0l34.53-34.55c1.68-1.43,4.28-2.91,6.33-1.3h-.02Z"/><path class="cls-1" d="M285.9.29c1.52.62,1.99,3.75,1.46,5.27l-36.81,37.53,35.02,35c1.99,4.65-1.53,8.01-6.05,6.05l-34.99-34.93-32.78,32.49c-4.86,4.23-10.55-.75-6.24-5.92,9.24-10.48,22.02-20.22,30.9-30.72.41-.48,1.68-1.93,1.6-2.39l-34.51-34.61c-2.62-3.58.73-8.06,4.83-6.75l36.12,35.25L280.09,1.19c1.14-1.2,4.41-1.48,5.81-.91h0Z"/><path class="cls-1" d="M88.7,403.3c1.35.95,2.04,3.67,1.48,5.26l-36.83,37.05,35.29,36.19c1.42,4.54-2.17,7.1-6.29,5.33l-35.47-35.05-33.56,33.61c-4.53,1.93-8-1.34-6.02-5.93l33.55-34.1-34.51-34.61c-3.18-4.2,1.76-8.91,6-6l34.95,34.51,34.84-34.75c1.72-1.56,4.33-3.09,6.57-1.52h0Z"/><path class="cls-1" d="M380.82,311.33c-9.36,11.34-24.69,21.99-33.55,33.35-.55.7-1.39,1.54-1.3,2.52l34.6,34.57c1.76,3.73-.65,7.67-4.96,6.4l-36.08-35.37-34.65,33.93c-5.05,1.4-7.7-3.51-4.37-7.26l32.57-32.27-.49-1.41-34.39-34.45c-2.23-4.11,2.35-8.75,6.3-5.59l34.61,34.51c.46.08,1.91-1.2,2.39-1.6,11.7-9.9,22.21-23.75,33.88-33.98,5.39-3.8,9.71,1.49,5.45,6.65h-.01Z"/><path class="cls-1" d="M282.95,210.58l-35.28,35.45,35.02,35c1.97,4.53-1.41,8.04-6.05,6.05l-35-35.02-34.65,33.93c-4.97,1.41-7.74-3.53-4.37-7.26,9.29-10.51,22.01-20.13,30.9-30.72.41-.49,1.68-1.92,1.6-2.38l-34.51-34.61c-2.62-3.55.72-8.08,4.83-6.75l35.78,35.26c.46.08,1.91-1.2,2.39-1.6,11.7-9.9,22.21-23.75,33.88-33.98,5.32-4.05,9.85,2.08,5.45,6.65v-.02Z"/><path class="cls-1" d="M88.7,203.24c1.47,1.03,2.27,4.25,1.13,5.87l-36.49,36.44,35.29,36.19c1.42,4.54-2.18,7.1-6.29,5.33l-35.06-35.01-33.97,33.57c-4.53,1.93-8-1.34-6.02-5.93l33.55-34.1L6.33,210.99c-3.15-3.99,1.61-8.81,5.74-6.21l35.22,34.73,36.46-36.25c1.31-.76,3.71-.9,4.96-.03h0Z"/><path class="cls-1" d="M282.95,410.64l-35.28,35.45,35.02,35c1.97,4.53-1.41,8.04-6.05,6.05l-35-35.02-34.65,33.93c-4.97,1.41-7.74-3.53-4.37-7.26,9.29-10.51,22.01-20.13,30.9-30.72.41-.49,1.68-1.92,1.6-2.38l-34.51-34.61c-2.62-3.55.72-8.08,4.83-6.75l35.78,35.26c.46.08,1.91-1.2,2.39-1.6,11.7-9.9,22.21-23.75,33.88-33.98,5.32-4.05,9.85,2.08,5.45,6.65v-.02Z"/><path class="cls-1" d="M185.13,501.17c1.35.95,2.04,3.67,1.48,5.26l-36.57,36.81.2,2.66,33.15,33.05c1.99,4.65-1.53,8.01-6.05,6.05l-33.05-33.15-2.66-.2-30.62,30.91c-4.86,4.23-10.55-.75-6.24-5.92l30.92-30.69.64-1.53-35-35.49c-2.9-4.29,1.7-8.91,6-6l35.49,35,1.53-.64,35-35.24c1.5-1.37,3.96-2.17,5.78-.89h0Z"/><path class="cls-1" d="M483.01,210.58l-35.28,35.45,35.02,35c1.97,4.53-1.41,8.04-6.05,6.05l-35-35.02-34.65,33.93c-4.97,1.41-7.74-3.53-4.37-7.26,9.33-10.51,21.97-20.12,30.89-30.74.42-.5,1.69-1.88,1.61-2.37l-34.51-34.61c-2.62-3.55.72-8.08,4.83-6.75l36.21,35.32,35.83-35.65c5.32-4.05,9.85,2.08,5.45,6.65h.02Z"/><path class="cls-1" d="M10.34,76.6l33.37-33.92L8.99,7.8C6.29,3.48,10.91-.98,15.21,2.06l34.61,34.51L85.27,1.6c3.97-3.79,10.58-.22,6.94,5.02l-35.95,36.05,34.73,35.22c2.54,4.47-1.05,8.29-5.76,6.24l-35.06-35.01L15.92,82.9c-4.61,1.51-7.86-1.88-5.57-6.3h0Z"/><path class="cls-1" d="M485.98.26c1.09.63,2.09,4,1.43,5.31l-36.81,37.53,35.02,35c1.99,4.65-1.53,8.01-6.05,6.05l-35-35.02-32.77,32.59c-4.86,4.23-10.55-.75-6.24-5.92,9.34-10.51,21.93-20.12,30.9-30.72.41-.48,1.68-1.93,1.6-2.39l-34.51-34.61c-2.62-3.58.73-8.06,4.83-6.75l36.12,35.25L480.14,1.21c.89-1.16,4.88-1.49,5.83-.94h.01Z"/><path class="cls-1" d="M683.07,7.64c-9.42,11.41-24.47,21.92-33.55,33.35-.43.54-1.28,1.44-1.28,2.11l34.57,34.99c1.76,3.73-.65,7.67-4.96,6.4l-36.08-35.37-34.65,33.93c-5.05,1.4-7.7-3.51-4.37-7.26l32.56-32.67-34.87-35.45c-1.93-3.55,1.21-7.6,5.12-6.33l36.21,35.32L677.88.8c5.86-2.63,9.3,1.85,5.17,6.86l.02-.02Z"/><path class="cls-1" d="M82.93,600.51c1.91,1.05,1.87,3.29,1.5,5.24l-36.81,37.53,35.02,35c1.99,4.65-1.53,8.01-6.05,6.05l-34.99-34.57c-.67,0-1.57.85-2.11,1.28-10.49,8.35-20.24,21.98-30.67,30.85-4.86,4.23-10.55-.75-6.24-5.92l32.57-32.67L.31,607.57c-1.39-4.45,2.04-8.07,6.26-5.31l34.03,34.09,1.41.49,34.75-35.03c1.86-1.6,3.79-2.6,6.17-1.29h0Z"/></svg>