<svg id="Layer_2" height="300" viewBox="0 0 24 24" width="300" xmlns="http://www.w3.org/2000/svg" xmlns:xlink="http://www.w3.org/1999/xlink" version="1.1" xmlns:svgjs="http://svgjs.dev/svgjs"><g width="100%" height="100%" transform="matrix(1,0,0,1,0,0)"><linearGradient id="SVGID_1_" gradientUnits="userSpaceOnUse" x1="17.997" x2="5.944" y1="21.824" y2="2.08"><stop offset=".0026" stop-color="#fd4085"/><stop offset="1" stop-color="#ffa28d"/></linearGradient><circle cx="12" cy="12" fill="#f15a45" r="11.997" data-original-color="SVGID_1_" stroke="none" stroke-opacity="1" fill-opacity="1"/><g fill="#fff8f8"><path d="m12 4c-4.4183 0-8 3.5817-8 8s3.5817 8 8 8 8-3.5817 8-8-3.5817-8-8-8zm0 14.4c-3.529 0-6.4-2.871-6.4-6.4s2.871-6.4 6.4-6.4 6.4 2.871 6.4 6.4-2.871 6.4-6.4 6.4z" fill="#fff8f8" fill-opacity="1" data-original-color="#fff8f8ff" stroke="none" stroke-opacity="1"/><path d="m12.8 11.5719v-3.5719c0-.4418-.3578-.8-.8-.8s-.8.3582-.8.8v4c0 .2676.1336.5172.3562.6656l2.4 1.6c.1367.091.2906.1344.443.1344.2586 0 .5125-.125.6664-.3562.2453-.3676.1461-.8645-.2219-1.1094z" fill="#fff8f8" fill-opacity="1" data-original-color="#fff8f8ff" stroke="none" stroke-opacity="1"/></g></g></svg>