<svg id="Layer_1" enable-background="new 0 0 512 512" viewBox="0 0 512 512" xmlns="http://www.w3.org/2000/svg" width="300" height="300" version="1.1" xmlns:xlink="http://www.w3.org/1999/xlink" xmlns:svgjs="http://svgjs.dev/svgjs"><g width="100%" height="100%" transform="matrix(1,0,0,1,0,0)"><g clip-rule="evenodd" fill-rule="evenodd"><circle cx="256" cy="256" fill="#f15a45" r="250" fill-opacity="1" data-original-color="#e04f5fff" stroke="none" stroke-opacity="1"/><path d="m432.781 240h-108.13l34.499-34.503c6.252-6.248 6.252-16.376 0-22.628-6.248-6.247-16.381-6.247-22.619 0l-61.811 61.811c-2.9 2.891-4.688 6.886-4.697 11.296v.027.023c.009 4.414 1.797 8.409 4.697 11.301l61.811 61.806c3.119 3.124 7.21 4.688 11.31 4.688 4.091 0 8.19-1.564 11.31-4.688 6.252-6.247 6.252-16.381 0-22.628l-34.5-34.505h108.13c8.829 0 15.998-7.16 15.998-15.998 0-8.837-7.169-16.002-15.998-16.002zm-195.501 4.679c2.9 2.891 4.693 6.886 4.702 11.296v.027.023c-.009 4.414-1.801 8.409-4.702 11.301l-61.811 61.806c-3.119 3.124-7.219 4.688-11.31 4.688s-8.191-1.564-11.31-4.688c-6.248-6.247-6.248-16.381 0-22.628l34.5-34.504h-108.126c-8.833 0-16.002-7.16-16.002-15.998s7.169-16.002 16.002-16.002h108.126l-34.499-34.503c-6.248-6.248-6.248-16.376 0-22.628 6.252-6.247 16.381-6.247 22.619 0z" fill="#ebeef0" fill-opacity="1" data-original-color="#ebeef0ff" stroke="none" stroke-opacity="1"/></g></g></svg>