<svg clip-rule="evenodd" fill-rule="evenodd" height="300" image-rendering="optimizeQuality" shape-rendering="geometricPrecision" text-rendering="geometricPrecision" viewBox="0 0 2667 2667" width="300" xmlns="http://www.w3.org/2000/svg" version="1.1" xmlns:xlink="http://www.w3.org/1999/xlink" xmlns:svgjs="http://svgjs.dev/svgjs"><g width="100%" height="100%" transform="matrix(1,0,0,1,0,0)"><g id="Layer_x0020_1"><circle cx="1333" cy="1333" fill="#f15a45" r="1333" fill-opacity="1" data-original-color="#ff1100ff" stroke="none" stroke-opacity="1"/><path d="m733 1468c-53-27-156-109-129-333 7-60 59-90 84-103 37-20 41-26 64-62 18-27 38-58 73-75 64-31 122-55 204-50 64 4 135-5 198 27 68 34 58 110 86 144 50 60 111 97 119 202 6 88 14 206-82 244-9 87-53 173-124 237v94h140c133 0 216 98 233 276l7 74c2 23-16 44-40 44h-1039c-23 0-42-21-40-44l7-74c17-178 100-276 233-276h140v-84c-75-65-124-151-134-241zm1085 493c-200 0-362-163-362-362s162-362 362-362c199 0 361 163 361 362s-162 362-361 362zm0-644c-156 0-282 127-282 282s126 282 282 282c155 0 281-127 281-282s-126-282-281-282zm0-114c-200 0-362-162-362-361 0-200 162-362 362-362 199 0 361 162 361 362 0 199-162 361-361 361zm0-643c-156 0-282 126-282 282 0 155 126 281 282 281 155 0 281-126 281-281 0-156-126-282-281-282zm-85 409-86-86c-37-37 20-94 57-56l58 57 170-170c37-37 93 20 56 57l-198 198c-16 16-41 16-57 0zm200 785c-10 0-21-4-29-12l-86-86-87 86c-37 37-94-19-56-56l86-87-86-87c-38-37 19-94 56-56l87 86 86-86c38-38 94 19 57 56l-87 87 87 87c25 25 7 68-28 68zm-986 73c3 24-15 46-40 46h-16c44 143 268 143 312 0h-17c-24 0-42-19-40-46v-69c-68 38-131 41-199 6zm-16-169c1 1 2 2 3 2 84 69 137 64 227-10 71-59 110-139 111-220 2-143 31-128-33-151-80-30-172-109-263-109-59 0-113 36-165 109v161c1 82 51 161 120 218zm-123 215h-81c-89 0-140 68-153 204l-3 30h951l-3-30c-13-136-64-204-153-204h-81c-20 106-119 188-238 188s-218-82-239-188zm-125-727c-14 122 17 187 48 221v-100c0-8 2-16 7-22 199-296 409-85 529-41 54 20 78 41 88 70-4-132-28-116-104-207-40-49-33-110-60-124-43-21-114-14-167-18-63-4-107 14-164 42-24 12-47 62-74 92-44 49-92 43-103 87z" fill="#ffffff" fill-opacity="1" data-original-color="#ffffffff" stroke="none" stroke-opacity="1"/></g></g></svg>