<svg width="722" height="722" xmlns="http://www.w3.org/2000/svg" xmlns:xlink="http://www.w3.org/1999/xlink" xml:space="preserve" overflow="hidden"><g transform="translate(-435 -250)"><path d="M470.964 611.439C470.964 431.946 616.471 286.439 795.964 286.439 975.457 286.439 1120.96 431.946 1120.96 611.439 1120.96 790.932 975.457 936.439 795.964 936.439 616.471 936.439 470.964 790.932 470.964 611.439Z" stroke="#F15A45" stroke-width="23.1263" stroke-miterlimit="8" fill="#F15A45" fill-rule="evenodd"/><g><g><g><path d="M903.724 806C903.724 806 903.724 806 903.496 806L745.851 796.404C743.109 796.404 741.053 793.891 741.51 791.378 752.019 710.728 672.74 755.28 653.32 725.121 648.293 717.353 648.522 706.158 654.005 690.165 640.982 681.255 642.81 670.06 653.32 661.606L641.211 653.61C638.241 651.782 638.469 647.67 641.211 646.07 658.575 635.332 659.032 630.763 658.803 630.077 658.575 627.564 650.807 624.366 646.009 622.309 636.87 618.654 625.675 613.856 627.731 603.803 627.959 602.889 628.188 602.204 628.873 601.518L672.283 553.996C663.829 511.501 677.995 474.032 711.808 447.986 760.244 411.202 839.067 405.262 895.271 434.506 941.65 458.496 966.097 501.905 964.269 556.967 964.726 562.221 967.468 615.227 898.469 698.39 897.098 704.33 890.016 740.657 908.294 800.06 908.979 803.03 906.923 806 903.724 806ZM751.105 787.722 897.555 796.404C879.735 733.803 888.873 695.877 890.93 693.364 959.928 610.429 955.359 558.109 955.359 557.424 955.13 557.195 955.13 556.967 955.13 556.738 956.958 505.332 934.339 464.893 891.158 442.503 837.696 415.086 763.214 420.569 717.52 455.297 695.13 472.432 670.684 503.504 681.65 554.453 682.107 556.053 681.65 557.424 680.508 558.566L636.87 606.545C639.155 612.942 666.8 615.455 667.942 629.163 668.627 635.332 663.829 641.729 652.177 649.726L664.286 657.722C667.256 659.779 666.8 664.12 663.829 665.719 660.631 667.318 654.234 672.116 654.005 676 654.005 682.626 666.571 683.083 664.058 689.937 650.807 724.893 663.829 727.178 692.617 728.777 710.438 729.919 730.543 731.29 742.195 745.455 749.963 755.051 752.933 768.759 751.105 787.722Z" fill="#FFFFFF" fill-rule="evenodd"/><path d="M798.856 624.366C796.343 624.366 794.286 622.309 794.286 619.796L794.286 567.933 774.181 567.933C770.982 567.933 768.698 564.735 769.84 561.765L792.916 497.107C793.601 495.279 795.2 493.909 797.257 493.909L847.063 493.223C850.262 493.223 852.547 496.65 851.176 499.62L836.782 532.977 853.003 532.977C856.659 532.977 858.944 537.09 856.888 540.06L802.74 622.309C801.826 623.452 800.455 624.366 798.856 624.366ZM780.578 558.794 798.856 558.794C801.369 558.794 803.425 560.851 803.425 563.364L803.425 604.489 844.55 542.116 829.699 542.116C826.501 542.116 824.216 538.917 825.587 535.947L839.981 502.59 800.455 503.047Z" fill="#FFFFFF" fill-rule="evenodd"/><path d="M813.706 657.037C759.33 657.037 715.235 612.942 715.235 558.794 715.235 504.647 759.33 460.552 813.706 460.552 867.854 460.552 911.949 504.647 911.949 558.794 911.949 612.942 867.854 657.037 813.706 657.037ZM813.706 469.691C764.357 469.691 724.374 509.673 724.374 558.794 724.374 607.916 764.357 647.898 813.706 647.898 862.828 647.898 902.81 607.916 902.81 558.794 902.81 509.673 862.828 469.691 813.706 469.691Z" fill="#FFFFFF" fill-rule="evenodd"/></g></g></g><path d="M438.911 611.433C438.911 414.267 598.746 254.433 795.912 254.433 993.078 254.433 1152.91 414.267 1152.91 611.433 1152.91 808.599 993.078 968.433 795.912 968.433 598.746 968.433 438.911 808.599 438.911 611.433Z" stroke="#F15A45" stroke-width="6.875" stroke-miterlimit="8" fill="none" fill-rule="evenodd"/></g></svg>