<svg width="723" height="722" xmlns="http://www.w3.org/2000/svg" xmlns:xlink="http://www.w3.org/1999/xlink" xml:space="preserve" overflow="hidden"><g transform="translate(-2471 -1414)"><path d="M2474.91 1775.43C2474.91 1578.27 2634.97 1418.43 2832.41 1418.43 3029.85 1418.43 3189.91 1578.27 3189.91 1775.43 3189.91 1972.6 3029.85 2132.43 2832.41 2132.43 2634.97 2132.43 2474.91 1972.6 2474.91 1775.43Z" stroke="#92D050" stroke-width="6.875" stroke-miterlimit="8" fill="none" fill-rule="evenodd"/><path d="M2496.95 1770.94C2496.95 1587.86 2645.15 1439.44 2827.95 1439.44 3010.76 1439.44 3158.95 1587.86 3158.95 1770.94 3158.95 1954.02 3010.76 2102.44 2827.95 2102.44 2645.15 2102.44 2496.95 1954.02 2496.95 1770.94Z" stroke="#92D050" stroke-width="23.1263" stroke-miterlimit="8" fill="#92D050" fill-rule="evenodd"/><g><g><g><path d="M2789.22 1981.75C2778.07 1981.75 2766.92 1979.77 2757.01 1975.56 2741.4 1968.87 2715.87 1951.02 2719.59 1906.42 2719.84 1903.69 2722.32 1901.71 2725.04 1901.96 2727.77 1901.96 2729.75 1904.44 2729.5 1907.16 2726.28 1943.84 2744.87 1959.7 2760.97 1966.64 2787.74 1978.04 2822.18 1970.11 2835.07 1955.49 2841.26 1948.55 2844.73 1937.64 2849.19 1923.77 2858.36 1895.52 2871 1856.86 2917.83 1817.95 2971.11 1773.6 2990.44 1716.6 2970.86 1661.84 2951.78 1608.56 2900.73 1569.41 2849.44 1568.91 2849.19 1568.91 2848.7 1568.91 2848.45 1568.91 2802.11 1568.91 2764.44 1600.63 2742.64 1658.37 2741.65 1661.09 2738.92 1662.33 2736.19 1661.34 2733.72 1660.35 2732.48 1657.38 2733.47 1654.9 2765.19 1570.89 2819.7 1559 2849.44 1559 2904.7 1559.5 2959.71 1601.37 2980.03 1658.37 3001.09 1717.35 2980.78 1778.31 2924.03 1825.64 2879.67 1862.56 2867.53 1899.73 2858.61 1926.99 2853.9 1941.11 2849.94 1953.5 2842.5 1962.18 2831.35 1974.81 2810.53 1981.75 2789.22 1981.75Z" fill="#FFFFFF" fill-rule="evenodd"/><path d="M2821.69 1877.92C2814.25 1877.92 2806.57 1876.19 2799.88 1871.98 2789.47 1865.53 2784.02 1853.89 2784.51 1839.51 2784.76 1836.79 2786.99 1834.8 2789.72 1834.8 2792.44 1835.05 2794.68 1837.28 2794.43 1840.01 2793.93 1850.91 2797.65 1858.84 2805.08 1863.55 2815.24 1869.75 2829.86 1868.75 2838.04 1864.05 2841.51 1862.06 2844.98 1853.89 2848.7 1845.21 2855.14 1829.85 2864.06 1808.54 2883.88 1792.18 2918.33 1763.44 2914.86 1733.45 2909.66 1718.34 2901.23 1693.06 2877.19 1673.98 2852.91 1673.24 2831.6 1672.25 2813.76 1685.88 2802.85 1711.15 2801.86 1713.63 2798.89 1714.87 2796.41 1713.63 2793.93 1712.64 2792.69 1709.66 2793.93 1707.19 2810.78 1667.54 2838.54 1662.58 2853.4 1663.33 2881.65 1664.32 2909.16 1686.12 2919.07 1715.12 2929.23 1745.1 2918.82 1775.83 2890.33 1799.62 2872.24 1814.48 2864.31 1833.81 2857.86 1849.18 2853.16 1860.33 2849.44 1869.25 2843 1872.72 2837.3 1875.94 2829.62 1877.92 2821.69 1877.92Z" fill="#FFFFFF" fill-rule="evenodd"/><path d="M2751.8 1854.63C2705.96 1854.63 2668.79 1817.46 2668.79 1771.62 2668.79 1725.77 2705.96 1688.6 2751.8 1688.6 2797.4 1688.6 2834.57 1725.77 2834.57 1771.62 2834.57 1817.46 2797.4 1854.63 2751.8 1854.63ZM2751.8 1698.51C2711.41 1698.51 2678.7 1731.47 2678.7 1771.62 2678.7 1812.01 2711.41 1844.72 2751.8 1844.72 2791.95 1844.72 2824.66 1812.01 2824.66 1771.62 2824.66 1731.47 2791.95 1698.51 2751.8 1698.51Z" fill="#FFFFFF" fill-rule="evenodd"/><path d="M2720.33 1808.04C2719.09 1808.04 2717.86 1807.55 2716.86 1806.56 2714.88 1804.57 2714.88 1801.35 2716.86 1799.62L2779.56 1736.67C2781.54 1734.94 2784.51 1734.94 2786.5 1736.67 2788.48 1738.66 2788.48 1741.88 2786.5 1743.86L2723.8 1806.56C2722.81 1807.55 2721.57 1808.04 2720.33 1808.04Z" fill="#FFFFFF" fill-rule="evenodd"/><path d="M2783.03 1808.04C2781.79 1808.04 2780.55 1807.55 2779.56 1806.56L2716.86 1743.86C2714.88 1741.88 2714.88 1738.66 2716.86 1736.67 2718.85 1734.94 2721.82 1734.94 2723.8 1736.67L2786.5 1799.62C2788.48 1801.35 2788.48 1804.57 2786.5 1806.56 2785.51 1807.55 2784.27 1808.04 2783.03 1808.04Z" fill="#FFFFFF" fill-rule="evenodd"/></g></g></g></g></svg>