<svg width="722" height="723" xmlns="http://www.w3.org/2000/svg" xmlns:xlink="http://www.w3.org/1999/xlink" xml:space="preserve" overflow="hidden"><defs><clipPath id="clip0"><rect x="3175" y="338" width="356" height="358"/></clipPath><clipPath id="clip1"><rect x="3175" y="338" width="356" height="358"/></clipPath><clipPath id="clip2"><rect x="3175" y="338" width="356" height="358"/></clipPath></defs><g transform="translate(-2986 -149)"><path d="M3021.96 506.439C3021.96 326.946 3167.47 181.439 3346.96 181.439 3526.46 181.439 3671.96 326.946 3671.96 506.439 3671.96 685.932 3526.46 831.439 3346.96 831.439 3167.47 831.439 3021.96 685.932 3021.96 506.439Z" stroke="#92D050" stroke-width="23.1263" stroke-miterlimit="8" fill="#92D050" fill-rule="evenodd"/><path d="M2989.91 510.933C2989.91 313.491 3149.75 153.433 3346.91 153.433 3544.08 153.433 3703.91 313.491 3703.91 510.933 3703.91 708.375 3544.08 868.433 3346.91 868.433 3149.75 868.433 2989.91 708.375 2989.91 510.933Z" stroke="#92D050" stroke-width="6.875" stroke-miterlimit="8" fill="none" fill-rule="evenodd"/><g clip-path="url(#clip0)"><g clip-path="url(#clip1)"><g clip-path="url(#clip2)"><path d="M317.765 214.993C324.341 201.649 331.142 187.852 329.891 171.853 329.042 161.674 325.558 151.89 319.78 143.466 301.277 115.56 269.739 99.1122 236.266 99.9118 223.668 99.9078 211.665 105.269 203.261 114.654 194.252 125.06 190.045 138.78 191.671 152.447 192.039 155.823 192.739 159.155 193.762 162.393 196.743 171.31 200.182 180.067 204.068 188.63 207.342 196.181 210.725 203.986 213.325 211.795 219.078 227.985 219.895 245.519 215.673 262.174 214.011 266.871 211.499 271.221 208.263 275.009 206.657 277.165 204.997 279.392 203.48 281.799 195.189 294.965 192.947 307.034 196.205 320.934 200.704 340.104 220.527 355 241.45 355 241.58 355 241.712 354.998 241.84 354.998 258.862 354.846 272.288 349.38 281.743 338.752 298.395 320.037 296.599 291.869 296.225 287.677 297.338 268.536 303.985 248.886 310.136 231.953 312.369 226.166 314.916 220.504 317.765 214.993ZM299.708 228.167C293.24 245.97 286.247 266.703 285.126 287.49L285.101 287.937 285.15 288.384C285.18 288.652 287.864 315.181 273.455 331.38 266.169 339.568 255.498 343.782 241.742 343.904 241.645 343.904 241.553 343.907 241.455 343.907 225.732 343.904 210.319 332.515 207.006 318.399 204.444 307.481 206.199 298.302 212.867 287.712 214.151 285.673 215.611 283.712 217.158 281.637 221.261 276.772 224.389 271.163 226.372 265.116 231.178 246.342 230.3 226.564 223.85 208.29 221.098 200.021 217.615 191.985 214.246 184.217 210.518 176.004 207.212 167.604 204.341 159.053 203.539 156.512 202.989 153.897 202.7 151.247L202.7 151.245C201.412 140.689 204.628 130.078 211.562 122.015 217.902 114.9 227.015 110.883 236.545 111.003L236.864 110.989C237.097 110.973 237.975 110.922 239.389 110.922 268.069 111.214 294.735 125.721 310.561 149.641 315.273 156.485 318.123 164.438 318.83 172.717 319.845 185.68 314.001 197.535 307.814 210.088 304.786 215.963 302.08 221.998 299.708 228.167Z" fill="#FFFFFF" transform="matrix(1 0 0 1.00282 3176 339)"/><path d="M199.125 89.9284C201.949 92.3473 205.528 93.7055 209.246 93.769 209.746 93.7685 210.246 93.7423 210.744 93.6905 221.472 92.5665 228.66 79.6635 227.114 64.3148 226.58 56.0419 222.884 48.2915 216.792 42.6689 213.586 39.8968 209.395 38.539 205.173 38.9042 194.445 40.0282 187.254 52.9285 188.8 68.2799 189.337 76.5534 193.033 84.304 199.125 89.9284ZM206.324 49.9384C206.432 49.9275 206.541 49.9221 206.649 49.9221 207.819 49.998 208.928 50.4743 209.788 51.2709 213.597 55.0271 215.843 60.086 216.074 65.4306 217.006 74.6529 213.352 82.2636 209.593 82.6563 208.307 82.6932 207.059 82.2132 206.129 81.3237 202.32 77.5673 200.073 72.5087 199.84 67.164 198.908 57.9418 202.562 50.3311 206.324 49.9384Z" fill="#FFFFFF" transform="matrix(1 0 0 1.00282 3176 339)"/><path d="M245.948 89.8012C247.159 90.1241 248.406 90.288 249.659 90.2887 252.574 90.2536 255.423 89.4229 257.901 87.8863 264.101 83.6941 268.408 77.2352 269.894 69.8996 273.13 56.2057 267.849 43.3921 257.874 40.727 253.795 39.6907 249.469 40.3846 245.918 42.6446 239.72 46.8373 235.415 53.2963 233.931 60.6313 230.694 74.3251 235.973 87.1387 245.948 89.8012ZM244.727 63.1826C245.517 58.7595 247.984 54.8123 251.614 52.1647 252.382 51.6619 253.271 51.3764 254.187 51.3386 254.466 51.3374 254.744 51.3739 255.013 51.447 258.494 52.3761 260.98 59.3746 259.098 67.3482 258.306 71.7707 255.838 75.7168 252.207 78.3635 251.222 79.0623 249.992 79.3222 248.808 79.0812 245.328 78.1522 242.842 71.1563 244.727 63.1826Z" fill="#FFFFFF" transform="matrix(1 0 0 1.00282 3176 339)"/><path d="M286.179 98.1215C286.328 98.127 286.477 98.1296 286.629 98.1296 294.993 98.1296 302.88 90.2454 304.71 79.9533L304.71 79.9505C305.912 74.4239 304.673 68.6474 301.309 64.1008 298.932 61.0843 295.347 59.2682 291.51 59.1363 291.361 59.1308 291.212 59.1282 291.06 59.1282 282.694 59.1282 274.804 67.0124 272.978 77.3045 271.775 82.8307 273.014 88.6076 276.378 93.1542 278.754 96.1725 282.34 97.9898 286.179 98.1215ZM283.899 79.2464C284.812 74.1166 288.465 70.2219 291.049 70.2219 291.076 70.2219 291.106 70.2219 291.136 70.2246 291.76 70.2466 292.336 70.5644 292.688 71.0805 293.993 73.1397 294.392 75.6459 293.79 78.0086 292.877 83.141 289.224 87.0358 286.64 87.0358 286.613 87.0358 286.583 87.0358 286.553 87.033 285.928 87.0115 285.351 86.6923 285.001 86.1744 283.693 84.1163 283.294 81.6089 283.899 79.2464Z" fill="#FFFFFF" transform="matrix(1 0 0 1.00282 3176 339)"/><path d="M302.847 107.216C304.165 110.62 306.95 113.247 310.425 114.364 311.761 114.795 313.157 115.011 314.561 115.006 321.905 114.568 328.467 110.272 331.806 103.717L331.808 103.714C334.417 99.3076 334.947 93.9737 333.255 89.1403 331.935 85.736 329.149 83.1089 325.674 81.99 318.223 79.5605 308.838 84.238 304.291 92.6395 301.68 97.0467 301.151 102.383 302.847 107.216ZM314.049 97.9183C315.452 94.9732 318.224 92.9155 321.449 92.4256 321.712 92.4205 321.975 92.458 322.226 92.5366 322.574 92.6344 322.847 92.9046 322.949 93.2516 323.375 95.0305 323.05 96.9065 322.05 98.4382 319.788 102.615 315.696 104.427 313.87 103.817 313.524 103.719 313.252 103.45 313.15 103.105 312.724 101.326 313.049 99.4499 314.049 97.9183Z" fill="#FFFFFF" transform="matrix(1 0 0 1.00282 3176 339)"/><path d="M329.203 113.313C322.676 120.664 321.998 130.474 327.662 135.652 329.888 137.641 332.781 138.719 335.765 138.672 336.004 138.672 336.242 138.664 336.483 138.653 341.6 138.182 346.322 135.706 349.619 131.766 356.146 124.415 356.824 114.605 351.16 109.426 348.741 107.284 345.563 106.203 342.339 106.426 337.222 106.896 332.5 109.372 329.203 113.313ZM337.496 120.68C338.842 118.981 340.776 117.849 342.916 117.506 342.967 117.503 343.019 117.5 343.067 117.5 343.277 117.481 343.487 117.521 343.674 117.617 344.178 118.077 344.151 121.216 341.326 124.399 339.98 126.097 338.046 127.23 335.906 127.573 335.648 127.608 335.385 127.569 335.148 127.462 334.644 127.002 334.671 123.86 337.496 120.68Z" fill="#FFFFFF" transform="matrix(1 0 0 1.00282 3176 339)"/><path d="M118.736 61.0836C85.2625 60.285 53.7247 76.7325 35.2211 104.638 29.4441 113.061 25.9596 122.844 25.1105 133.022 23.8593 149.024 30.6602 162.821 37.2362 176.165 40.0855 181.676 42.6325 187.338 44.8659 193.125 51.0168 210.058 57.6633 229.708 58.7765 248.849 58.4027 253.041 56.607 281.209 73.2585 299.924 82.7136 310.552 96.1394 316.018 113.162 316.169 113.292 316.169 113.422 316.172 113.552 316.172 134.472 316.172 154.298 301.273 158.796 282.106 162.055 268.206 159.812 256.137 151.522 242.969 150.005 240.564 148.345 238.337 146.739 236.181 143.502 232.393 140.991 228.043 139.328 223.346 135.107 206.691 135.924 189.157 141.676 172.967 144.277 165.158 147.659 157.352 150.934 149.801 154.819 141.24 158.259 132.484 161.239 123.567 162.262 120.328 162.962 116.996 163.33 113.619 164.957 99.9519 160.749 86.2318 151.741 75.8256 143.337 66.4409 131.333 61.0796 118.736 61.0836ZM152.301 112.417 152.301 112.419C152.012 115.07 151.462 117.685 150.66 120.228 147.789 128.778 144.483 137.176 140.755 145.389 137.386 153.157 133.903 161.193 131.151 169.462 124.701 187.736 123.823 207.514 128.63 226.287 130.612 232.335 133.741 237.944 137.844 242.809 139.39 244.883 140.85 246.844 142.134 248.881 148.802 259.474 150.557 268.653 147.995 279.57 144.683 293.689 129.269 305.078 113.546 305.078 113.452 305.078 113.354 305.076 113.259 305.076 99.5248 304.954 88.8671 300.756 81.5842 292.592 67.2078 276.483 69.8241 249.815 69.8512 249.555L69.9 249.109 69.8756 248.662C68.7543 227.874 61.7611 207.141 55.2934 189.339 52.9211 183.17 50.215 177.135 47.187 171.26 41.001 158.706 35.1562 146.852 36.1718 133.886 36.8787 125.608 39.7284 117.656 44.4407 110.813 60.2649 86.8933 86.9287 72.3864 115.608 72.0934 117.019 72.0934 117.896 72.1448 118.124 72.1611L118.457 72.1746C127.986 72.0546 137.1 76.0718 143.439 83.1871 150.373 91.2502 153.59 101.861 152.301 112.417Z" fill="#FFFFFF" transform="matrix(1 0 0 1.00282 3176 339)"/><path d="M149.826 0.0760754C145.604-0.289154 141.414 1.06873 138.209 3.8408 132.117 9.46335 128.422 17.2138 127.888 25.4866 126.341 40.8353 133.529 53.7383 144.26 54.8623 144.757 54.9142 145.256 54.9404 145.755 54.9409 149.473 54.8773 153.052 53.5191 155.877 51.1003 161.968 45.4759 165.664 37.7253 166.201 29.4518 167.748 14.1004 160.557 1.20009 149.826 0.0760754ZM155.162 28.3359C154.928 33.6806 152.682 38.7392 148.873 42.4956 147.945 43.3865 146.697 43.8667 145.411 43.8282 141.649 43.4355 137.996 35.8248 138.927 26.6025 139.159 21.2579 141.404 16.199 145.214 12.4428 146.073 11.6467 147.181 11.1705 148.35 11.094 148.459 11.0939 148.567 11.0994 148.675 11.1103 152.44 11.503 156.093 19.1137 155.161 28.3359Z" fill="#FFFFFF" transform="matrix(1 0 0 1.00282 3176 339)"/><path d="M97.1009 49.0582C99.578 50.5947 102.428 51.4254 105.343 51.4605 106.595 51.4599 107.843 51.296 109.053 50.973 119.028 48.3105 124.307 35.497 121.07 21.8032 119.587 14.4682 115.282 8.00912 109.083 3.81645 105.531 1.56009 101.207 0.866473 97.1279 1.89886 87.1527 4.56397 81.8712 17.3776 85.1078 31.0714 86.5937 38.407 90.9004 44.866 97.1009 49.0582ZM99.988 12.6188C101.172 12.3765 102.403 12.6365 103.387 13.3366 107.017 15.9841 109.485 19.9314 110.275 24.3545 112.16 32.3281 109.673 39.324 106.193 40.253 105.01 40.4963 103.778 40.2362 102.794 39.5353 99.1637 36.8886 96.6953 32.9425 95.9037 28.5201 94.0213 20.5464 96.5076 13.5479 99.988 12.6188Z" fill="#FFFFFF" transform="matrix(1 0 0 1.00282 3176 339)"/><path d="M50.2908 41.1252C52.1217 51.4172 60.0086 59.3015 68.3723 59.3015 68.5239 59.3015 68.6729 59.2987 68.8219 59.2933 72.6612 59.1616 76.2472 57.3443 78.6237 54.3261 81.9874 49.7804 83.2264 44.0044 82.0228 38.479 80.1648 28.0028 72.072 20.0346 63.4917 20.3081 59.6538 20.44 56.069 22.2562 53.6926 25.2726 50.3286 29.8193 49.0888 35.5958 50.2908 41.1224ZM62.3136 32.2523C62.6652 31.7362 63.2415 31.4184 63.8655 31.3965 63.8953 31.3937 63.9224 31.3937 63.9522 31.3937 66.5361 31.3937 70.1897 35.2884 71.1025 40.4209 71.7072 42.7826 71.3082 45.2892 70.0002 47.3464 69.6499 47.8643 69.0731 48.1834 68.4482 48.2049 65.8048 48.3972 62.1349 44.3725 61.2113 39.1804 60.6095 36.8178 61.0083 34.3115 62.3136 32.2523Z" fill="#FFFFFF" transform="matrix(1 0 0 1.00282 3176 339)"/><path d="M23.1957 64.8889C26.5344 71.4444 33.0966 75.7402 40.4403 76.1777 41.8441 76.183 43.2399 75.9664 44.5761 75.5358 48.0512 74.4187 50.836 71.7921 52.1543 68.3882 53.8501 63.5534 53.3206 58.2161 50.708 53.8087 46.1632 45.4071 36.7622 40.7351 29.3248 43.1618 25.8504 44.2817 23.0662 46.9086 21.7466 50.3121 20.0548 55.1456 20.5841 60.4795 23.1928 64.8862ZM32.0523 54.4235C32.1538 54.0774 32.4258 53.8075 32.7727 53.7085 34.5928 53.0991 38.6907 54.9111 40.9495 59.0875 41.9515 60.6194 42.2778 62.4966 41.8514 64.2768 41.7497 64.6223 41.4776 64.8914 41.1309 64.9891 39.3 65.6012 35.213 63.7866 32.9515 59.6102 31.9513 58.0785 31.626 56.2025 32.0523 54.4236Z" fill="#FFFFFF" transform="matrix(1 0 0 1.00282 3176 339)"/><path d="M18.5182 99.8251C18.7593 99.8359 18.9976 99.844 19.236 99.844 22.2206 99.8908 25.1135 98.8127 27.3396 96.8241 33.003 91.6456 32.3259 81.8356 25.7985 74.4849 22.5015 70.5442 17.7791 68.0681 12.6626 67.5974 9.43984 67.3827 6.2646 68.4628 3.84127 70.5982-1.82209 75.7768-1.14496 85.5867 5.38236 92.9374 8.6794 96.8782 13.4018 99.3543 18.5182 99.8251ZM11.3274 78.7885C11.5654 78.6835 11.8276 78.6452 12.0857 78.6776 14.2256 79.0208 16.1593 80.1533 17.5053 81.8519 20.3302 85.0316 20.3573 88.1734 19.8535 88.6338 19.6165 88.7424 19.3533 88.7809 19.0951 88.7447 16.9553 88.4015 15.0216 87.269 13.6756 85.5704 10.8506 82.3881 10.8236 79.2491 11.3273 78.7886Z" fill="#FFFFFF" transform="matrix(1 0 0 1.00282 3176 339)"/><path d="M53.2295 322.811C52.929 322.589 25.7128 301.871 21.7288 259.963 23.3307 262.572 26.7447 263.389 29.3542 261.787 31.9433 260.198 32.771 256.821 31.21 254.214L20.119 235.669C19.0951 233.922 17.1887 232.884 15.1652 232.972 13.1468 233.043 11.3263 234.205 10.4118 236.005L0.601836 255.324C-0.784799 258.056 0.305336 261.394 3.03672 262.781 5.7681 264.167 9.10642 263.077 10.4931 260.346L10.5978 260.139C14.6595 307.415 45.2123 330.678 46.6154 331.721 49.0761 333.548 52.5514 333.034 54.3778 330.573 56.2042 328.112 55.6901 324.637 53.2295 322.811Z" fill="#FFFFFF" transform="matrix(1 0 0 1.00282 3176 339)"/><path d="M353.53 267.718 338.474 251.395C336.396 249.143 332.887 249.003 330.636 251.08 329.932 251.73 329.409 252.55 329.116 253.461L322.492 274.105C321.555 277.022 323.161 280.145 326.078 281.082 328.994 282.018 332.118 280.413 333.054 277.496L333.487 276.15C340.898 318.021 318.561 344.622 317.527 345.821 315.527 348.142 315.787 351.645 318.108 353.645 320.416 355.635 323.897 355.39 325.904 353.096 327.086 351.736 352.799 321.462 344.405 274.187L345.378 275.242C347.448 277.501 350.956 277.654 353.215 275.584 355.473 273.514 355.626 270.005 353.557 267.747 353.548 267.737 353.539 267.728 353.53 267.718Z" fill="#FFFFFF" transform="matrix(1 0 0 1.00282 3176 339)"/></g></g></g></g></svg>