<svg width="722" height="722" xmlns="http://www.w3.org/2000/svg" xmlns:xlink="http://www.w3.org/1999/xlink" xml:space="preserve" overflow="hidden"><g transform="translate(-2536 -1503)"><path d="M2539.91 1864.43C2539.91 1667.27 2699.75 1507.43 2896.91 1507.43 3094.08 1507.43 3253.91 1667.27 3253.91 1864.43 3253.91 2061.6 3094.08 2221.43 2896.91 2221.43 2699.75 2221.43 2539.91 2061.6 2539.91 1864.43Z" stroke="#F15A45" stroke-width="6.875" stroke-miterlimit="8" fill="none" fill-rule="evenodd"/><path d="M2560.95 1864.44C2560.95 1681.63 2709.37 1533.44 2892.45 1533.44 3075.54 1533.44 3223.95 1681.63 3223.95 1864.44 3223.95 2047.24 3075.54 2195.44 2892.45 2195.44 2709.37 2195.44 2560.95 2047.24 2560.95 1864.44Z" stroke="#FFFFFF" stroke-width="23.1263" stroke-miterlimit="8" fill="#FFFFFF" fill-rule="evenodd"/><g><g><g><path d="M2857.82 2074.75C2846.69 2074.75 2835.57 2072.77 2825.68 2068.57 2810.1 2061.9 2784.64 2044.1 2788.35 1999.6 2788.6 1996.88 2791.07 1994.9 2793.79 1995.15 2796.51 1995.15 2798.48 1997.62 2798.24 2000.34 2795.02 2036.93 2813.56 2052.75 2829.63 2059.67 2856.33 2071.04 2890.7 2063.13 2903.55 2048.55 2909.73 2041.63 2913.19 2030.75 2917.64 2016.9 2926.79 1988.72 2939.4 1950.16 2986.12 1911.34 3039.27 1867.09 3058.56 1810.23 3039.03 1755.6 3019.99 1702.44 2969.06 1663.38 2917.89 1662.89 2917.64 1662.89 2917.15 1662.89 2916.9 1662.89 2870.67 1662.89 2833.09 1694.53 2811.34 1752.13 2810.35 1754.85 2807.63 1756.09 2804.91 1755.1 2802.44 1754.11 2801.2 1751.15 2802.19 1748.67 2833.84 1664.87 2888.22 1653 2917.89 1653 2973.02 1653.49 3027.9 1695.27 3048.17 1752.13 3069.19 1810.97 3048.91 1871.79 2992.3 1919.01 2948.05 1955.84 2935.94 1992.92 2927.04 2020.12 2922.34 2034.21 2918.38 2046.57 2910.97 2055.22 2899.84 2067.83 2879.08 2074.75 2857.82 2074.75Z" stroke="#F15A45" stroke-width="0.247306" fill="#F15A45" fill-rule="evenodd"/><path d="M2890.2 1971.17C2882.78 1971.17 2875.12 1969.44 2868.45 1965.24 2858.06 1958.81 2852.62 1947.19 2853.12 1932.85 2853.37 1930.13 2855.59 1928.15 2858.31 1928.15 2861.03 1928.4 2863.25 1930.62 2863.01 1933.34 2862.51 1944.22 2866.22 1952.13 2873.64 1956.83 2883.77 1963.01 2898.36 1962.02 2906.52 1957.32 2909.98 1955.35 2913.44 1947.19 2917.15 1938.54 2923.58 1923.21 2932.48 1901.95 2952.25 1885.63 2986.62 1856.95 2983.16 1827.04 2977.96 1811.96 2969.56 1786.74 2945.58 1767.71 2921.35 1766.97 2900.09 1765.98 2882.29 1779.58 2871.41 1804.79 2870.42 1807.26 2867.46 1808.5 2864.99 1807.26 2862.51 1806.27 2861.28 1803.31 2862.51 1800.84 2879.32 1761.28 2907.01 1756.34 2921.85 1757.08 2950.03 1758.07 2977.47 1779.82 2987.36 1808.75 2997.49 1838.66 2987.11 1869.32 2958.68 1893.05 2940.63 1907.88 2932.72 1927.16 2926.3 1942.49 2921.6 1953.62 2917.89 1962.52 2911.46 1965.98 2905.78 1969.19 2898.11 1971.17 2890.2 1971.17Z" stroke="#F15A45" stroke-width="0.247306" fill="#F15A45" fill-rule="evenodd"/><path d="M2820.49 1947.93C2774.75 1947.93 2737.67 1910.85 2737.67 1865.11 2737.67 1819.38 2774.75 1782.29 2820.49 1782.29 2865.97 1782.29 2903.06 1819.38 2903.06 1865.11 2903.06 1910.85 2865.97 1947.93 2820.49 1947.93ZM2820.49 1792.18C2780.19 1792.18 2747.56 1825.06 2747.56 1865.11 2747.56 1905.41 2780.19 1938.04 2820.49 1938.04 2860.54 1938.04 2893.17 1905.41 2893.17 1865.11 2893.17 1825.06 2860.54 1792.18 2820.49 1792.18Z" stroke="#F15A45" stroke-width="0.247306" fill="#F15A45" fill-rule="evenodd"/><path d="M2789.09 1901.45C2787.85 1901.45 2786.62 1900.96 2785.63 1899.97 2783.65 1897.99 2783.65 1894.78 2785.63 1893.05L2848.17 1830.25C2850.15 1828.52 2853.12 1828.52 2855.1 1830.25 2857.07 1832.23 2857.07 1835.45 2855.1 1837.42L2792.55 1899.97C2791.56 1900.96 2790.33 1901.45 2789.09 1901.45Z" stroke="#F15A45" stroke-width="0.247306" fill="#F15A45" fill-rule="evenodd"/><path d="M2851.64 1901.45C2850.4 1901.45 2849.16 1900.96 2848.17 1899.97L2785.63 1837.42C2783.65 1835.45 2783.65 1832.23 2785.63 1830.25 2787.61 1828.52 2790.57 1828.52 2792.55 1830.25L2855.1 1893.05C2857.07 1894.78 2857.07 1897.99 2855.1 1899.97 2854.11 1900.96 2852.87 1901.45 2851.64 1901.45Z" stroke="#F15A45" stroke-width="0.247306" fill="#F15A45" fill-rule="evenodd"/></g></g></g></g></svg>