<svg width="722" height="723" xmlns="http://www.w3.org/2000/svg" xmlns:xlink="http://www.w3.org/1999/xlink" xml:space="preserve" overflow="hidden"><g transform="translate(-619 -1486)"><path d="M622.911 1847.93C622.911 1650.49 782.746 1490.43 979.911 1490.43 1177.08 1490.43 1336.91 1650.49 1336.91 1847.93 1336.91 2045.38 1177.08 2205.43 979.911 2205.43 782.746 2205.43 622.911 2045.38 622.911 1847.93Z" stroke="#92D050" stroke-width="6.875" stroke-miterlimit="8" fill="none" fill-rule="evenodd"/><path d="M647.954 1847.94C647.954 1664.86 796.371 1516.44 979.454 1516.44 1162.54 1516.44 1310.95 1664.86 1310.95 1847.94 1310.95 2031.02 1162.54 2179.44 979.454 2179.44 796.371 2179.44 647.954 2031.02 647.954 1847.94Z" stroke="#92D050" stroke-width="23.1263" stroke-miterlimit="8" fill="#92D050" fill-rule="evenodd"/><g><g><g><path d="M979.5 1950.77C951.615 1950.77 922.716 1944.69 893.508 1932.63 870.292 1923.05 846.864 1909.71 823.861 1892.99 784.776 1864.57 760.78 1836.56 759.776 1835.38 758.006 1833.3 758.006 1830.24 759.776 1828.16 760.79 1826.98 784.776 1798.97 823.856 1770.55 846.854 1753.82 870.287 1740.49 893.503 1730.91 922.686 1718.87 951.615 1712.76 979.5 1712.76 1007.39 1712.76 1036.31 1718.87 1065.5 1730.89 1088.71 1740.47 1112.14 1753.8 1135.14 1770.53 1174.22 1798.95 1198.22 1826.96 1199.22 1828.14 1200.99 1830.22 1200.99 1833.28 1199.22 1835.36 1198.65 1836.04 1184.98 1852.02 1161.5 1872.15 1159.16 1874.15 1155.64 1873.88 1153.63 1871.54 1151.63 1869.2 1151.9 1865.68 1154.24 1863.67 1165.94 1853.69 1177.05 1843.02 1187.5 1831.73 1179.73 1823.26 1158.41 1801.19 1128.36 1779.37 1093.5 1754.1 1039.38 1723.92 979.5 1723.92 919.532 1723.92 865.329 1754.18 830.442 1779.57 800.438 1801.36 779.235 1823.33 771.503 1831.78 779.271 1840.26 800.585 1862.32 830.635 1884.15 865.496 1909.45 919.618 1939.62 979.5 1939.62 998.67 1939.62 1018.54 1936.54 1038.48 1930.47 1041.43 1929.57 1044.55 1931.23 1045.44 1934.18 1046.34 1937.13 1044.68 1940.24 1041.73 1941.14 1020.7 1947.53 999.78 1950.77 979.5 1950.77Z" fill="#FFFFFF"/><path d="M979.5 1950.77C948.766 1950.77 919.674 1938.1 897.65 1915.14 887.109 1904.17 878.723 1891.33 872.929 1877.27 860.835 1848.14 860.835 1815.4 872.929 1786.27 878.723 1772.21 887.109 1759.37 897.65 1748.4 919.674 1725.42 948.761 1712.76 979.5 1712.76 1010.24 1712.76 1039.33 1725.44 1061.36 1748.4 1071.9 1759.37 1080.28 1772.21 1086.08 1786.27 1092.07 1800.7 1095.15 1816.16 1095.15 1831.78 1095.15 1835.13 1095 1838.49 1094.73 1841.77 1094.46 1844.83 1091.76 1847.11 1088.69 1846.84 1085.62 1846.58 1083.35 1843.88 1083.61 1840.81 1083.87 1837.85 1083.99 1834.81 1083.99 1831.78 1083.99 1773.32 1036.14 1723.93 979.495 1723.93 922.848 1723.93 875.007 1773.31 875.007 1831.78 875.007 1890.26 922.858 1939.62 979.5 1939.62 982.58 1939.62 985.077 1942.11 985.077 1945.19 985.077 1948.27 982.58 1950.77 979.5 1950.77Z" fill="#FFFFFF"/><path d="M979.5 1897.33C943.311 1897.29 913.982 1867.97 913.935 1831.78 913.935 1795.63 943.341 1766.22 979.5 1766.22 1015.66 1766.22 1045.07 1795.63 1045.07 1831.78 1045.02 1867.97 1015.69 1897.29 979.5 1897.33ZM979.5 1777.36C949.45 1777.36 925.089 1801.72 925.089 1831.77 925.089 1861.82 949.45 1886.18 979.5 1886.18 1009.55 1886.18 1033.91 1861.83 1033.91 1831.78 1033.88 1801.74 1009.54 1777.4 979.5 1777.36Z" fill="#FFFFFF"/><path d="M996.652 1845.51C983.931 1845.52 973.617 1835.21 973.614 1822.48 973.611 1809.76 983.921 1799.45 996.642 1799.45 1009.36 1799.44 1019.68 1809.75 1019.68 1822.47 1019.68 1822.48 1019.68 1822.48 1019.68 1822.48 1019.66 1835.2 1009.36 1845.5 996.652 1845.51ZM996.652 1810.61C990.091 1810.6 984.771 1815.92 984.768 1822.48 984.765 1829.04 990.081 1834.36 996.642 1834.36 1003.2 1834.37 1008.52 1829.05 1008.53 1822.49 1008.53 1822.49 1008.53 1822.49 1008.53 1822.48 1008.52 1815.93 1003.21 1810.62 996.652 1810.61Z" fill="#FFFFFF"/><path d="M1102.7 1982.24C1061.93 1982.24 1028.77 1949.07 1028.77 1908.29 1028.77 1867.52 1061.92 1834.36 1102.7 1834.36 1143.48 1834.36 1176.63 1867.53 1176.63 1908.29 1176.63 1949.06 1143.46 1982.24 1102.7 1982.24ZM1102.7 1845.51C1068.02 1845.5 1039.91 1873.61 1039.9 1908.28 1039.89 1942.96 1067.99 1971.08 1102.67 1971.09 1137.35 1971.09 1165.46 1942.99 1165.47 1908.31 1165.47 1908.31 1165.47 1908.3 1165.47 1908.29 1165.43 1873.64 1137.35 1845.57 1102.7 1845.51Z" fill="#FFFFFF"/><path d="M1135.55 1913.87 1069.83 1913.87C1066.75 1913.87 1064.25 1911.37 1064.25 1908.29 1064.25 1905.21 1066.75 1902.72 1069.83 1902.72L1135.55 1902.72C1138.63 1902.72 1141.13 1905.21 1141.13 1908.29 1141.13 1911.37 1138.63 1913.87 1135.55 1913.87Z" fill="#FFFFFF"/></g></g></g></g></svg>