<svg width="723" height="723" xmlns="http://www.w3.org/2000/svg" xmlns:xlink="http://www.w3.org/1999/xlink" xml:space="preserve" overflow="hidden"><g transform="translate(-3269 -1239)"><path d="M3272.91 1600.93C3272.91 1403.49 3432.97 1243.43 3630.41 1243.43 3827.85 1243.43 3987.91 1403.49 3987.91 1600.93 3987.91 1798.37 3827.85 1958.43 3630.41 1958.43 3432.97 1958.43 3272.91 1798.37 3272.91 1600.93Z" stroke="#F15A45" stroke-width="6.875" stroke-miterlimit="8" fill="none" fill-rule="evenodd"/><path d="M3298.95 1600.94C3298.95 1417.85 3447.37 1269.44 3630.45 1269.44 3813.54 1269.44 3961.95 1417.85 3961.95 1600.94 3961.95 1784.02 3813.54 1932.44 3630.45 1932.44 3447.37 1932.44 3298.95 1784.02 3298.95 1600.94Z" stroke="#F15A45" stroke-width="23.1263" stroke-miterlimit="8" fill="#F15A45" fill-rule="evenodd"/><g><g><g><path d="M3591.22 1811.75C3580.07 1811.75 3568.92 1809.77 3559.01 1805.56 3543.4 1798.87 3517.87 1781.02 3521.59 1736.42 3521.84 1733.69 3524.32 1731.71 3527.04 1731.96 3529.77 1731.96 3531.75 1734.44 3531.5 1737.16 3528.28 1773.84 3546.87 1789.7 3562.97 1796.64 3589.74 1808.04 3624.18 1800.11 3637.07 1785.48 3643.26 1778.55 3646.73 1767.64 3651.19 1753.77 3660.36 1725.52 3673 1686.86 3719.83 1647.95 3773.11 1603.6 3792.44 1546.6 3772.86 1491.84 3753.78 1438.56 3702.73 1399.41 3651.44 1398.91 3651.19 1398.91 3650.7 1398.91 3650.45 1398.91 3604.11 1398.91 3566.44 1430.63 3544.64 1488.37 3543.65 1491.09 3540.92 1492.33 3538.19 1491.34 3535.72 1490.35 3534.48 1487.38 3535.47 1484.9 3567.19 1400.89 3621.7 1389 3651.44 1389 3706.7 1389.5 3761.71 1431.37 3782.03 1488.37 3803.09 1547.35 3782.78 1608.31 3726.03 1655.64 3681.67 1692.56 3669.53 1729.73 3660.61 1756.99 3655.9 1771.11 3651.94 1783.5 3644.5 1792.18 3633.35 1804.81 3612.53 1811.75 3591.22 1811.75Z" fill="#FFFFFF" fill-rule="evenodd"/><path d="M3623.69 1707.92C3616.25 1707.92 3608.57 1706.19 3601.88 1701.98 3591.47 1695.53 3586.02 1683.89 3586.51 1669.51 3586.76 1666.79 3588.99 1664.8 3591.72 1664.8 3594.44 1665.05 3596.68 1667.28 3596.43 1670.01 3595.93 1680.91 3599.65 1688.84 3607.08 1693.55 3617.24 1699.75 3631.86 1698.75 3640.04 1694.05 3643.51 1692.06 3646.98 1683.89 3650.7 1675.21 3657.14 1659.85 3666.06 1638.54 3685.88 1622.18 3720.33 1593.44 3716.86 1563.45 3711.66 1548.34 3703.23 1523.06 3679.19 1503.98 3654.91 1503.24 3633.6 1502.25 3615.76 1515.88 3604.85 1541.15 3603.86 1543.63 3600.89 1544.87 3598.41 1543.63 3595.93 1542.64 3594.69 1539.66 3595.93 1537.19 3612.78 1497.54 3640.54 1492.58 3655.4 1493.33 3683.65 1494.32 3711.16 1516.12 3721.07 1545.12 3731.23 1575.1 3720.82 1605.83 3692.33 1629.62 3674.24 1644.49 3666.31 1663.81 3659.86 1679.18 3655.16 1690.33 3651.44 1699.25 3645 1702.72 3639.3 1705.94 3631.62 1707.92 3623.69 1707.92Z" fill="#FFFFFF" fill-rule="evenodd"/><path d="M3553.8 1684.63C3507.96 1684.63 3470.79 1647.46 3470.79 1601.62 3470.79 1555.77 3507.96 1518.6 3553.8 1518.6 3599.4 1518.6 3636.57 1555.77 3636.57 1601.62 3636.57 1647.46 3599.4 1684.63 3553.8 1684.63ZM3553.8 1528.51C3513.41 1528.51 3480.7 1561.47 3480.7 1601.62 3480.7 1642.01 3513.41 1674.72 3553.8 1674.72 3593.95 1674.72 3626.66 1642.01 3626.66 1601.62 3626.66 1561.47 3593.95 1528.51 3553.8 1528.51Z" fill="#FFFFFF" fill-rule="evenodd"/><path d="M3522.33 1638.04C3521.09 1638.04 3519.86 1637.55 3518.86 1636.56 3516.88 1634.57 3516.88 1631.35 3518.86 1629.62L3581.56 1566.67C3583.54 1564.94 3586.51 1564.94 3588.5 1566.67 3590.48 1568.66 3590.48 1571.88 3588.5 1573.86L3525.8 1636.56C3524.81 1637.55 3523.57 1638.04 3522.33 1638.04Z" fill="#FFFFFF" fill-rule="evenodd"/><path d="M3585.03 1638.04C3583.79 1638.04 3582.55 1637.55 3581.56 1636.56L3518.86 1573.86C3516.88 1571.88 3516.88 1568.66 3518.86 1566.67 3520.85 1564.94 3523.82 1564.94 3525.8 1566.67L3588.5 1629.62C3590.48 1631.35 3590.48 1634.57 3588.5 1636.56 3587.51 1637.55 3586.27 1638.04 3585.03 1638.04Z" fill="#FFFFFF" fill-rule="evenodd"/></g></g></g></g></svg>