<svg width="722" height="722" xmlns="http://www.w3.org/2000/svg" xmlns:xlink="http://www.w3.org/1999/xlink" xml:space="preserve" overflow="hidden"><g transform="translate(-1265 -250)"><path d="M1300.96 611.439C1300.96 431.946 1446.47 286.439 1625.96 286.439 1805.46 286.439 1950.96 431.946 1950.96 611.439 1950.96 790.932 1805.46 936.439 1625.96 936.439 1446.47 936.439 1300.96 790.932 1300.96 611.439Z" stroke="#92D050" stroke-width="23.1263" stroke-miterlimit="8" fill="#92D050" fill-rule="evenodd"/><g><g><g><path d="M1834.15 595.953C1830.8 595.953 1828.3 593.445 1828.3 590.102L1828.3 448.828C1828.3 447.156 1826.63 445.484 1824.12 445.484L1782.32 445.484C1780.65 445.484 1778.98 447.156 1778.98 448.828L1778.98 590.102C1778.98 593.445 1776.47 595.953 1773.13 595.953 1769.78 595.953 1767.27 593.445 1767.27 590.102L1767.27 448.828C1767.27 440.469 1773.96 433.781 1782.32 433.781L1824.12 433.781C1832.48 433.781 1840 440.469 1840 448.828L1840 590.102C1840 593.445 1837.49 595.953 1834.15 595.953Z" fill="#FFFFFF" fill-rule="evenodd"/><path d="M1769.78 672.859 1707.92 672.859C1690.37 672.859 1673.65 666.172 1660.27 654.469 1658.6 651.961 1657.77 648.617 1660.27 646.109 1662.78 643.602 1666.13 643.602 1668.63 646.109 1679.5 655.305 1692.88 661.156 1707.92 661.156L1769.78 661.156C1801.55 661.156 1828.3 634.406 1828.3 602.641L1828.3 595.953 1649.41 595.953 1649.41 605.148C1649.41 608.492 1646.9 611 1643.55 611 1640.21 611 1637.7 608.492 1637.7 605.148L1637.7 590.102C1637.7 586.758 1640.21 584.25 1643.55 584.25L1834.15 584.25C1837.49 584.25 1840 586.758 1840 590.102L1840 602.641C1840 641.094 1808.23 672.859 1769.78 672.859Z" fill="#FFFFFF" fill-rule="evenodd"/><path d="M1794.86 724.688 1682.01 724.688C1680.34 724.688 1678.66 723.852 1676.99 722.18 1676.16 721.344 1676.16 718.836 1676.16 717.164L1692.04 664.5C1692.88 661.156 1696.22 659.484 1699.56 660.32 1702.07 661.156 1703.74 664.5 1702.91 667.844L1689.53 712.984 1787.34 712.984 1773.96 667.844C1773.13 664.5 1774.8 661.156 1778.14 660.32 1781.48 659.484 1783.99 661.156 1785.66 664.5L1800.71 717.164C1801.55 718.836 1800.71 721.344 1799.88 722.18 1799.04 723.852 1797.37 724.688 1794.86 724.688Z" fill="#FFFFFF" fill-rule="evenodd"/><path d="M1606.77 564.188C1595.91 564.188 1586.71 560.844 1580.02 554.156 1563.3 537.438 1566.65 506.508 1587.55 485.609 1600.09 473.906 1615.13 466.383 1630.18 466.383 1640.21 466.383 1649.41 470.563 1656.93 477.25 1665.29 485.609 1668.63 497.313 1666.96 510.688 1664.45 523.227 1658.6 535.766 1648.57 545.797 1636.03 557.5 1620.98 564.188 1606.77 564.188ZM1630.18 478.086C1618.48 478.086 1605.94 483.938 1595.91 493.969 1579.19 510.688 1575.84 534.094 1587.55 545.797 1592.56 550.812 1599.25 552.484 1606.77 552.484 1617.64 552.484 1630.18 547.469 1640.21 537.438 1648.57 529.078 1653.59 519.047 1655.26 509.016 1656.09 498.984 1653.59 490.625 1648.57 485.609 1643.55 480.594 1637.7 478.086 1630.18 478.086Z" fill="#FFFFFF" fill-rule="evenodd"/><path d="M1440.42 788.219C1425.38 788.219 1412.84 776.516 1412 761.469 1412 753.945 1414.51 746.422 1419.52 741.406 1424.54 735.555 1432.06 732.211 1439.59 732.211L1481.38 730.539C1465.5 706.297 1450.45 682.891 1447.11 672.023 1437.08 646.945 1443.77 618.523 1462.16 599.297L1511.48 549.977C1519 543.289 1527.36 539.945 1535.72 539.945 1555.78 539.945 1575.01 556.664 1583.37 572.547L1603.43 608.492 1668.63 603.477 1671.14 603.477C1684.52 603.477 1695.38 614.344 1696.22 627.719 1697.05 641.93 1686.19 654.469 1671.98 655.305L1590.89 661.992C1590.05 661.992 1590.05 661.992 1589.22 661.992 1579.19 661.992 1570.83 656.977 1565.81 647.781L1554.95 627.719 1513.98 668.68 1553.27 734.719C1558.29 743.914 1558.29 753.109 1553.27 762.305 1545.75 776.516 1525.69 785.711 1511.48 785.711L1441.26 788.219ZM1535.72 551.648C1529.87 551.648 1524.85 554.156 1519.84 558.336L1470.52 607.656C1455.47 623.539 1449.62 646.945 1457.98 667.844 1462.16 680.383 1486.4 717.164 1496.43 733.047 1498.1 734.719 1498.1 737.227 1497.27 738.898 1496.43 740.57 1493.92 742.242 1492.25 742.242L1439.59 743.914C1435.41 743.914 1431.23 745.586 1428.72 748.93 1425.38 752.273 1423.7 756.453 1423.7 760.633 1424.54 769.828 1432.06 777.352 1441.26 776.516L1511.48 774.008C1521.51 774.008 1537.39 766.484 1543.24 756.453 1545.75 751.438 1545.75 746.422 1542.41 740.57L1502.28 670.352C1500.61 667.844 1501.45 665.336 1503.12 662.828L1552.44 614.344C1553.27 612.672 1554.95 611.836 1556.62 612.672 1559.13 612.672 1560.8 613.508 1561.63 615.18L1575.84 642.766C1578.35 646.945 1583.37 650.289 1589.22 650.289L1590.05 650.289 1590.89 650.289 1671.14 643.602C1678.66 643.602 1685.35 636.078 1684.52 628.555 1684.52 621.031 1677.83 615.18 1671.14 615.18 1670.3 615.18 1670.3 615.18 1669.47 615.18L1600.92 621.031C1598.41 621.031 1595.91 619.359 1595.07 617.688L1573.34 578.398C1566.65 565.023 1550.77 551.648 1535.72 551.648Z" fill="#FFFFFF" fill-rule="evenodd"/><path d="M1556.62 624.375C1554.11 624.375 1551.6 622.703 1550.77 620.195L1531.54 574.219C1530.7 570.875 1532.38 567.531 1534.88 566.695 1538.23 565.023 1541.57 566.695 1542.41 570.039L1561.63 616.016C1562.47 619.359 1561.63 622.703 1558.29 623.539 1557.45 623.539 1556.62 624.375 1556.62 624.375Z" fill="#FFFFFF" fill-rule="evenodd"/><path d="M1682.01 578.398C1681.17 578.398 1679.5 578.398 1678.66 577.562 1669.47 570.039 1658.6 565.023 1652.75 563.352 1650.24 562.516 1648.57 559.172 1649.41 555.828 1651.08 552.484 1654.42 551.648 1656.93 552.484 1663.62 554.992 1675.32 560.008 1685.35 567.531 1687.86 570.039 1688.7 573.383 1687.02 575.891 1685.35 577.562 1683.68 578.398 1682.01 578.398Z" fill="#FFFFFF" fill-rule="evenodd"/><path d="M1722.97 577.562C1721.3 577.562 1718.79 576.727 1717.95 574.219 1710.43 562.516 1695.38 556.664 1684.52 553.32 1681.17 552.484 1679.5 549.141 1680.34 545.797 1681.17 543.289 1684.52 540.781 1687.86 542.453 1706.25 547.469 1720.46 556.664 1727.98 568.367 1729.66 570.875 1728.82 575.055 1726.31 576.727 1724.64 576.727 1723.8 577.562 1722.97 577.562Z" fill="#FFFFFF" fill-rule="evenodd"/><path d="M1735.51 544.961C1733.84 544.961 1733 544.961 1731.33 543.289 1721.3 534.094 1703.74 531.586 1691.2 532.422 1687.86 532.422 1685.35 529.914 1685.35 526.57 1685.35 523.227 1687.86 520.719 1691.2 520.719 1705.41 519.883 1726.31 522.391 1739.69 534.93 1742.2 537.438 1742.2 540.781 1739.69 543.289 1738.85 544.961 1737.18 544.961 1735.51 544.961Z" fill="#FFFFFF" fill-rule="evenodd"/><path d="M1507.3 672.859C1504.79 672.859 1503.12 672.023 1501.45 670.352 1501.45 669.516 1498.1 662.828 1489.74 663.664 1486.4 663.664 1483.05 661.992 1483.05 658.648 1482.22 655.305 1484.73 651.961 1488.07 651.961 1504.79 649.453 1512.31 664.5 1512.31 664.5 1513.98 667.844 1512.31 671.188 1509.8 672.859 1508.97 672.859 1508.13 672.859 1507.3 672.859Z" fill="#FFFFFF" fill-rule="evenodd"/><path d="M1803.22 564.188C1799.88 564.188 1797.37 561.68 1797.37 558.336L1797.37 471.398C1797.37 468.055 1799.88 465.547 1803.22 465.547 1806.56 465.547 1809.07 468.055 1809.07 471.398L1809.07 558.336C1809.07 561.68 1806.56 564.188 1803.22 564.188Z" fill="#FFFFFF" fill-rule="evenodd"/></g></g></g><path d="M1268.91 611.433C1268.91 414.267 1428.75 254.433 1625.91 254.433 1823.08 254.433 1982.91 414.267 1982.91 611.433 1982.91 808.599 1823.08 968.433 1625.91 968.433 1428.75 968.433 1268.91 808.599 1268.91 611.433Z" stroke="#92D050" stroke-width="6.875" stroke-miterlimit="8" fill="none" fill-rule="evenodd"/></g></svg>