<svg width="722" height="723" xmlns="http://www.w3.org/2000/svg" xmlns:xlink="http://www.w3.org/1999/xlink" xml:space="preserve" overflow="hidden"><defs><clipPath id="clip0"><rect x="3345" y="389" width="357" height="356"/></clipPath><clipPath id="clip1"><rect x="3345" y="389" width="357" height="356"/></clipPath><clipPath id="clip2"><rect x="3345" y="389" width="357" height="356"/></clipPath></defs><g transform="translate(-3162 -206)"><path d="M3165.91 567.933C3165.91 370.491 3325.75 210.433 3522.91 210.433 3720.08 210.433 3879.91 370.491 3879.91 567.933 3879.91 765.375 3720.08 925.433 3522.91 925.433 3325.75 925.433 3165.91 765.375 3165.91 567.933Z" stroke="#F15A45" stroke-width="6.875" stroke-miterlimit="8" fill="none" fill-rule="evenodd"/><path d="M3191.95 567.938C3191.95 384.855 3340.15 236.438 3522.95 236.438 3705.76 236.438 3853.95 384.855 3853.95 567.938 3853.95 751.021 3705.76 899.438 3522.95 899.438 3340.15 899.438 3191.95 751.021 3191.95 567.938Z" stroke="#FFFFFF" stroke-width="23.1263" stroke-miterlimit="8" fill="#FFFFFF" fill-rule="evenodd"/><g clip-path="url(#clip0)"><g clip-path="url(#clip1)"><g clip-path="url(#clip2)"><path d="M318.659 215.598C325.256 202.216 332.075 188.381 330.821 172.337 329.97 162.129 326.474 152.318 320.681 143.87 302.127 115.885 270.499 99.3912 236.931 100.193 224.298 100.189 212.261 105.566 203.833 114.977 194.799 125.412 190.58 139.171 192.211 152.877 192.58 156.262 193.282 159.603 194.308 162.85 197.297 171.793 200.746 180.574 204.642 189.161 207.926 196.733 211.318 204.561 213.926 212.391 219.695 228.627 220.514 246.21 216.281 262.913 214.614 267.622 212.095 271.985 208.849 275.784 207.239 277.946 205.574 280.177 204.053 282.594 195.739 295.797 193.49 307.898 196.758 321.838 201.269 341.062 221.148 356 242.13 356 242.26 356 242.393 355.997 242.521 355.997 259.591 355.844 273.055 350.365 282.536 339.707 299.234 320.939 297.435 292.69 297.06 288.488 298.175 269.292 304.841 249.587 311.01 232.607 313.249 226.802 315.802 221.125 318.659 215.598ZM300.553 228.809C294.067 246.662 287.053 267.454 285.929 288.299L285.904 288.746 285.954 289.197C285.982 289.464 288.674 316.069 274.225 332.312 266.919 340.525 256.218 344.75 242.423 344.872 242.325 344.872 242.233 344.875 242.135 344.875 226.368 344.872 210.911 333.452 207.589 319.296 205.02 308.346 206.78 299.143 213.467 288.521 214.754 286.477 216.218 284.511 217.769 282.43 221.884 277.552 225.021 271.927 227.009 265.862 231.829 247.036 230.949 227.202 224.481 208.876 221.721 200.584 218.228 192.526 214.849 184.736 211.111 176.499 207.796 168.076 204.917 159.501 204.112 156.952 203.561 154.33 203.271 151.673L203.271 151.671C201.979 141.085 205.205 130.445 212.158 122.359 218.516 115.223 227.655 111.195 237.211 111.315L237.531 111.302C237.765 111.286 238.645 111.234 240.063 111.234 268.824 111.527 295.566 126.075 311.436 150.063 316.161 156.926 319.02 164.901 319.727 173.204 320.745 186.203 314.885 198.091 308.682 210.68 305.645 216.571 302.931 222.623 300.553 228.809Z" stroke="#F15A45" stroke-width="2.78125" fill="#F15A45" transform="matrix(1 0 0 1 3345 389)"/><path d="M199.686 90.1817C202.518 92.6072 206.107 93.9692 209.835 94.0332 210.337 94.0326 210.838 94.0062 211.337 93.9542 222.096 92.8272 229.304 79.8877 227.753 64.4958 227.218 56.1998 223.511 48.4274 217.402 42.7892 214.187 40.0091 209.985 38.6474 205.75 39.0137 194.992 40.1409 187.781 53.0776 189.332 68.4721 189.87 76.7688 193.577 84.5413 199.686 90.1817ZM206.905 50.0789C207.014 50.068 207.122 50.0627 207.231 50.0627 208.404 50.1387 209.516 50.6165 210.379 51.4153 214.199 55.1819 216.451 60.2552 216.683 65.6149 217.617 74.8631 213.953 82.4952 210.183 82.889 208.893 82.926 207.642 82.4448 206.709 81.5526 202.89 77.7857 200.636 72.7129 200.403 67.3532 199.468 58.105 203.132 50.473 206.905 50.0792Z" stroke="#F15A45" stroke-width="2.78125" fill="#F15A45" transform="matrix(1 0 0 1 3345 389)"/><path d="M246.641 90.054C247.855 90.378 249.106 90.5421 250.362 90.543 253.285 90.5077 256.143 89.6747 258.627 88.1339 264.845 83.9297 269.163 77.4528 270.654 70.0964 273.899 56.3639 268.603 43.5143 258.6 40.8418 254.509 39.8024 250.171 40.4983 246.611 42.7647 240.395 46.9692 236.078 53.4464 234.59 60.802 231.344 74.5344 236.637 87.384 246.641 90.054ZM245.416 63.3604C246.208 58.9249 248.683 54.9666 252.323 52.3117 253.092 51.8074 253.984 51.521 254.903 51.4831 255.183 51.482 255.462 51.5185 255.732 51.5919 259.221 52.5236 261.715 59.5418 259.827 67.5379 259.033 71.9729 256.558 75.93 252.918 78.5842 251.93 79.285 250.696 79.5456 249.509 79.3039 246.019 78.3722 243.526 71.3565 245.416 63.3604Z" stroke="#F15A45" stroke-width="2.78125" fill="#F15A45" transform="matrix(1 0 0 1 3345 389)"/><path d="M286.986 98.3978C287.133 98.4033 287.283 98.4058 287.436 98.4058 295.825 98.4058 303.732 90.4996 305.567 80.1784L305.567 80.1756C306.774 74.6334 305.531 68.8406 302.158 64.2813 299.774 61.2564 296.178 59.435 292.331 59.3029 292.181 59.2973 292.031 59.2948 291.881 59.2948 283.49 59.2948 275.578 67.2011 273.747 77.5223 272.54 83.0639 273.782 88.8573 277.156 93.4166 279.538 96.4434 283.134 98.2657 286.986 98.3978ZM284.7 79.4694C285.615 74.3252 289.278 70.4195 291.87 70.4195 291.895 70.4195 291.925 70.4195 291.956 70.4223 292.582 70.4446 293.16 70.763 293.511 71.2806 294.821 73.3457 295.221 75.8588 294.618 78.2282 293.703 83.3751 290.037 87.2809 287.448 87.2809 287.42 87.2809 287.389 87.2809 287.361 87.2781 286.733 87.2564 286.154 86.9365 285.804 86.417 284.491 84.3533 284.091 81.8388 284.7 79.4694Z" stroke="#F15A45" stroke-width="2.78125" fill="#F15A45" transform="matrix(1 0 0 1 3345 389)"/><path d="M303.701 107.518C305.022 110.932 307.815 113.566 311.3 114.686 312.64 115.118 314.039 115.335 315.446 115.33 322.811 114.891 329.392 110.583 332.74 104.009L332.743 104.006C335.36 99.5873 335.889 94.2384 334.192 89.3913 332.868 85.9773 330.076 83.3429 326.591 82.2209 319.12 79.7846 309.709 84.4751 305.147 92.9004 302.53 97.32 301.999 102.671 303.701 107.518ZM314.935 98.1942C316.339 95.2408 319.12 93.1771 322.355 92.6859 322.619 92.6809 322.881 92.7185 323.134 92.7972 323.481 92.8954 323.757 93.1663 323.86 93.5142 324.285 95.2981 323.96 97.1793 322.956 98.7154 320.689 102.904 316.584 104.721 314.754 104.11 314.406 104.011 314.134 103.742 314.031 103.395 313.605 101.611 313.931 99.73 314.935 98.1939Z" stroke="#F15A45" stroke-width="2.78125" fill="#F15A45" transform="matrix(1 0 0 1 3345 389)"/><path d="M330.129 113.632C323.584 121.003 322.906 130.841 328.585 136.034 330.816 138.029 333.719 139.11 336.712 139.063 336.951 139.063 337.19 139.055 337.429 139.044 342.561 138.572 347.297 136.088 350.604 132.137 357.148 124.765 357.827 114.928 352.148 109.735 349.722 107.586 346.535 106.502 343.303 106.725 338.172 107.197 333.435 109.68 330.129 113.632ZM338.447 121.02C339.796 119.317 341.735 118.181 343.882 117.837 343.932 117.834 343.985 117.831 344.032 117.831 344.243 117.812 344.455 117.852 344.641 117.948 345.147 118.41 345.12 121.558 342.288 124.749 340.937 126.452 338.998 127.588 336.851 127.932 336.592 127.967 336.331 127.928 336.092 127.821 335.585 127.359 335.613 124.209 338.447 121.02Z" stroke="#F15A45" stroke-width="2.78125" fill="#F15A45" transform="matrix(1 0 0 1 3345 389)"/><path d="M119.07 61.2556C85.5025 60.4549 53.8761 76.9485 35.3202 104.933 29.5271 113.38 26.0327 123.19 25.1813 133.397 23.9264 149.443 30.7464 163.279 37.341 176.661 40.1985 182.187 42.7525 187.865 44.9923 193.669 51.1605 210.65 57.8258 230.355 58.9419 249.549 58.5672 253.754 56.7664 282.002 73.4647 300.77 82.9465 311.427 96.41 316.907 113.48 317.06 113.611 317.06 113.741 317.062 113.872 317.062 134.85 317.062 154.732 302.121 159.243 282.9 162.511 268.961 160.262 256.858 151.948 243.653 150.427 241.241 148.762 239.008 147.152 236.846 143.907 233.048 141.388 228.685 139.72 223.975 135.487 207.273 136.306 189.69 142.075 173.454 144.683 165.623 148.075 157.796 151.359 150.223 155.255 141.638 158.704 132.857 161.693 123.915 162.719 120.667 163.421 117.326 163.79 113.939 165.421 100.233 161.202 86.4746 152.168 76.039 143.74 66.6281 131.703 61.2514 119.07 61.2556ZM152.73 112.733 152.73 112.736C152.44 115.394 151.889 118.017 151.084 120.566 148.205 129.141 144.89 137.562 141.152 145.799 137.773 153.588 134.28 161.647 131.52 169.939 125.052 188.264 124.172 208.098 128.992 226.925 130.98 232.989 134.117 238.614 138.232 243.493 139.783 245.573 141.247 247.539 142.534 249.582 149.221 260.204 150.981 269.409 148.412 280.358 145.09 294.517 129.633 305.937 113.866 305.937 113.771 305.937 113.673 305.935 113.578 305.935 99.8051 305.812 89.1173 301.601 81.814 293.416 67.3971 277.261 70.0207 250.519 70.048 250.258L70.0969 249.81 70.0724 249.362C68.948 228.516 61.9351 207.725 55.4492 189.872 53.0701 183.686 50.3564 177.634 47.3199 171.742 41.1163 159.153 35.2551 147.265 36.2736 134.263 36.9825 125.962 39.8403 117.987 44.5659 111.125 60.4346 87.1379 87.1735 72.5903 115.933 72.2963 117.348 72.2963 118.228 72.3481 118.456 72.3642L118.79 72.3778C128.347 72.2574 137.486 76.286 143.843 83.4213 150.796 91.5072 154.022 102.147 152.73 112.733Z" stroke="#F15A45" stroke-width="2.78125" fill="#F15A45" transform="matrix(1 0 0 1 3345 389)"/><path d="M150.248 0.0762896C146.014-0.289967 141.812 1.07173 138.598 3.85161 132.489 9.49001 128.783 17.2623 128.248 25.5584 126.697 40.9503 133.905 53.8897 144.666 55.0167 145.164 55.0687 145.665 55.0951 146.165 55.0957 149.894 55.0317 153.483 53.6697 156.316 51.2442 162.424 45.6038 166.131 37.8314 166.669 29.5346 168.22 14.1401 161.009 1.20347 150.248 0.0762896ZM155.598 28.4157C155.365 33.7755 153.112 38.8482 149.292 42.6154 148.361 43.5087 147.11 43.9902 145.821 43.9515 142.048 43.5577 138.384 35.9257 139.319 26.6774 139.551 21.3178 141.803 16.2446 145.623 12.4778 146.485 11.6795 147.595 11.2019 148.768 11.1252 148.877 11.1252 148.985 11.1306 149.094 11.1415 152.869 11.5354 156.533 19.1675 155.598 28.4157Z" stroke="#F15A45" stroke-width="2.78125" fill="#F15A45" transform="matrix(1 0 0 1 3345 389)"/><path d="M97.3743 49.1964C99.8585 50.7372 102.716 51.5702 105.639 51.6055 106.896 51.6047 108.146 51.4406 109.36 51.1166 119.364 48.4466 124.657 35.5969 121.411 21.8646 119.923 14.5089 115.606 8.03169 109.39 3.82719 105.828 1.56448 101.492 0.868912 97.4013 1.90421 87.3982 4.57682 82.1016 17.4265 85.3473 31.1589 86.8375 38.5153 91.1562 44.9923 97.3743 49.1964ZM100.27 12.6544C101.456 12.4114 102.691 12.6721 103.678 13.3741 107.319 16.0291 109.793 19.9875 110.585 24.4231 112.476 32.4191 109.982 39.4348 106.492 40.3665 105.305 40.6104 104.07 40.3495 103.083 39.6467 99.443 36.9925 96.9677 33.0351 96.1739 28.6004 94.286 20.6043 96.7794 13.586 100.27 12.6544Z" stroke="#F15A45" stroke-width="2.78125" fill="#F15A45" transform="matrix(1 0 0 1 3345 389)"/><path d="M50.4324 41.2409C52.2686 51.5621 60.1776 59.4684 68.5647 59.4684 68.7169 59.4684 68.8662 59.4656 69.0156 59.4603 72.8656 59.3282 76.4618 57.5059 78.845 54.4791 82.2184 49.9206 83.4608 44.1284 82.2537 38.5873 80.3906 28.0817 72.2749 20.091 63.6706 20.3653 59.8219 20.4976 56.2268 22.3188 53.8438 25.3438 50.4702 29.9031 49.227 35.6959 50.4324 41.2381ZM62.4891 32.3431C62.8417 31.8255 63.4197 31.5068 64.0455 31.4848 64.0752 31.4821 64.1025 31.4821 64.1322 31.4821 66.7235 31.4821 70.3873 35.3878 71.3026 40.5347 71.9092 42.903 71.5089 45.4167 70.1973 47.4798 69.846 47.9991 69.2675 48.3192 68.6409 48.3406 65.9901 48.5336 62.3097 44.4975 61.3838 39.2907 60.7803 36.9213 61.1799 34.4082 62.4891 32.3431Z" stroke="#F15A45" stroke-width="2.78125" fill="#F15A45" transform="matrix(1 0 0 1 3345 389)"/><path d="M23.261 65.0718C26.6092 71.6455 33.1897 75.9534 40.5542 76.3923 41.9618 76.3975 43.3616 76.1803 44.7016 75.7484 48.1865 74.6284 50.9792 71.9943 52.3011 68.5808 54.0018 63.7323 53.4709 58.3801 50.8507 53.9601 46.2933 45.5349 36.8657 40.8499 29.4072 43.2835 25.9232 44.4062 23.1312 47.0406 21.8078 50.4538 20.1112 55.3009 20.6421 60.6498 23.2582 65.069ZM32.1426 54.5767C32.2444 54.2296 32.5172 53.959 32.8649 53.8597 34.6902 53.2487 38.7995 55.0657 41.0648 59.2539 42.0697 60.79 42.3968 62.6726 41.9693 64.4579 41.8672 64.8042 41.5944 65.074 41.2467 65.1721 39.4106 65.786 35.3121 63.9662 33.0443 59.7779 32.0414 58.2421 31.7151 56.3609 32.1426 54.5767Z" stroke="#F15A45" stroke-width="2.78125" fill="#F15A45" transform="matrix(1 0 0 1 3345 389)"/><path d="M18.5704 100.106C18.8121 100.117 19.0511 100.125 19.2902 100.125 22.2832 100.172 25.1842 99.0909 27.4166 97.0967 33.096 91.9036 32.4168 82.066 25.8712 74.6946 22.5648 70.7427 17.8292 68.2599 12.6983 67.7876 9.46642 67.5724 6.28226 68.6557 3.85208 70.7969-1.82722 75.9901-1.14818 85.8276 5.39751 93.1991 8.70383 97.1509 13.4395 99.634 18.5704 100.106ZM11.3593 79.0105C11.598 78.9051 11.8609 78.8667 12.1198 78.899 14.2657 79.2433 16.2048 80.3789 17.5546 82.0824 20.3874 85.2711 20.4146 88.4217 19.9094 88.8834 19.6717 88.9921 19.4079 89.0308 19.1489 88.9947 17.003 88.6506 15.0639 87.5147 13.7141 85.8115 10.8812 82.62 10.854 79.4722 11.3592 79.0105Z" stroke="#F15A45" stroke-width="2.78125" fill="#F15A45" transform="matrix(1 0 0 1 3345 389)"/><path d="M53.3794 323.721C53.0782 323.498 25.7852 302.719 21.79 260.695 23.3964 263.312 26.82 264.131 29.4367 262.525 32.0333 260.931 32.8632 257.544 31.2979 254.93L20.1757 236.333C19.1489 234.58 17.2371 233.539 15.2079 233.628 13.1838 233.699 11.3582 234.864 10.4412 236.67L0.603531 256.043C-0.78701 258.783 0.306196 262.13 3.04527 263.521 5.78436 264.911 9.13206 263.818 10.5226 261.079L10.6277 260.872C14.7008 308.282 45.3396 331.611 46.7467 332.657 49.2142 334.487 52.6994 333.972 54.5308 331.503 56.3625 329.036 55.8469 325.551 53.3794 323.721Z" stroke="#F15A45" stroke-width="2.78125" fill="#F15A45" transform="matrix(1 0 0 1 3345 389)"/><path d="M354.526 268.472 339.426 252.102C337.343 249.845 333.825 249.704 331.566 251.788 330.863 252.438 330.337 253.261 330.042 254.175L323.401 274.877C322.461 277.802 324.071 280.934 326.997 281.874 329.92 282.811 333.054 281.204 333.992 278.278L334.426 276.927C341.857 318.917 319.457 345.592 318.422 346.797 316.414 349.122 316.676 352.634 319.004 354.643 321.318 356.637 324.808 356.389 326.822 354.092 328.007 352.726 353.791 322.366 345.375 274.959L346.352 276.017C348.426 278.283 351.945 278.436 354.209 276.36 356.475 274.284 356.628 270.766 354.551 268.501 354.542 268.491 354.534 268.482 354.526 268.472Z" stroke="#F15A45" stroke-width="2.78125" fill="#F15A45" transform="matrix(1 0 0 1 3345 389)"/></g></g></g></g></svg>