<svg width="723" height="722" xmlns="http://www.w3.org/2000/svg" xmlns:xlink="http://www.w3.org/1999/xlink" xml:space="preserve" overflow="hidden"><g transform="translate(-353 -250)"><path d="M389.965 611.439C389.965 431.946 535.248 286.439 714.465 286.439 893.682 286.439 1038.97 431.946 1038.97 611.439 1038.97 790.932 893.682 936.439 714.465 936.439 535.248 936.439 389.965 790.932 389.965 611.439Z" stroke="#FFFFFF" stroke-width="23.1263" stroke-miterlimit="8" fill="#FFFFFF" fill-rule="evenodd"/><g><g><g><path d="M301.948 389C301.948 389 301.948 389 301.72 389L144.479 379.429C141.744 379.429 139.694 376.922 140.149 374.415 150.632 293.972 71.5559 338.409 52.1857 308.328 47.1722 300.58 47.4001 289.414 52.8693 273.462 39.8799 264.575 41.703 253.408 52.1857 244.976L40.1078 237C37.1453 235.177 37.3731 231.075 40.1078 229.48 57.427 218.77 57.8828 214.212 57.6549 213.528 57.427 211.022 49.6789 207.831 44.8934 205.78 35.778 202.134 24.6116 197.348 26.6625 187.322 26.8904 186.41 27.1183 185.726 27.802 185.043L71.1001 137.643C62.6684 95.2559 76.7973 57.8828 110.524 31.9039 158.836-4.78559 237.456-10.7106 293.516 18.4587 339.777 42.3866 364.16 85.6848 362.337 140.605 362.793 145.846 365.528 198.716 296.706 281.666 295.339 287.591 288.275 323.825 306.505 383.075 307.189 386.037 305.138 389 301.948 389ZM149.72 370.769 295.795 379.429C278.02 316.988 287.135 279.159 289.186 276.652 358.007 193.93 353.45 141.744 353.45 141.061 353.222 140.833 353.222 140.605 353.222 140.377 355.045 89.1031 332.484 48.7674 289.414 26.4347 236.089-0.91154 161.798 4.5577 116.221 39.1962 93.8886 56.2876 69.5049 87.28 80.4434 138.098 80.8992 139.694 80.4434 141.061 79.304 142.2L35.778 190.056C38.0568 196.437 65.6309 198.944 66.7703 212.617 67.454 218.77 62.6684 225.15 51.0462 233.126L63.1242 241.102C66.0867 243.153 65.6309 247.483 62.6684 249.078 59.478 250.674 53.0972 255.459 52.8693 259.333 52.8693 265.942 65.403 266.398 62.8963 273.234 49.6789 308.101 62.6684 310.379 91.3819 311.975 109.157 313.114 129.211 314.481 140.833 328.61 148.581 338.181 151.544 351.854 149.72 370.769Z" stroke="#F15A45" stroke-width="0.228054" fill="#F15A45" fill-rule="evenodd" transform="matrix(1 0 0 1.00257 520 416)"/><path d="M197.348 207.831C194.842 207.831 192.791 205.78 192.791 203.273L192.791 151.544 172.737 151.544C169.546 151.544 167.268 148.353 168.407 145.391L191.423 80.8992C192.107 79.0761 193.702 77.7088 195.753 77.7088L245.432 77.0251C248.623 77.0251 250.901 80.4434 249.534 83.4059L235.177 116.677 251.357 116.677C255.003 116.677 257.282 120.779 255.231 123.742L201.222 205.78C200.311 206.92 198.944 207.831 197.348 207.831ZM179.118 142.428 197.348 142.428C199.855 142.428 201.906 144.479 201.906 146.986L201.906 188.005 242.925 125.793 228.113 125.793C224.923 125.793 222.644 122.602 224.011 119.64L238.368 86.3684 198.944 86.8242Z" stroke="#F15A45" stroke-width="0.228054" fill="#F15A45" fill-rule="evenodd" transform="matrix(1 0 0 1.00257 520 416)"/><path d="M212.161 240.419C157.924 240.419 113.943 196.437 113.943 142.428 113.943 88.4194 157.924 44.4376 212.161 44.4376 266.17 44.4376 310.152 88.4194 310.152 142.428 310.152 196.437 266.17 240.419 212.161 240.419ZM212.161 53.553C162.938 53.553 123.058 93.4329 123.058 142.428 123.058 191.423 162.938 231.303 212.161 231.303 261.156 231.303 301.036 191.423 301.036 142.428 301.036 93.4329 261.156 53.553 212.161 53.553Z" stroke="#F15A45" stroke-width="0.228054" fill="#F15A45" fill-rule="evenodd" transform="matrix(1 0 0 1.00257 520 416)"/></g></g></g><path d="M356.91 611.433C356.91 414.267 516.969 254.433 714.411 254.433 911.853 254.433 1071.91 414.267 1071.91 611.433 1071.91 808.599 911.853 968.433 714.411 968.433 516.969 968.433 356.91 808.599 356.91 611.433Z" stroke="#F15A45" stroke-width="6.875" stroke-miterlimit="8" fill="none" fill-rule="evenodd"/></g></svg>