<svg width="723" height="722" xmlns="http://www.w3.org/2000/svg" xmlns:xlink="http://www.w3.org/1999/xlink" xml:space="preserve" overflow="hidden"><g transform="translate(-272 -218)"><path d="M308.965 579.439C308.965 399.946 454.248 254.439 633.465 254.439 812.682 254.439 957.965 399.946 957.965 579.439 957.965 758.932 812.682 904.439 633.465 904.439 454.248 904.439 308.965 758.932 308.965 579.439Z" stroke="#92D050" stroke-width="23.1263" stroke-miterlimit="8" fill="#92D050" fill-rule="evenodd"/><g><g><g><path d="M301.948 389C301.948 389 301.948 389 301.72 389L144.479 379.429C141.745 379.429 139.694 376.922 140.149 374.415 150.632 293.972 71.556 338.41 52.1857 308.329 47.1722 300.581 47.4001 289.414 52.8694 273.462 39.8799 264.575 41.703 253.408 52.1857 244.977L40.1078 237.001C37.1453 235.178 37.3732 231.076 40.1078 229.48 57.4271 218.77 57.8829 214.212 57.655 213.528 57.4271 211.022 49.679 207.831 44.8934 205.78 35.778 202.134 24.6116 197.349 26.6626 187.322 26.8905 186.41 27.1183 185.726 27.802 185.043L71.1002 137.643C62.6684 95.256 76.7973 57.8829 110.524 31.9039 158.836-4.78559 237.456-10.7106 293.516 18.4587 339.777 42.3867 364.161 85.6849 362.338 140.605 362.793 145.847 365.528 198.716 296.707 281.666 295.339 287.591 288.275 323.825 306.506 383.075 307.189 386.038 305.138 389 301.948 389ZM149.721 370.769 295.795 379.429C278.02 316.988 287.135 279.159 289.186 276.653 358.008 193.93 353.45 141.745 353.45 141.061 353.222 140.833 353.222 140.605 353.222 140.377 355.045 89.1031 332.485 48.7674 289.414 26.4347 236.089-0.911541 161.799 4.55771 116.221 39.1963 93.8887 56.2877 69.505 87.2801 80.4435 138.098 80.8993 139.694 80.4435 141.061 79.3041 142.2L35.778 190.056C38.0568 196.437 65.631 198.944 66.7704 212.617 67.454 218.77 62.6684 225.151 51.0463 233.127L63.1242 241.103C66.0867 243.154 65.631 247.483 62.6684 249.079 59.4781 250.674 53.0973 255.459 52.8694 259.333 52.8694 265.942 65.4031 266.398 62.8963 273.234 49.679 308.101 62.6684 310.38 91.382 311.975 109.157 313.114 129.211 314.482 140.833 328.611 148.581 338.182 151.544 351.855 149.721 370.769Z" fill="#FFFFFF" fill-rule="evenodd" transform="matrix(1 0 0 1.00257 439 384)"/><path d="M197.349 207.831C194.842 207.831 192.791 205.78 192.791 203.274L192.791 151.544 172.737 151.544C169.547 151.544 167.268 148.353 168.407 145.391L191.424 80.8993C192.107 79.0762 193.702 77.7089 195.753 77.7089L245.432 77.0252C248.623 77.0252 250.902 80.4435 249.534 83.406L235.178 116.677 251.357 116.677C255.004 116.677 257.282 120.779 255.231 123.742L201.223 205.78C200.311 206.92 198.944 207.831 197.349 207.831ZM179.118 142.428 197.349 142.428C199.855 142.428 201.906 144.479 201.906 146.986L201.906 188.005 242.926 125.793 228.113 125.793C224.923 125.793 222.644 122.602 224.011 119.64L238.368 86.3685 198.944 86.8243Z" fill="#FFFFFF" fill-rule="evenodd" transform="matrix(1 0 0 1.00257 439 384)"/><path d="M212.161 240.419C157.924 240.419 113.943 196.437 113.943 142.428 113.943 88.4195 157.924 44.4376 212.161 44.4376 266.17 44.4376 310.152 88.4195 310.152 142.428 310.152 196.437 266.17 240.419 212.161 240.419ZM212.161 53.553C162.938 53.553 123.058 93.433 123.058 142.428 123.058 191.424 162.938 231.304 212.161 231.304 261.156 231.304 301.036 191.424 301.036 142.428 301.036 93.433 261.156 53.553 212.161 53.553Z" fill="#FFFFFF" fill-rule="evenodd" transform="matrix(1 0 0 1.00257 439 384)"/></g></g></g><path d="M275.91 579.433C275.91 382.267 435.968 222.433 633.411 222.433 830.853 222.433 990.911 382.267 990.911 579.433 990.911 776.599 830.853 936.433 633.411 936.433 435.968 936.433 275.91 776.599 275.91 579.433Z" stroke="#92D050" stroke-width="6.875" stroke-miterlimit="8" fill="none" fill-rule="evenodd"/></g></svg>