<svg width="688" height="689" xmlns="http://www.w3.org/2000/svg" xmlns:xlink="http://www.w3.org/1999/xlink" xml:space="preserve" overflow="hidden"><g transform="translate(-1783 -446)"><g><g><g><path d="M2451.76 790.878C2451.76 970.304 2306.3 1115.76 2126.88 1115.76 1947.45 1115.76 1802 970.304 1802 790.878 1802 611.453 1947.45 466 2126.88 466 2306.3 466 2451.76 611.453 2451.76 790.878Z" fill="#F05845" fill-rule="evenodd"/><path d="M2149.54 998.771 2007.46 998.771C2003.56 998.771 2000.14 995.603 2000.14 991.459 2000.14 852.296 1952.37 810.863 1952.37 741.403 1952.37 654.152 2020.37 583.229 2104.21 583.229 2142.48 583.229 2179.03 597.852 2207.31 624.905 2235.33 651.471 2252.64 687.785 2256.05 727.024 2256.54 742.378 2312.59 790.147 2299.43 815.738 2294.07 826.461 2280.18 828.899 2268.24 829.142L2268.24 905.426C2268.24 923.462 2253.61 938.085 2235.58 938.085L2179.52 938.085C2166.85 938.085 2156.86 948.321 2156.86 961.482L2156.86 991.459C2156.86 995.603 2153.69 998.771 2149.54 998.771ZM2113.72 857.17C2062.78 857.17 2018.18 822.806 2004.29 772.599 1988.2 713.132 2017.94 643.184 2080.08 624.662 2132.97 608.82 2187.32 638.066 2201.7 691.684 2217.54 750.908 2178.55 818.175 2115.67 818.175 2054.25 818.175 2016.72 750.665 2049.86 693.147 2080.08 640.991 2152.96 650.983 2165.87 706.064 2177.08 753.589 2135.16 795.753 2096.41 773.818 2062.78 754.808 2079.11 711.669 2081.55 711.669 2093.73 690.953 2123.47 694.122 2129.07 716.056 2132.48 728.974 2125.17 745.303 2115.67 739.453 2112.25 737.26 2111.28 732.873 2113.47 729.461 2121.76 715.813 2102.75 704.602 2094.22 718.981 2089.83 727.024 2088.61 736.529 2091.05 744.815 2097.88 768.943 2131.51 772.599 2145.89 748.227 2160.27 723.124 2153.2 692.903 2129.8 679.498 2119.57 673.405 2107.38 671.943 2095.19 675.112 2081.79 678.524 2069.85 687.785 2062.78 700.458 2043.53 733.117 2051.08 776.011 2084.23 795.021 2115.91 813.544 2157.59 800.871 2177.57 766.994 2201.94 725.318 2192.19 669.75 2149.54 645.378 2109.09 622.224 2055.71 638.554 2030.37 681.692 2015.01 708.257 2010.87 740.185 2018.67 768.7 2025.73 794.778 2042.31 816.225 2064.97 829.142L2064.97 829.386C2115.91 859.12 2179.52 836.21 2209.26 784.785 2214.13 776.499 2226.8 783.81 2221.93 792.097 2199.02 831.823 2158.32 857.17 2113.72 857.17ZM2253.37 907.864 2208.77 907.864C2194.88 907.864 2182.93 895.921 2182.93 881.786 2182.93 867.894 2194.63 856.683 2208.77 856.683L2253.61 856.683 2253.61 821.831C2253.61 817.687 2256.78 814.275 2260.92 814.519 2281.64 815.25 2285.78 810.62 2286.51 809.157 2293.34 795.265 2242.89 748.715 2241.43 728.242 2235.09 655.126 2174.89 597.852 2104.21 597.852 2028.42 597.852 1967 662.194 1967 741.403 1967 805.014 2013.3 849.127 2014.77 984.148L2142.23 984.148 2142.23 961.482C2142.23 940.035 2158.81 923.218 2179.52 923.218L2235.58 923.218C2244.59 923.218 2252.15 916.638 2253.37 907.864ZM2208.77 871.306C2193.17 871.306 2194.63 893.24 2208.77 893.24L2253.61 893.24 2253.61 871.306Z" fill="#FFFFFF" fill-rule="evenodd"/></g></g></g><path d="M3702.5 790.099C3702.5 602.566 3854.74 450.541 4042.55 450.541 4230.35 450.541 4382.6 602.566 4382.6 790.099 4382.6 977.633 4230.35 1129.66 4042.55 1129.66 3854.74 1129.66 3702.5 977.633 3702.5 790.099Z" stroke="#F15A45" stroke-width="6.78623" stroke-miterlimit="8" fill="none" fill-rule="evenodd" transform="matrix(1 0 0 1.00289 -1915.62 -1.45434)"/></g></svg>