<svg width="688" height="689" xmlns="http://www.w3.org/2000/svg" xmlns:xlink="http://www.w3.org/1999/xlink" xml:space="preserve" overflow="hidden"><g transform="translate(-1232 -857)"><g><g><g><path d="M1901 1202C1901 1381.49 1755.49 1527 1576 1527 1396.51 1527 1251 1381.49 1251 1202 1251 1022.51 1396.51 877 1576 877 1755.49 877 1901 1022.51 1901 1202Z" fill="#F05845" fill-rule="evenodd"/><path d="M1633.38 1019.7C1564.57 1019.7 1508.59 1075.68 1508.59 1144.49 1508.59 1213.3 1564.57 1269.29 1633.38 1269.29 1702.19 1269.29 1758.18 1213.3 1758.18 1144.49 1758.18 1075.68 1702.32 1019.7 1633.38 1019.7ZM1633.38 1277.66C1560 1277.66 1500.21 1218 1500.21 1144.49 1500.21 1070.98 1560 1011.44 1633.38 1011.44 1706.76 1011.44 1766.56 1071.11 1766.56 1144.62 1766.56 1218.12 1706.76 1277.66 1633.38 1277.66Z" fill="#FFFFFE" fill-rule="evenodd"/><path d="M1634.27 1063.37C1631.99 1063.37 1630.08 1061.59 1630.08 1059.18L1630.08 1042.29C1630.08 1040.01 1631.86 1038.1 1634.27 1038.1 1636.68 1038.1 1638.46 1040.01 1638.46 1042.29L1638.46 1059.18C1638.33 1061.34 1636.43 1063.37 1634.27 1063.37Z" fill="#FFFFFE" fill-rule="evenodd"/><path d="M1676.93 1075.17C1676.29 1075.17 1675.53 1075.05 1674.9 1074.67 1672.87 1073.52 1672.23 1070.98 1673.37 1068.95L1681.88 1054.35C1683.02 1052.32 1685.56 1051.69 1687.59 1052.83 1689.62 1053.97 1690.26 1056.51 1689.12 1058.54L1680.74 1073.14C1679.59 1074.29 1678.2 1075.17 1676.93 1075.17Z" fill="#FFFFFE" fill-rule="evenodd"/><path d="M1707.78 1106.66C1706.25 1106.66 1704.86 1105.9 1704.1 1104.63 1702.95 1102.6 1703.71 1100.18 1705.62 1098.91L1720.22 1090.41C1722.25 1089.27 1724.66 1090.03 1725.93 1091.93 1727.07 1093.96 1726.31 1096.37 1724.41 1097.64L1709.81 1106.02C1709.3 1106.66 1708.67 1106.66 1707.78 1106.66Z" fill="#FFFFFE" fill-rule="evenodd"/><path d="M1735.83 1149.44 1718.95 1149.44C1716.66 1149.44 1714.76 1147.54 1714.76 1145.25 1714.76 1142.97 1716.54 1141.06 1718.95 1141.06L1735.83 1141.06C1738.12 1141.06 1740.02 1142.97 1740.02 1145.25 1740.02 1147.54 1737.99 1149.44 1735.83 1149.44Z" fill="#FFFFFE" fill-rule="evenodd"/><path d="M1721.74 1200.6C1721.11 1200.6 1720.35 1200.48 1719.71 1200.1L1705.11 1191.59C1703.08 1190.45 1702.45 1187.91 1703.59 1186 1704.73 1183.97 1707.27 1183.34 1709.17 1184.48L1723.77 1192.86C1725.8 1194 1726.44 1196.54 1725.3 1198.57 1724.54 1199.97 1723.14 1200.6 1721.74 1200.6Z" fill="#FFFFFE" fill-rule="evenodd"/><path d="M1683.91 1237.8C1682.39 1237.8 1680.99 1237.04 1680.23 1235.77L1671.85 1221.17C1670.71 1219.14 1671.47 1216.73 1673.37 1215.46 1675.4 1214.31 1677.82 1215.08 1679.09 1216.98L1687.59 1231.58C1688.73 1233.61 1687.97 1236.02 1686.07 1237.29 1685.31 1237.55 1684.54 1237.8 1683.91 1237.8Z" fill="#FFFFFE" fill-rule="evenodd"/><path d="M1632.62 1251C1630.34 1251 1628.43 1249.23 1628.43 1246.81L1628.43 1229.93C1628.43 1227.64 1630.34 1225.74 1632.62 1225.74 1634.91 1225.74 1636.81 1227.64 1636.81 1229.93L1636.81 1246.81C1636.81 1249.23 1635.03 1251.26 1632.62 1251Z" fill="#FFFFFE" fill-rule="evenodd"/><path d="M1581.71 1237.04C1581.08 1237.04 1580.32 1236.91 1579.68 1236.53 1577.65 1235.39 1577.02 1232.85 1578.16 1230.82L1586.66 1216.22C1587.81 1214.19 1590.35 1213.55 1592.25 1214.7 1594.28 1215.84 1594.92 1218.38 1593.77 1220.41L1585.39 1235.01C1584.25 1236.28 1582.98 1237.04 1581.71 1237.04Z" fill="#FFFFFE" fill-rule="evenodd"/><path d="M1559.62 1105.39C1558.99 1105.39 1558.23 1105.26 1557.59 1104.88L1542.99 1096.37C1540.96 1095.23 1540.33 1092.69 1541.47 1090.66 1542.61 1088.63 1545.15 1088 1547.18 1089.14L1561.78 1097.64C1563.81 1098.79 1564.45 1101.33 1563.3 1103.36 1562.54 1104.75 1561.27 1105.39 1559.62 1105.39Z" fill="#FFFFFE" fill-rule="evenodd"/><path d="M1591.23 1074.29C1589.71 1074.29 1588.31 1073.52 1587.55 1072.25L1579.05 1057.65C1577.9 1055.62 1578.67 1053.21 1580.57 1051.94 1582.6 1050.8 1585.01 1051.56 1586.28 1053.46L1594.79 1068.06C1595.93 1070.1 1595.17 1072.51 1593.27 1073.78 1592.76 1074.29 1592 1074.29 1591.23 1074.29Z" fill="#FFFFFE" fill-rule="evenodd"/><path d="M1633.38 1148.81C1631.1 1148.81 1629.19 1147.03 1629.19 1144.62L1629.19 1081.52C1629.19 1079.24 1630.97 1077.33 1633.38 1077.33 1635.67 1077.33 1637.57 1079.24 1637.57 1081.52L1637.57 1144.62C1637.57 1146.9 1635.67 1148.81 1633.38 1148.81Z" fill="#FFFFFE" fill-rule="evenodd"/><path d="M1646.46 1097.77C1645.44 1097.77 1644.43 1097.39 1643.54 1096.63L1633.38 1087.11 1623.23 1096.63C1621.58 1098.15 1618.91 1098.15 1617.39 1096.5 1615.86 1094.85 1615.86 1092.19 1617.51 1090.66L1630.46 1078.47C1631.99 1076.95 1634.53 1076.95 1636.18 1078.47L1649.12 1090.66C1650.78 1092.19 1650.9 1094.85 1649.25 1096.5 1648.49 1097.39 1647.6 1097.77 1646.46 1097.77Z" fill="#FFFFFE" fill-rule="evenodd"/><path d="M1594.41 1171.28C1592.88 1171.28 1591.49 1170.52 1590.73 1169.25 1589.58 1167.21 1590.35 1164.8 1592.25 1163.53L1631.22 1141.06C1633.26 1139.92 1635.67 1140.68 1636.94 1142.59 1638.08 1144.62 1637.32 1147.03 1635.41 1148.3L1596.57 1170.77C1596.06 1171.02 1595.17 1171.28 1594.41 1171.28Z" fill="#FFFFFE" fill-rule="evenodd"/><path d="M1611.55 1176.48C1611.17 1176.48 1610.79 1176.36 1610.28 1176.36L1593.27 1171.15C1591.23 1170.52 1589.84 1168.36 1590.35 1166.2L1594.41 1148.81C1594.92 1146.52 1597.2 1145.12 1599.49 1145.63 1601.77 1146.14 1603.17 1148.43 1602.66 1150.71L1599.49 1164.17 1612.82 1168.1C1614.97 1168.74 1616.24 1171.15 1615.61 1173.31 1615.1 1175.21 1613.45 1176.48 1611.55 1176.48Z" fill="#FFFFFE" fill-rule="evenodd"/><path d="M1633.38 1046.36C1579.17 1046.36 1535.25 1090.41 1535.25 1144.49 1535.25 1198.57 1579.3 1242.62 1633.38 1242.62 1687.46 1242.62 1731.52 1198.57 1731.52 1144.49 1731.52 1090.41 1687.59 1046.36 1633.38 1046.36ZM1633.38 1251C1574.6 1251 1526.87 1203.27 1526.87 1144.49 1526.87 1085.71 1574.6 1037.98 1633.38 1037.98 1692.16 1037.98 1739.9 1085.71 1739.9 1144.49 1739.9 1203.27 1692.16 1251 1633.38 1251Z" fill="#FFFFFE" fill-rule="evenodd"/><path d="M1547.94 1147.92 1531.06 1147.92C1528.77 1147.92 1526.87 1146.14 1526.87 1143.73 1526.87 1141.44 1528.65 1139.54 1531.06 1139.54L1547.94 1139.54C1550.23 1139.54 1552.13 1141.32 1552.13 1143.73 1552.01 1146.27 1550.1 1147.92 1547.94 1147.92Z" fill="#FFFFFE" fill-rule="evenodd"/><path d="M1544.39 1199.33C1542.87 1199.33 1541.47 1198.57 1540.71 1197.3 1539.56 1195.27 1540.33 1192.86 1542.23 1191.59L1556.83 1183.08C1558.86 1181.94 1561.27 1182.7 1562.54 1184.61 1563.69 1186.64 1562.92 1189.05 1561.02 1190.19L1546.42 1198.7C1545.79 1199.21 1545.02 1199.33 1544.39 1199.33Z" fill="#FFFFFE" fill-rule="evenodd"/><path d="M1637.95 1392.43 1515.95 1392.43C1514.05 1392.43 1512.4 1391.16 1512.02 1389.26 1506.56 1367.93 1494.62 1360.82 1471.9 1365.39 1445.62 1370.59 1429.12 1369.71 1421.24 1362.6 1418.58 1360.18 1415.53 1355.61 1416.17 1348.12 1416.17 1347.74 1416.29 1347.49 1416.29 1347.23 1419.72 1336.95 1419.85 1330.22 1416.67 1328.57 1416.42 1328.45 1416.17 1328.32 1416.04 1328.19 1410.71 1324 1407.66 1319.43 1407.28 1314.73 1407.03 1312.32 1407.41 1309.91 1408.42 1307.75 1406.52 1306.61 1405.12 1305.21 1404.11 1303.44 1402.07 1299.75 1402.2 1295.06 1404.49 1289.34 1405.88 1284.65 1405.25 1283.25 1404.99 1282.87 1404.36 1281.85 1401.57 1281.35 1399.15 1280.96 1397.63 1280.71 1395.98 1280.33 1394.33 1279.95 1389.38 1278.55 1387.35 1275.51 1386.46 1272.97 1383.54 1264.84 1388.87 1251 1403.47 1229.42 1408.55 1221.17 1408.93 1214.31 1404.87 1208.47 1404.61 1208.35 1404.61 1208.35 1404.61 1208.35 1389.12 1182.32 1399.28 1145.63 1416.17 1120.88 1430 1100.56 1447.9 1084.95 1468.98 1074.41 1488.28 1064.89 1510.37 1059.94 1532.71 1060.07 1534.99 1060.07 1536.9 1061.97 1536.9 1064.26 1536.9 1066.54 1534.99 1068.45 1532.71 1068.45 1532.45 1068.45 1532.2 1068.45 1531.95 1068.45 1487.39 1068.45 1447.65 1089.27 1422.89 1125.57 1407.53 1148.04 1398.14 1181.05 1411.6 1204.03 1417.56 1212.66 1417.18 1222.82 1410.33 1233.99 1410.2 1234.12 1410.2 1234.12 1410.2 1234.12 1392.93 1259.64 1393.19 1267.89 1393.95 1270.3 1394.2 1270.94 1394.58 1271.7 1396.23 1272.08 1397.5 1272.46 1399.03 1272.71 1400.42 1272.97 1404.61 1273.73 1409.31 1274.62 1411.85 1278.68 1413.88 1281.85 1413.88 1286.17 1412.23 1292.14 1412.23 1292.26 1412.1 1292.39 1412.1 1292.52 1410.83 1295.82 1410.58 1298.36 1411.21 1299.75 1411.85 1301.02 1413.75 1301.53 1415.15 1301.79 1416.67 1302.04 1417.69 1303.05 1418.32 1304.45 1418.83 1305.85 1418.58 1307.37 1417.69 1308.51 1416.04 1310.54 1415.28 1312.45 1415.4 1314.23 1415.66 1316.51 1417.44 1319.18 1420.74 1321.84 1431.27 1327.68 1426.2 1343.81 1424.16 1349.9 1423.91 1354.09 1425.43 1355.87 1426.45 1357.01 1430.38 1360.44 1441.05 1363.48 1469.74 1357.77 1495.64 1352.69 1511.63 1361.45 1518.74 1384.69L1631.35 1384.69C1625.26 1369.71 1620.81 1354.47 1618.15 1340.25 1613.07 1313.08 1623.23 1296.96 1634.65 1278.17 1636.05 1276.01 1637.45 1273.73 1638.84 1271.44 1640.11 1269.41 1642.52 1268.9 1644.55 1270.05 1646.59 1271.32 1647.09 1273.73 1645.95 1275.76 1644.55 1278.04 1643.16 1280.33 1641.76 1282.62 1630.59 1300.64 1621.83 1314.86 1626.27 1338.73 1629.19 1354.09 1634.27 1370.85 1641.38 1387.22 1641.89 1388.49 1641.76 1390.02 1641 1391.16 1640.62 1391.79 1639.35 1392.43 1637.95 1392.43Z" fill="#FFFFFE" fill-rule="evenodd"/></g></g></g><path d="M3702.5 790.099C3702.5 602.566 3854.74 450.541 4042.55 450.541 4230.35 450.541 4382.6 602.566 4382.6 790.099 4382.6 977.633 4230.35 1129.66 4042.55 1129.66 3854.74 1129.66 3702.5 977.633 3702.5 790.099Z" stroke="#F15A45" stroke-width="6.78623" stroke-miterlimit="8" fill="none" fill-rule="evenodd" transform="matrix(1 0 0 1.00289 -2466.62 409.546)"/></g></svg>