<svg width="689" height="688" xmlns="http://www.w3.org/2000/svg" xmlns:xlink="http://www.w3.org/1999/xlink" xml:space="preserve" overflow="hidden"><g transform="translate(-2220 -1177)"><path d="M3707.81 791.234C3707.81 603.432 3860.28 451.189 4048.35 451.189 4236.43 451.189 4388.9 603.432 4388.9 791.234 4388.9 979.038 4236.43 1131.29 4048.35 1131.29 3860.28 1131.29 3707.81 979.038 3707.81 791.234Z" stroke="#F15A45" stroke-width="6.79598" stroke-miterlimit="8" fill="none" fill-rule="evenodd" transform="matrix(1.00002 0 0 1 -1483.99 730.195)"/><g><g><g><path d="M649 324.5C649 503.716 503.716 649 324.5 649 145.284 649-4.80356e-14 503.716 0 324.5-9.60713e-14 145.284 145.284-4.80356e-14 324.5 0 503.716-4.80356e-14 649 145.284 649 324.5Z" fill="#F05845" fill-rule="evenodd" transform="matrix(1 0 0 1.00154 2240 1196)"/><path d="M273.932 509.104C246.88 509.104 223.875 486.749 219.442 456.663 193.956 445.177 177.637 420.06 177.637 391.92 177.637 388.746 177.849 385.566 178.268 382.434 159.459 369.097 148.323 347.663 148.323 324.497 148.323 295.142 166.609 268.829 193.542 258.316 188.45 250.594 185.701 241.519 185.701 232.156 185.701 205.933 207.036 184.6 233.259 184.6 233.557 184.6 233.857 184.602 234.157 184.608 235.632 159.702 256.362 139.894 281.63 139.894 307.853 139.894 329.188 161.229 329.188 187.452L329.188 446.15C329.187 480.863 304.4 509.104 273.932 509.104ZM233.259 193.973C212.206 193.973 195.076 211.101 195.076 232.155 195.076 241.532 198.511 250.551 204.746 257.549 205.821 258.754 206.199 260.428 205.747 261.979 205.295 263.529 204.077 264.739 202.522 265.177 176.13 272.643 157.697 297.036 157.697 324.497 157.697 345.494 168.241 364.854 185.901 376.285 187.486 377.311 188.301 379.185 187.969 381.044 187.334 384.605 187.011 388.265 187.011 391.92 187.011 417.153 202.125 439.584 225.512 449.065 227.113 449.714 228.227 451.189 228.412 452.906 231.292 479.6 250.86 499.729 273.931 499.729 299.229 499.729 319.812 475.694 319.812 446.15L319.812 187.452C319.812 166.398 302.683 149.269 281.629 149.269 271.43 149.269 261.842 153.241 254.631 160.452 247.419 167.665 243.447 177.254 243.447 187.452 243.447 188.087 243.464 188.745 243.497 189.41 243.567 190.796 243.018 192.142 242.001 193.084 240.982 194.028 239.598 194.47 238.222 194.296 236.554 194.083 234.885 193.974 233.259 193.974Z" fill="#FEFEFE" fill-rule="evenodd" transform="matrix(1 0 0 1.00154 2240 1196)"/><path d="M279.228 245.755C278.499 245.755 277.76 245.585 277.069 245.226 268.331 240.684 260.656 235.009 254.257 228.36 247.254 221.08 238.13 208.766 234.421 191.439 234.384 191.263 234.353 191.12 234.33 191.014 233.627 188.713 234.788 186.218 237.061 185.301 239.461 184.331 242.192 185.493 243.162 187.894 243.351 188.364 243.435 188.759 243.589 189.478 246.835 204.646 254.856 215.46 261.013 221.861 266.704 227.774 273.561 232.837 281.394 236.908 283.691 238.102 284.584 240.932 283.391 243.229 282.555 244.835 280.92 245.755 279.228 245.755ZM234.351 191.08C234.395 191.225 234.439 191.332 234.467 191.402 234.425 191.295 234.386 191.188 234.351 191.08Z" fill="#FEFEFE" fill-rule="evenodd" transform="matrix(1 0 0 1.00154 2240 1196)"/><path d="M242.399 257.949C241.646 257.949 240.882 257.767 240.173 257.384 237.896 256.152 237.049 253.308 238.28 251.03L253.512 222.878C254.744 220.602 257.59 219.754 259.866 220.985 262.143 222.217 262.99 225.062 261.759 227.339L246.527 255.491C245.678 257.059 244.065 257.949 242.399 257.949Z" fill="#FEFEFE" fill-rule="evenodd" transform="matrix(1 0 0 1.00154 2240 1196)"/><path d="M324.502 288.284C324.444 288.284 324.385 288.283 324.327 288.28 287.708 286.933 276.142 265.985 275.667 265.094 274.45 262.81 275.315 259.97 277.6 258.754 279.877 257.541 282.7 258.396 283.926 260.659 284.36 261.439 293.849 277.778 324.671 278.912 327.258 279.007 329.279 281.181 329.183 283.769 329.091 286.297 327.011 288.284 324.502 288.284Z" fill="#FEFEFE" fill-rule="evenodd" transform="matrix(1 0 0 1.00154 2240 1196)"/><path d="M259.619 347.051C259.137 347.051 258.647 346.976 258.164 346.818 255.703 346.015 254.359 343.369 255.162 340.908 261.2 322.4 270.713 311.208 283.437 307.645 304.852 301.647 326.635 320.063 327.552 320.85 329.516 322.536 329.741 325.495 328.056 327.46 326.37 329.424 323.415 329.649 321.45 327.968 321.263 327.808 302.501 312.013 285.936 316.68 276.429 319.357 269.073 328.487 264.073 343.816 263.43 345.793 261.593 347.051 259.62 347.051Z" fill="#FEFEFE" fill-rule="evenodd" transform="matrix(1 0 0 1.00154 2240 1196)"/><path d="M269.264 327.758 238.809 327.758C236.22 327.758 234.122 325.659 234.122 323.071 234.122 320.482 236.22 318.383 238.809 318.383L269.264 318.383C271.853 318.383 273.951 320.482 273.951 323.071 273.951 325.659 271.853 327.758 269.264 327.758Z" fill="#FEFEFE" fill-rule="evenodd" transform="matrix(1 0 0 1.00154 2240 1196)"/><path d="M227.379 342.968C226.399 342.968 225.411 342.662 224.568 342.028 222.497 340.473 222.081 337.534 223.635 335.464L233.049 322.933 223.915 309.496C222.458 307.355 223.014 304.44 225.155 302.984 227.295 301.529 230.211 302.085 231.667 304.225L242.686 320.433C243.813 322.091 243.761 324.281 242.558 325.883L231.131 341.095C230.21 342.322 228.803 342.968 227.379 342.968Z" fill="#FEFEFE" fill-rule="evenodd" transform="matrix(1 0 0 1.00154 2240 1196)"/><path d="M320.232 391.421C310.377 391.421 295.866 387.529 286.904 373.163 282.447 378.117 275.088 384.343 265.598 385.425 256.382 386.476 247.379 382.552 238.839 373.76 237.035 371.903 237.078 368.935 238.935 367.132 240.792 365.327 243.759 365.371 245.563 367.228 251.974 373.827 258.359 376.819 264.536 376.11 275.646 374.843 283.623 362.127 283.7 361.999 284.618 360.482 286.31 359.61 288.082 359.752 289.851 359.892 291.388 361.019 292.055 362.663 301.093 384.939 322.859 381.927 323.782 381.789 326.335 381.404 328.727 383.154 329.123 385.705 329.519 388.255 327.787 390.645 325.239 391.05 323.781 391.282 322.088 391.421 320.232 391.421Z" fill="#FEFEFE" fill-rule="evenodd" transform="matrix(1 0 0 1.00154 2240 1196)"/><path d="M247.507 404.383C244.981 404.383 242.897 402.372 242.823 399.831 242.369 383.99 254.574 376.52 255.095 376.21 257.318 374.882 260.195 375.609 261.522 377.831 262.844 380.045 262.128 382.908 259.927 384.242 259.533 384.487 251.903 389.38 252.195 399.562 252.27 402.15 250.232 404.307 247.644 404.382 247.597 404.382 247.552 404.383 247.507 404.383Z" fill="#FEFEFE" fill-rule="evenodd" transform="matrix(1 0 0 1.00154 2240 1196)"/><path d="M247.044 500.193C245.398 500.193 243.801 499.325 242.943 497.783 242.225 496.492 225.604 465.844 246.964 437.603 248.525 435.537 251.464 435.129 253.53 436.691 255.594 438.253 256.002 441.193 254.441 443.257 236.726 466.68 250.988 492.963 251.135 493.225 252.394 495.488 251.579 498.342 249.317 499.601 248.597 500.002 247.815 500.193 247.044 500.193Z" fill="#FEFEFE" fill-rule="evenodd" transform="matrix(1 0 0 1.00154 2240 1196)"/><path d="M241.229 480.66C239.852 480.66 238.489 480.058 237.563 478.899 235.948 476.876 236.277 473.927 238.299 472.311 239.258 471.545 259.472 455.674 280.905 459.615 279.411 451.686 278.592 439.996 284.159 432.032 286.655 428.462 291.564 424.148 300.778 423.874 303.37 423.807 305.525 425.832 305.603 428.42 305.678 431.007 303.644 433.167 301.057 433.244 296.722 433.374 293.709 434.734 291.842 437.404 286.8 444.616 290.303 460.194 291.928 465.085 292.516 466.855 292 468.805 290.612 470.051 289.224 471.297 287.231 471.601 285.534 470.827 266.439 462.11 244.372 479.461 244.15 479.637 243.288 480.326 242.255 480.66 241.229 480.66Z" fill="#FEFEFE" fill-rule="evenodd" transform="matrix(1 0 0 1.00154 2240 1196)"/><path d="M375.068 509.104C344.601 509.104 319.814 480.863 319.814 446.15L319.814 187.452C319.814 161.229 341.147 139.894 367.37 139.894 380.073 139.894 392.016 144.841 400.997 153.823 409.307 162.132 414.162 172.975 414.844 184.608 415.144 184.602 415.443 184.599 415.74 184.599 441.964 184.599 463.298 205.933 463.298 232.156 463.298 241.518 460.549 250.593 455.457 258.316 482.391 268.829 500.677 295.142 500.677 324.497 500.677 347.662 489.541 369.097 470.732 382.434 471.151 385.566 471.362 388.745 471.362 391.92 471.362 420.06 455.043 445.177 429.556 456.663 425.126 486.749 402.12 509.104 375.068 509.104ZM367.37 149.27C346.317 149.27 329.187 166.399 329.187 187.453L329.187 446.151C329.187 475.695 349.77 499.73 375.068 499.73 398.138 499.73 417.707 479.601 420.586 452.907 420.772 451.19 421.886 449.715 423.486 449.066 446.875 439.585 461.988 417.153 461.988 391.921 461.988 388.265 461.666 384.606 461.03 381.045 460.698 379.187 461.513 377.311 463.098 376.286 480.759 364.854 491.303 345.495 491.303 324.498 491.303 297.036 472.869 272.643 446.476 265.178 444.923 264.74 443.704 263.53 443.252 261.98 442.8 260.429 443.178 258.755 444.253 257.549 450.489 250.552 453.924 241.533 453.924 232.156 453.924 209.477 434.054 191.33 410.776 194.295 409.402 194.473 408.017 194.027 406.998 193.084 405.98 192.141 405.432 190.796 405.502 189.41 405.536 188.745 405.553 188.086 405.553 187.451 405.552 166.398 388.423 149.269 367.37 149.269Z" fill="#FEFEFE" fill-rule="evenodd" transform="matrix(1 0 0 1.00154 2240 1196)"/><path d="M369.772 245.755C368.078 245.755 366.444 244.835 365.61 243.228 364.416 240.932 365.309 238.102 367.607 236.908 375.438 232.837 382.296 227.773 387.988 221.86 394.144 215.459 402.166 204.646 405.412 189.478 405.566 188.76 405.649 188.364 405.839 187.895 406.809 185.494 409.542 184.334 411.94 185.302 414.212 186.219 415.374 188.714 414.671 191.014 414.647 191.121 414.617 191.263 414.579 191.44 410.87 208.767 401.746 221.081 394.744 228.359 388.344 235.009 380.669 240.683 371.931 245.225 371.239 245.584 370.5 245.755 369.772 245.755ZM414.648 191.08C414.614 191.188 414.575 191.295 414.533 191.402 414.561 191.332 414.605 191.225 414.648 191.08Z" fill="#FEFEFE" fill-rule="evenodd" transform="matrix(1 0 0 1.00154 2240 1196)"/><path d="M406.601 257.949C404.935 257.949 403.322 257.059 402.473 255.491L387.241 227.339C386.009 225.062 386.856 222.218 389.134 220.985 391.409 219.755 394.256 220.6 395.487 222.878L410.719 251.03C411.951 253.308 411.104 256.152 408.827 257.384 408.118 257.767 407.354 257.949 406.601 257.949Z" fill="#FEFEFE" fill-rule="evenodd" transform="matrix(1 0 0 1.00154 2240 1196)"/><path d="M324.496 288.284C321.987 288.284 319.908 286.297 319.816 283.769 319.72 281.181 321.74 279.007 324.326 278.911 355.229 277.774 364.689 261.351 365.075 260.653 366.292 258.369 369.122 257.52 371.407 258.736 373.692 259.953 374.548 262.809 373.332 265.093 372.857 265.985 361.289 286.933 324.672 288.279 324.613 288.282 324.554 288.284 324.496 288.284Z" fill="#FEFEFE" fill-rule="evenodd" transform="matrix(1 0 0 1.00154 2240 1196)"/><path d="M389.381 347.051C387.407 347.051 385.571 345.794 384.925 343.815 379.923 328.486 372.568 319.357 363.063 316.68 346.498 312.014 327.737 327.808 327.548 327.967 325.581 329.646 322.624 329.418 320.942 327.452 319.26 325.487 319.484 322.533 321.447 320.85 322.364 320.063 344.146 301.646 365.562 307.644 378.286 311.207 387.799 322.399 393.838 340.908 394.64 343.369 393.296 346.015 390.835 346.817 390.352 346.976 389.863 347.051 389.381 347.051Z" fill="#FEFEFE" fill-rule="evenodd" transform="matrix(1 0 0 1.00154 2240 1196)"/><path d="M410.19 327.758 379.735 327.758C377.146 327.758 375.047 325.659 375.047 323.071 375.047 320.482 377.146 318.383 379.735 318.383L410.19 318.383C412.778 318.383 414.877 320.482 414.877 323.071 414.877 325.659 412.778 327.758 410.19 327.758Z" fill="#FEFEFE" fill-rule="evenodd" transform="matrix(1 0 0 1.00154 2240 1196)"/><path d="M421.621 342.968C420.197 342.968 418.79 342.322 417.87 341.095L406.442 325.883C405.239 324.281 405.187 322.091 406.314 320.432L417.332 304.224C418.789 302.084 421.704 301.529 423.844 302.983 425.985 304.44 426.541 307.354 425.086 309.495L415.95 322.932 425.365 335.463C426.919 337.533 426.502 340.471 424.432 342.027 423.589 342.663 422.6 342.967 421.621 342.968Z" fill="#FEFEFE" fill-rule="evenodd" transform="matrix(1 0 0 1.00154 2240 1196)"/><path d="M328.768 391.421C326.912 391.421 325.221 391.283 323.763 391.049 321.207 390.643 319.464 388.24 319.871 385.683 320.278 383.133 322.663 381.393 325.223 381.789 326.182 381.933 347.915 384.918 356.946 362.663 357.613 361.019 359.151 359.892 360.919 359.752 362.686 359.612 364.383 360.482 365.301 361.999 365.375 362.118 373.282 374.863 384.503 376.115 390.675 376.802 397.04 373.812 403.438 367.228 405.241 365.371 408.209 365.327 410.065 367.132 411.923 368.935 411.966 371.903 410.162 373.76 401.621 382.55 392.618 386.476 383.404 385.425 373.914 384.343 366.555 378.117 362.097 373.163 353.136 387.527 338.623 391.421 328.768 391.421Z" fill="#FEFEFE" fill-rule="evenodd" transform="matrix(1 0 0 1.00154 2240 1196)"/><path d="M401.493 404.383C401.447 404.383 401.401 404.382 401.356 404.381 398.768 404.307 396.73 402.149 396.804 399.561 397.097 389.333 389.396 384.442 389.068 384.239 386.845 382.913 386.135 380.044 387.461 377.822 388.788 375.599 391.681 374.881 393.905 376.21 394.426 376.52 406.63 383.99 406.176 399.831 406.102 402.372 404.018 404.383 401.493 404.383Z" fill="#FEFEFE" fill-rule="evenodd" transform="matrix(1 0 0 1.00154 2240 1196)"/><path d="M401.956 500.193C401.185 500.193 400.403 500.002 399.681 499.602 397.422 498.345 396.607 495.497 397.859 493.235 398.463 492.137 412.17 466.542 394.559 443.258 392.998 441.194 393.405 438.254 395.47 436.692 397.536 435.132 400.475 435.539 402.036 437.604 423.396 465.845 406.774 496.493 406.057 497.784 405.199 499.324 403.602 500.193 401.956 500.193Z" fill="#FEFEFE" fill-rule="evenodd" transform="matrix(1 0 0 1.00154 2240 1196)"/><path d="M407.773 480.66C406.749 480.66 405.717 480.326 404.854 479.639 404.552 479.401 382.442 462.164 363.466 470.826 361.771 471.599 359.775 471.295 358.388 470.05 357 468.803 356.483 466.853 357.071 465.083 358.805 459.83 362.203 444.605 357.151 437.394 355.285 434.73 352.273 433.373 347.943 433.243 345.355 433.167 343.32 431.006 343.397 428.419 343.474 425.831 345.646 423.803 348.222 423.874 357.435 424.148 362.345 428.461 364.84 432.031 370.408 439.996 369.588 451.685 368.094 459.615 389.526 455.677 409.742 471.545 410.701 472.31 412.724 473.926 413.054 476.875 411.437 478.898 410.511 480.058 409.149 480.66 407.773 480.66Z" fill="#FEFEFE" fill-rule="evenodd" transform="matrix(1 0 0 1.00154 2240 1196)"/></g></g></g></g></svg>