<svg width="689" height="688" xmlns="http://www.w3.org/2000/svg" xmlns:xlink="http://www.w3.org/1999/xlink" xml:space="preserve" overflow="hidden"><g transform="translate(-725 -1673)"><g><g><g><path d="M1395 2017C1395 2196.49 1249.49 2342 1070 2342 890.507 2342 745 2196.49 745 2017 745 1837.51 890.507 1692 1070 1692 1249.49 1692 1395 1837.51 1395 2017Z" fill="#F05845" fill-rule="evenodd"/><path d="M1092.25 2201.87 954.91 2201.87C952.317 2201.87 950.216 2199.76 950.216 2197.17L950.216 2070.38C929.299 2043.49 920.284 2000.58 917.354 1983.17 913.115 1958.01 915.587 1934.3 924.703 1912.69 932.936 1893.16 946.718 1875.68 964.557 1862.12 1006.91 1829.94 1066.54 1822.92 1112.95 1844.66 1160.63 1866.99 1188.54 1915.54 1191.58 1981.39 1193 1986.78 1212.18 2028.8 1219.45 2044.72 1221.78 2049.81 1223.45 2053.48 1224.25 2055.26 1224.9 2056.72 1224.76 2058.4 1223.9 2059.73 1223.03 2061.07 1221.55 2061.87 1219.96 2061.87L1195.24 2061.87C1194.29 2069.91 1191.92 2088.29 1188.3 2106.41 1185.45 2120.67 1182.37 2132.05 1179.15 2140.22 1176.11 2147.93 1171.09 2158.11 1162.5 2157.77L1096.95 2157.77 1096.95 2197.17C1096.95 2199.76 1094.84 2201.87 1092.25 2201.87ZM959.604 2192.48 1087.56 2192.48 1087.56 2156.64C1084.2 2155.45 1079.23 2153.04 1074.57 2148.3 1067.59 2141.2 1059.85 2127.24 1062.52 2101.03 1062.78 2098.45 1065.09 2096.59 1067.67 2096.84 1070.25 2097.1 1072.12 2099.41 1071.86 2101.99 1067.79 2141.93 1090 2147.82 1092.67 2148.38L1162.61 2148.38C1162.69 2148.38 1162.78 2148.38 1162.86 2148.39L1162.86 2148.39C1162.96 2148.39 1170.5 2147.48 1179.08 2104.62 1183.81 2081.01 1186.35 2056.93 1186.38 2056.69 1186.63 2054.29 1188.64 2052.48 1191.05 2052.48L1212.68 2052.48C1212.13 2051.29 1211.54 2050 1210.91 2048.62 1186.65 1995.47 1182.33 1984.83 1182.21 1982.11 1179.41 1919.77 1153.4 1873.97 1108.97 1853.16 1065.63 1832.86 1009.88 1839.47 970.238 1869.6 935.027 1896.35 919.126 1937.18 926.613 1981.61 929.469 1998.58 938.296 2040.73 958.561 2065.79 959.237 2066.63 959.605 2067.67 959.605 2068.74L959.605 2192.48Z" fill="#FEFEFE" fill-rule="evenodd"/><path d="M1100.28 2001.38C1097.68 2001.38 1095.58 1999.28 1095.58 1996.69L1095.58 1969.88C1095.58 1967.29 1097.68 1965.18 1100.28 1965.18 1113.09 1965.18 1123.51 1954.76 1123.51 1941.95 1123.51 1929.14 1113.09 1918.72 1100.28 1918.72 1087.47 1918.72 1077.04 1929.14 1077.04 1941.95 1077.04 1944.54 1074.94 1946.65 1072.35 1946.65 1069.76 1946.65 1067.65 1944.54 1067.65 1941.95 1067.65 1923.96 1082.29 1909.33 1100.28 1909.33 1118.26 1909.33 1132.9 1923.96 1132.9 1941.95 1132.9 1958.34 1120.74 1971.95 1104.97 1974.24L1104.97 1996.69C1104.97 1999.28 1102.87 2001.38 1100.28 2001.38Z" fill="#FEFEFE" fill-rule="evenodd"/><path d="M1102.11 2017.76 1098.44 2017.76C1095.85 2017.76 1093.75 2015.66 1093.75 2013.07 1093.75 2010.48 1095.85 2008.37 1098.44 2008.37L1102.11 2008.37C1104.7 2008.37 1106.8 2010.48 1106.8 2013.07 1106.8 2015.66 1104.7 2017.76 1102.11 2017.76Z" fill="#FEFEFE" fill-rule="evenodd"/><path d="M1003.63 2001.38C1001.04 2001.38 998.934 1999.28 998.934 1996.69L998.934 1969.88C998.934 1967.29 1001.04 1965.18 1003.63 1965.18 1016.44 1965.18 1026.86 1954.76 1026.86 1941.95 1026.86 1929.14 1016.44 1918.72 1003.63 1918.72 990.818 1918.72 980.396 1929.14 980.396 1941.95 980.396 1944.54 978.294 1946.65 975.701 1946.65 973.108 1946.65 971.006 1944.54 971.006 1941.95 971.006 1923.96 985.641 1909.33 1003.63 1909.33 1021.62 1909.33 1036.25 1923.96 1036.25 1941.95 1036.25 1958.34 1024.09 1971.95 1008.32 1974.24L1008.32 1996.69C1008.32 1999.28 1006.22 2001.38 1003.63 2001.38Z" fill="#FEFEFE" fill-rule="evenodd"/><path d="M1005.46 2017.76 1001.79 2017.76C999.2 2017.76 997.098 2015.66 997.098 2013.07 997.098 2010.48 999.2 2008.37 1001.79 2008.37L1005.46 2008.37C1008.06 2008.37 1010.16 2010.48 1010.16 2013.07 1010.16 2015.66 1008.06 2017.76 1005.46 2017.76Z" fill="#FEFEFE" fill-rule="evenodd"/></g></g></g><path d="M3707.81 791.234C3707.81 603.432 3860.28 451.189 4048.35 451.189 4236.43 451.189 4388.9 603.432 4388.9 791.234 4388.9 979.038 4236.43 1131.29 4048.35 1131.29 3860.28 1131.29 3707.81 979.038 3707.81 791.234Z" stroke="#F15A45" stroke-width="6.79598" stroke-miterlimit="8" fill="none" fill-rule="evenodd" transform="matrix(1.00002 0 0 1 -2978.99 1226.2)"/></g></svg>