<svg width="688" height="688" xmlns="http://www.w3.org/2000/svg" xmlns:xlink="http://www.w3.org/1999/xlink" xml:space="preserve" overflow="hidden"><g transform="translate(-2021 -1352)"><g><g><g><path d="M650 325C650 504.492 504.492 650 325 650 145.507 650-4.81096e-14 504.492 0 325-9.62193e-14 145.507 145.507-4.81096e-14 325 0 504.492-4.81096e-14 650 145.507 650 325Z" fill="#F05845" fill-rule="evenodd" transform="matrix(1 0 0 1 2040 1371)"/><path d="M347.251 509.866 209.91 509.866C207.317 509.866 205.216 507.764 205.216 505.172L205.216 378.377C184.299 351.487 175.284 308.578 172.354 291.173 168.115 266.014 170.587 242.298 179.703 220.685 187.936 201.162 201.718 183.676 219.557 170.119 261.906 137.937 321.542 130.92 367.951 152.658 415.627 174.99 443.542 223.542 446.576 289.393 448.002 294.775 467.184 336.796 474.454 352.721 476.775 357.808 478.453 361.483 479.248 363.263 479.895 364.716 479.764 366.398 478.9 367.732 478.034 369.066 476.551 369.871 474.961 369.871L450.238 369.871C449.286 377.914 446.924 396.286 443.3 414.411 440.446 428.673 437.366 440.049 434.147 448.221 431.109 455.93 426.092 466.105 417.504 465.773L351.947 465.773 351.947 505.173C351.946 507.764 349.844 509.866 347.252 509.866ZM214.605 500.477 342.556 500.477 342.556 464.642C339.199 463.453 334.23 461.041 329.566 456.295 322.594 449.201 314.846 435.244 317.52 409.034 317.784 406.455 320.086 404.585 322.667 404.84 325.247 405.104 327.124 407.408 326.861 409.988 322.785 449.931 345.004 455.824 347.669 456.382L417.61 456.382C417.692 456.382 417.775 456.384 417.856 456.388L417.857 456.388C417.964 456.388 425.5 455.481 434.081 412.62 438.807 389.012 441.352 364.927 441.378 364.687 441.628 362.295 443.643 360.481 446.047 360.481L467.676 360.481C467.134 359.291 466.542 357.996 465.914 356.619 441.653 303.472 437.328 292.826 437.212 290.109 434.414 227.77 408.401 181.973 363.97 161.16 320.634 140.862 264.882 147.467 225.238 177.595 190.027 204.353 174.126 245.182 181.613 289.613 184.469 306.577 193.296 348.734 213.561 373.79 214.237 374.625 214.605 375.668 214.605 376.742L214.605 500.477Z" fill="#FEFEFE" fill-rule="evenodd" transform="matrix(1 0 0 1 2040 1371)"/><path d="M303.686 297.332 236.788 297.332C227.734 297.332 220.367 289.965 220.367 280.911L220.367 214.702C220.367 212.109 222.469 210.008 225.062 210.008L245.778 210.007C247.878 201.694 255.419 195.524 264.375 195.524 273.331 195.524 280.872 201.694 282.972 210.007L303.686 210.007C306.279 210.007 308.381 212.109 308.381 214.702L308.381 239.186C308.381 241.78 306.279 243.881 303.686 243.881 298.289 243.881 293.899 248.272 293.899 253.669 293.899 259.066 298.289 263.457 303.686 263.457 306.279 263.457 308.381 265.559 308.381 268.152L308.381 292.637C308.38 295.23 306.279 297.331 303.686 297.331ZM229.756 219.396 229.756 280.911C229.756 284.788 232.911 287.942 236.788 287.942L298.991 287.943 298.991 272.265C290.68 270.165 284.509 262.624 284.509 253.669 284.509 244.714 290.68 237.173 298.991 235.073L298.991 219.396 278.858 219.396C276.264 219.396 274.163 217.294 274.163 214.702 274.163 209.304 269.772 204.913 264.375 204.913 258.977 204.913 254.586 209.304 254.586 214.702 254.586 217.294 252.484 219.396 249.892 219.396L229.756 219.396Z" fill="#FEFEFE" fill-rule="evenodd" transform="matrix(1 0 0 1 2040 1371)"/><path d="M369.893 297.676 303.684 297.676C301.091 297.676 298.989 295.575 298.989 292.982L298.989 272.265C290.678 270.164 284.507 262.624 284.507 253.668 284.507 244.712 290.678 237.171 298.989 235.072L298.989 214.356C298.989 211.763 301.091 209.662 303.684 209.662L328.169 209.662C330.763 209.662 332.864 211.763 332.864 214.356 332.864 219.754 337.255 224.145 342.653 224.145 348.05 224.145 352.441 219.754 352.441 214.356 352.441 211.763 354.543 209.662 357.135 209.662L381.62 209.662C384.213 209.662 386.315 211.763 386.315 214.356L386.315 281.255C386.315 290.31 378.948 297.676 369.893 297.676ZM308.379 288.288 369.893 288.288C373.77 288.288 376.925 285.132 376.925 281.255L376.925 219.051 361.248 219.051C359.149 227.364 351.608 233.534 342.652 233.534 333.697 233.534 326.155 227.364 324.055 219.051L308.378 219.051 308.378 239.186C308.378 241.779 306.276 243.881 303.684 243.881 298.287 243.881 293.895 248.271 293.895 253.668 293.895 259.065 298.287 263.456 303.684 263.456 306.276 263.456 308.378 265.558 308.378 268.151L308.378 288.288 308.379 288.288Z" fill="#FEFEFE" fill-rule="evenodd" transform="matrix(1 0 0 1 2040 1371)"/></g></g></g><path d="M3702.5 790.1C3702.5 602.567 3854.75 450.541 4042.55 450.541 4230.35 450.541 4382.6 602.567 4382.6 790.1 4382.6 977.633 4230.35 1129.66 4042.55 1129.66 3854.75 1129.66 3702.5 977.633 3702.5 790.1Z" stroke="#F15A45" stroke-width="6.78623" stroke-miterlimit="8" fill="none" fill-rule="evenodd" transform="matrix(1 0 0 1.00144 -1677.62 905.195)"/></g></svg>