<svg width="683" height="684" xmlns="http://www.w3.org/2000/svg" xmlns:xlink="http://www.w3.org/1999/xlink" xml:space="preserve" overflow="hidden"><g transform="translate(-3054 -1374)"><path d="M3057.94 1716.44C3057.94 1529.76 3209.05 1378.44 3395.44 1378.44 3581.84 1378.44 3732.94 1529.76 3732.94 1716.44 3732.94 1903.11 3581.84 2054.44 3395.44 2054.44 3209.05 2054.44 3057.94 1903.11 3057.94 1716.44Z" stroke="#F05845" stroke-width="6.875" stroke-miterlimit="8" fill="none" fill-rule="evenodd"/><path d="M3720 1716.5C3720 1895.72 3574.72 2041 3395.5 2041 3216.28 2041 3071 1895.72 3071 1716.5 3071 1537.28 3216.28 1392 3395.5 1392 3574.72 1392 3720 1537.28 3720 1716.5Z" fill="#FFFFFF" fill-rule="evenodd"/><path d="M3445.39 1689.01C3437.1 1689.01 3425.89 1690.96 3425.89 1681.95 3425.89 1672.94 3437.1 1674.88 3445.39 1674.88 3454.89 1674.88 3454.89 1689.01 3445.39 1689.01ZM3556.28 1947C3454.4 1947 3352.28 1947 3250.4 1947 3246.5 1947 3243.33 1943.83 3243.33 1939.94L3243.33 1876.35C3243.33 1837.62 3274.77 1805.95 3313.77 1805.95L3342.78 1805.95 3349.84 1778.42C3324.98 1766 3308.17 1740.17 3308.17 1710.7L3308.17 1693.89C3293.54 1668.31 3289.64 1641.27 3296.71 1615.44 3309.87 1568.43 3358.86 1537 3404.93 1537 3460.25 1537 3494.62 1579.88 3520.21 1559.9 3524.36 1556.73 3530.69 1559.17 3531.42 1564.53 3531.91 1566.72 3540.2 1621.05 3498.52 1645.89L3498.52 1710.7C3498.52 1740.17 3481.7 1766 3456.84 1778.42L3463.91 1805.95 3492.91 1805.95C3531.67 1805.95 3563.35 1837.62 3563.35 1876.35L3563.35 1939.94C3563.35 1943.83 3560.18 1947 3556.28 1947ZM3345.21 1820.08 3313.77 1820.08C3282.57 1820.08 3257.47 1845.41 3257.47 1876.35L3257.47 1932.87 3305.73 1932.87 3305.73 1901.2C3305.73 1891.7 3319.87 1891.7 3319.87 1901.2L3319.87 1932.87 3486.82 1932.87 3486.82 1901.2C3486.82 1891.7 3500.96 1891.7 3500.96 1901.2L3500.96 1932.87 3549.22 1932.87 3549.22 1876.35C3549.22 1845.41 3524.11 1820.08 3492.91 1820.08L3461.47 1820.08 3408.34 1872.94C3405.66 1875.87 3401.03 1875.87 3398.35 1872.94ZM3355.94 1810.82 3403.22 1858.08 3450.5 1810.82 3443.68 1783.78C3436.86 1785.73 3429.79 1786.7 3422.48 1786.7L3384.21 1786.7C3376.9 1786.7 3369.59 1785.73 3363.01 1783.78ZM3360.08 1767.7C3360.57 1767.94 3360.81 1767.94 3361.3 1768.19 3368.37 1771.11 3376.17 1772.57 3384.21 1772.57L3422.48 1772.57C3456.11 1772.57 3484.38 1745.29 3484.38 1710.7L3484.38 1645.41C3448.55 1621.29 3426.86 1631.03 3393.47 1653.69 3376.9 1664.65 3363.74 1664.9 3353.26 1664.9 3340.09 1664.9 3332.78 1665.14 3322.3 1693.16L3322.3 1710.7C3322.3 1736.28 3337.9 1758.44 3360.08 1767.7ZM3360.81 1875.13 3329.61 1875.13C3320.35 1875.13 3320.35 1861 3329.61 1861L3360.81 1861C3370.07 1861 3370.07 1875.13 3360.81 1875.13ZM3404.93 1551.13C3345.94 1551.13 3286.47 1607.89 3314.5 1675.13 3334.73 1634.93 3354.96 1662.46 3385.43 1642 3422.72 1616.66 3450.5 1605.7 3491.94 1633.47 3515.34 1618.85 3518.51 1592.06 3518.26 1577.2 3486.09 1589.13 3452.45 1551.13 3404.93 1551.13ZM3426.13 1752.84 3378.85 1740.42C3369.83 1737.98 3373.49 1724.34 3382.5 1726.77L3427.84 1738.95C3435.88 1741.15 3434.17 1752.84 3426.13 1752.84ZM3235.05 1611.3C3214.57 1611.3 3198 1594.49 3198 1574.03 3198 1553.57 3214.57 1537 3235.05 1537 3255.52 1537 3272.09 1553.57 3272.09 1574.03 3272.09 1594.49 3255.52 1611.3 3235.05 1611.3ZM3235.05 1551.13C3222.37 1551.13 3212.14 1561.36 3212.14 1574.03 3212.14 1586.7 3222.37 1597.17 3235.05 1597.17 3247.72 1597.17 3257.96 1586.7 3257.96 1574.03 3257.96 1561.36 3247.72 1551.13 3235.05 1551.13ZM3535.32 1774.77C3519.97 1774.77 3507.54 1762.34 3507.54 1747.24 3507.54 1731.89 3519.97 1719.47 3535.32 1719.47 3550.68 1719.47 3563.11 1731.89 3563.11 1747.24 3563.11 1762.34 3550.68 1774.77 3535.32 1774.77ZM3535.32 1733.6C3517.53 1733.6 3517.53 1760.64 3535.32 1760.64 3553.12 1760.64 3553.12 1733.6 3535.32 1733.6ZM3246.99 1802.05C3233.1 1802.05 3222.13 1790.84 3222.13 1777.2 3222.13 1763.32 3233.1 1752.35 3246.99 1752.35 3260.64 1752.35 3271.85 1763.32 3271.85 1777.2 3271.85 1790.84 3260.64 1802.05 3246.99 1802.05ZM3246.99 1766.48C3232.85 1766.48 3232.85 1787.92 3246.99 1787.92 3261.13 1787.92 3261.13 1766.48 3246.99 1766.48ZM3557.75 1599.36C3549.7 1599.36 3548 1587.67 3556.04 1585.48L3579.93 1579.14C3588.94 1576.71 3592.6 1590.35 3583.58 1592.79ZM3246.01 1737.01C3237.73 1737.01 3236.27 1725.31 3244.06 1723.12L3267.95 1716.79C3276.97 1714.35 3280.62 1727.99 3271.61 1730.43ZM3584.31 1809.6 3558.48 1803.02C3549.46 1800.59 3553.12 1786.95 3562.13 1789.38L3586.02 1795.72C3594.06 1797.91 3592.36 1809.6 3584.31 1809.6ZM3585.53 1712.89C3577.49 1712.89 3567.98 1693.4 3577.49 1675.62 3583.34 1664.9 3576.76 1656.61 3576.51 1656.61 3570.66 1649.55 3581.63 1640.54 3587.48 1647.6 3587.97 1648.33 3600.16 1663.43 3589.92 1682.19 3584.31 1692.91 3590.89 1701.19 3590.89 1701.44 3594.79 1706.07 3591.38 1712.89 3585.53 1712.89ZM3551.9 1701.68C3543.61 1701.68 3536.79 1684.14 3544.34 1670.01 3548.48 1662.46 3543.85 1656.61 3543.61 1656.61 3537.76 1649.55 3548.73 1640.54 3554.58 1647.6 3558.72 1652.47 3563.6 1664.17 3556.77 1676.83 3552.87 1684.14 3557.02 1689.74 3557.5 1690.23 3561.16 1695.1 3557.5 1701.68 3551.9 1701.68ZM3221.15 1712.89C3215.3 1712.89 3211.89 1706.07 3215.55 1701.44 3216.28 1700.46 3222.13 1692.67 3216.52 1682.19 3206.29 1662.95 3218.96 1638.34 3229.2 1646.63 3232.12 1649.06 3232.61 1653.45 3230.17 1656.61 3229.44 1657.34 3223.59 1665.38 3229.2 1675.62 3238.46 1693.4 3229.2 1712.89 3221.15 1712.89ZM3254.79 1701.93C3248.94 1701.93 3245.53 1695.1 3249.18 1690.23 3249.67 1689.74 3253.81 1684.14 3249.91 1676.83 3240.9 1659.78 3252.35 1638.83 3262.1 1646.63 3265.03 1649.06 3265.51 1653.45 3263.08 1656.61 3262.59 1657.1 3258.45 1662.95 3262.34 1670.01 3269.9 1684.14 3263.08 1701.93 3254.79 1701.93ZM3367.39 1715.08C3359.35 1715.08 3360.32 1706.31 3360.32 1701.68 3360.32 1692.42 3374.46 1692.42 3374.46 1701.68 3374.46 1706.31 3375.68 1715.08 3367.39 1715.08ZM3373.73 1689.01C3365.44 1689.01 3353.99 1690.96 3353.99 1681.95 3353.99 1672.94 3365.44 1674.88 3373.73 1674.88 3382.99 1674.88 3382.99 1689.01 3373.73 1689.01ZM3439.29 1715.08C3431.01 1715.08 3432.23 1706.31 3432.23 1701.68 3432.23 1692.42 3446.36 1692.42 3446.36 1701.68 3446.36 1706.31 3447.34 1715.08 3439.29 1715.08Z" fill="#F05845" fill-rule="evenodd"/></g></svg>