<svg width="590" height="590" xmlns="http://www.w3.org/2000/svg" xmlns:xlink="http://www.w3.org/1999/xlink" xml:space="preserve" overflow="hidden"><g transform="translate(-286 -153)"><path d="M289.271 448.002C289.271 287.007 419.781 156.498 580.771 156.498 741.76 156.498 872.271 287.007 872.271 448.002 872.271 608.989 741.76 739.498 580.771 739.498 419.781 739.498 289.271 608.989 289.271 448.002Z" stroke="#92D050" stroke-width="5.7981" stroke-miterlimit="8" fill="none" fill-rule="evenodd"/><path d="M856.009 447.509C856.009 599.663 733.11 723.009 581.509 723.009 429.907 723.009 307.009 599.663 307.009 447.509 307.009 295.354 429.907 172.008 581.509 172.008 733.11 172.008 856.009 295.354 856.009 447.509Z" fill="#92D050" fill-rule="evenodd"/><path d="M600.285 604.009 484.396 604.009C482.207 604.009 480.434 602.229 480.434 600.034L480.434 492.696C462.784 469.932 455.177 433.607 452.705 418.873 449.128 397.575 451.214 377.498 458.905 359.202 465.853 342.674 477.482 327.872 492.536 316.395 528.27 289.151 578.591 283.21 617.752 301.612 657.982 320.518 681.536 361.62 684.096 417.367 685.3 421.923 701.486 457.496 707.62 470.977 709.579 475.283 710.995 478.394 711.665 479.901 712.212 481.131 712.102 482.555 711.371 483.684 710.641 484.814 709.39 485.496 708.048 485.496L687.187 485.496C686.383 492.304 684.391 507.856 681.332 523.201 678.923 535.274 676.325 544.904 673.609 551.823 671.045 558.349 666.811 566.963 659.565 566.681L604.248 566.681 604.248 600.036C604.246 602.229 602.473 604.009 600.286 604.009ZM488.356 596.06 596.323 596.06 596.323 565.724C593.49 564.717 589.298 562.676 585.362 558.657 579.479 552.652 572.941 540.837 575.198 518.649 575.42 516.466 577.363 514.883 579.541 515.098 581.718 515.322 583.302 517.273 583.079 519.456 579.641 553.27 598.388 558.259 600.638 558.731L659.655 558.731C659.723 558.731 659.794 558.733 659.863 558.736L659.863 558.736C659.953 558.736 666.313 557.969 673.553 521.685 677.541 501.699 679.688 481.31 679.71 481.107 679.921 479.082 681.622 477.546 683.65 477.546L701.901 477.546C701.443 476.539 700.945 475.442 700.414 474.277 679.943 429.285 676.293 420.273 676.195 417.973 673.834 365.2 651.884 326.43 614.392 308.81 577.825 291.628 530.781 297.219 497.329 322.724 467.618 345.375 454.201 379.939 460.517 417.553 462.927 431.914 470.376 467.602 487.475 488.813 488.046 489.52 488.357 490.402 488.357 491.312L488.357 596.06Z" fill="#FEFEFE" fill-rule="evenodd"/><path d="M563.061 424.008 506.815 424.008C499.202 424.008 493.009 417.786 493.009 410.138L493.009 354.209C493.009 352.019 494.776 350.244 496.956 350.244L514.373 350.243C516.138 343.22 522.479 338.008 530.009 338.008 537.539 338.008 543.879 343.22 545.644 350.243L563.061 350.243C565.241 350.243 567.008 352.019 567.008 354.209L567.008 374.891C567.008 377.083 565.241 378.857 563.061 378.857 558.524 378.857 554.832 382.566 554.832 387.126 554.832 391.684 558.524 395.394 563.061 395.394 565.241 395.394 567.008 397.17 567.008 399.36L567.008 420.043C567.008 422.234 565.241 424.008 563.061 424.008ZM500.903 358.174 500.903 410.138C500.903 413.413 503.555 416.077 506.815 416.077L559.113 416.078 559.113 402.834C552.125 401.061 546.937 394.69 546.937 387.126 546.937 379.561 552.125 373.191 559.113 371.417L559.113 358.174 542.186 358.174C540.005 358.174 538.239 356.399 538.239 354.209 538.239 349.649 534.547 345.94 530.009 345.94 525.471 345.94 521.779 349.649 521.779 354.209 521.779 356.399 520.012 358.174 517.832 358.174L500.903 358.174Z" fill="#FEFEFE" fill-rule="evenodd"/><path d="M619.137 424.008 563.208 424.008C561.018 424.008 559.243 422.242 559.243 420.062L559.243 402.643C552.221 400.878 547.009 394.538 547.009 387.008 547.009 379.478 552.221 373.138 559.243 371.373L559.243 353.955C559.243 351.775 561.018 350.008 563.208 350.008L583.892 350.008C586.082 350.008 587.858 351.775 587.858 353.955 587.858 358.494 591.566 362.186 596.126 362.186 600.686 362.186 604.395 358.494 604.395 353.955 604.395 351.775 606.171 350.008 608.36 350.008L629.044 350.008C631.234 350.008 633.008 351.775 633.008 353.955L633.008 410.202C633.008 417.816 626.786 424.008 619.137 424.008ZM567.174 416.115 619.137 416.115C622.412 416.115 625.077 413.462 625.077 410.203L625.077 357.903 611.834 357.903C610.062 364.893 603.691 370.08 596.126 370.08 588.561 370.08 582.19 364.893 580.417 357.903L567.174 357.903 567.174 374.832C567.174 377.012 565.398 378.778 563.208 378.778 558.649 378.778 554.939 382.47 554.939 387.008 554.939 391.546 558.649 395.238 563.208 395.238 565.398 395.238 567.174 397.005 567.174 399.185L567.174 416.115 567.174 416.115Z" fill="#FEFEFE" fill-rule="evenodd"/></g></svg>