<svg width="683" height="683" xmlns="http://www.w3.org/2000/svg" xmlns:xlink="http://www.w3.org/1999/xlink" xml:space="preserve" overflow="hidden"><g transform="translate(-957 -1560)"><path d="M960.943 1901.94C960.943 1715.54 1112.05 1564.44 1298.44 1564.44 1484.84 1564.44 1635.94 1715.54 1635.94 1901.94 1635.94 2088.33 1484.84 2239.44 1298.44 2239.44 1112.05 2239.44 960.943 2088.33 960.943 1901.94Z" stroke="#92D050" stroke-width="6.875" stroke-miterlimit="8" fill="none" fill-rule="evenodd"/><path d="M1623 1901.5C1623 2080.72 1477.72 2226 1298.5 2226 1119.28 2226 974 2080.72 974 1901.5 974 1722.28 1119.28 1577 1298.5 1577 1477.72 1577 1623 1722.28 1623 1901.5Z" fill="#92D050" fill-rule="evenodd"/><path d="M1250.7 1867.29C1242.41 1867.29 1240.94 1855.35 1248.99 1853.16 1249.48 1853.16 1259.48 1850.48 1264.6 1840.24 1268.75 1831.96 1281.43 1838.3 1277.28 1846.58 1269.23 1862.66 1253.14 1867.29 1250.7 1867.29ZM1439.95 2107C1337.77 2107 1235.82 2107 1133.63 2107 1129.73 2107 1126.56 2103.83 1126.56 2099.94L1126.56 2036.35C1126.56 1997.62 1158.27 1965.95 1197.29 1965.95L1226.07 1965.95 1233.14 1938.42C1208.51 1926 1191.43 1900.17 1191.43 1870.7L1191.43 1853.89C1177.04 1828.31 1173.14 1801.27 1180.22 1775.44 1193.14 1728.43 1242.16 1697 1288.5 1697 1343.86 1697 1378.25 1739.88 1403.62 1719.9 1408.01 1716.73 1414.1 1719.17 1415.08 1724.53 1415.57 1726.72 1423.86 1781.05 1382.15 1805.89L1382.15 1870.7C1382.15 1900.17 1365.08 1926 1340.45 1938.42L1347.52 1965.95 1376.54 1965.95C1415.32 1965.95 1447.03 1997.62 1447.03 2036.35L1447.03 2099.94C1447.03 2103.83 1443.86 2107 1439.95 2107ZM1228.75 1980.08 1197.29 1980.08C1166.07 1980.08 1140.71 2005.41 1140.71 2036.35L1140.71 2092.87 1189.24 2092.87 1189.24 2061.2C1189.24 2051.7 1203.38 2051.7 1203.38 2061.2L1203.38 2092.87 1370.45 2092.87 1370.45 2061.2C1370.45 2051.7 1384.59 2051.7 1384.59 2061.2L1384.59 2092.87 1432.88 2092.87 1432.88 2036.35C1432.88 2005.41 1407.52 1980.08 1376.54 1980.08L1344.84 1980.08 1291.92 2032.94C1288.99 2035.87 1284.6 2035.87 1281.92 2032.94ZM1239.48 1970.82 1286.79 2018.08 1334.11 1970.82 1327.28 1943.78C1320.45 1945.73 1313.38 1946.7 1306.06 1946.7L1267.53 1946.7C1260.21 1946.7 1253.14 1945.73 1246.55 1943.78ZM1243.63 1927.7C1252.65 1930.62 1255.82 1932.57 1267.53 1932.57L1306.06 1932.57C1339.72 1932.57 1368.01 1905.29 1368.01 1870.7L1368.01 1805.41C1332.16 1781.29 1310.45 1791.03 1276.79 1813.69 1260.21 1824.65 1247.28 1824.9 1236.8 1824.9 1223.63 1824.9 1216.07 1825.14 1205.58 1853.16L1205.58 1870.7C1205.58 1896.28 1221.43 1918.44 1243.63 1927.7ZM1244.11 2035.13 1213.14 2035.13C1203.87 2035.13 1203.87 2021 1213.14 2021L1244.11 2021C1253.38 2021 1253.38 2035.13 1244.11 2035.13ZM1288.5 1711.13C1229.48 1711.13 1169.97 1767.89 1198.02 1835.13 1218.26 1794.93 1238.5 1822.46 1268.99 1802 1306.3 1776.66 1334.11 1765.7 1375.32 1793.47 1398.49 1779.1 1401.91 1752.06 1401.91 1737.2 1369.47 1749.13 1336.06 1711.13 1288.5 1711.13ZM1141.19 1867.77C1132.66 1867.77 1134.12 1858.27 1134.12 1852.67 1128.76 1852.67 1119 1854.13 1119 1845.85 1119 1837.32 1128.76 1838.78 1134.12 1838.78 1134.12 1833.18 1132.66 1823.68 1141.19 1823.68 1149.73 1823.68 1148.27 1833.18 1148.27 1838.78 1153.88 1838.78 1163.39 1837.32 1163.39 1845.85 1163.39 1854.13 1153.88 1852.67 1148.27 1852.67 1148.27 1858.27 1149.73 1867.77 1141.19 1867.77ZM1443.37 1977.4C1434.83 1977.4 1436.3 1967.9 1436.3 1962.54 1430.69 1962.54 1421.18 1963.76 1421.18 1955.47 1421.18 1946.95 1430.69 1948.41 1436.3 1948.41 1436.3 1942.81 1434.83 1933.3 1443.37 1933.3 1451.9 1933.3 1450.44 1942.81 1450.44 1948.41 1455.81 1948.41 1465.32 1946.95 1465.32 1955.47 1465.32 1964 1455.81 1962.54 1450.44 1962.54 1450.44 1967.9 1451.9 1977.4 1443.37 1977.4ZM1155.1 1956.2C1137.78 1956.2 1123.63 1942.32 1123.63 1924.78 1123.63 1907.48 1137.78 1893.6 1155.1 1893.6 1172.41 1893.6 1186.56 1907.48 1186.56 1924.78 1186.56 1942.32 1172.41 1956.2 1155.1 1956.2ZM1155.1 1907.72C1145.58 1907.72 1137.78 1915.28 1137.78 1924.78 1137.78 1934.52 1145.58 1942.07 1155.1 1942.07 1164.61 1942.07 1172.41 1934.52 1172.41 1924.78 1172.41 1915.28 1164.61 1907.72 1155.1 1907.72ZM1130.46 1776.9C1124.61 1776.9 1121.19 1770.08 1125.1 1765.21 1125.58 1764.72 1130.46 1757.66 1125.83 1748.89 1116.07 1730.62 1128.02 1707.48 1138.02 1715.76 1141.19 1718.19 1141.44 1722.58 1139 1725.75 1138.51 1726.48 1133.63 1733.3 1138.27 1742.07 1147.05 1758.63 1138.27 1776.9 1130.46 1776.9ZM1160.95 1766.92C1155.1 1766.92 1151.68 1760.1 1155.34 1755.22 1155.83 1754.74 1159.24 1750.11 1155.83 1743.77 1147.29 1727.94 1158.51 1707.96 1167.78 1715.76 1170.95 1718.19 1171.19 1722.58 1169 1725.75 1168.51 1726.23 1165.09 1731.11 1168.26 1737.2 1175.34 1750.11 1169.24 1766.92 1160.95 1766.92ZM1410.44 1905.78C1404.59 1905.78 1401.18 1898.95 1405.08 1894.33 1405.57 1893.6 1410.69 1886.77 1405.81 1877.76 1396.3 1859.73 1408.25 1836.59 1418.25 1844.63 1421.18 1847.07 1421.66 1851.69 1419.22 1854.62 1418.49 1855.35 1413.61 1862.17 1418.25 1871.18 1427.27 1887.51 1418.49 1905.78 1410.44 1905.78ZM1440.93 1895.79C1435.08 1895.79 1431.66 1888.97 1435.56 1884.34 1435.81 1883.85 1439.22 1878.98 1436.05 1872.89 1427.52 1856.81 1438.49 1837.08 1448 1844.63 1450.93 1847.07 1451.42 1851.69 1448.98 1854.62 1448.49 1855.1 1445.08 1859.98 1448.49 1866.07 1455.32 1879.22 1449.22 1895.79 1440.93 1895.79ZM1312.65 1900.66C1306.06 1900.66 1307.77 1892.62 1286.79 1892.62 1275.82 1892.62 1268.5 1895.79 1266.55 1898.22 1260.7 1905.29 1249.72 1896.28 1255.58 1889.21 1267.28 1875.08 1306.55 1875.08 1318.01 1889.21 1321.91 1893.84 1318.25 1900.66 1312.65 1900.66ZM1451.66 1805.41C1437.27 1805.41 1425.32 1793.71 1425.32 1779.1 1425.32 1764.72 1437.27 1752.79 1451.66 1752.79 1466.29 1752.79 1478 1764.72 1478 1779.1 1478 1793.71 1466.29 1805.41 1451.66 1805.41ZM1451.66 1766.92C1435.56 1766.92 1435.56 1791.28 1451.66 1791.28 1467.76 1791.28 1467.76 1766.92 1451.66 1766.92ZM1323.13 1867.29C1311.91 1867.29 1285.82 1844.14 1299.48 1837.08 1303.13 1835.37 1307.28 1836.83 1308.99 1840.24 1314.11 1850.48 1324.6 1853.16 1324.6 1853.16 1332.89 1855.35 1331.18 1867.29 1323.13 1867.29Z" fill="#FDFDFD" fill-rule="evenodd"/></g></svg>