<svg width="583" height="584" xmlns="http://www.w3.org/2000/svg" xmlns:xlink="http://www.w3.org/1999/xlink" xml:space="preserve" overflow="hidden"><g transform="translate(-1845 -160)"><path d="M2412.56 452.191C2412.56 604.343 2289.43 727.69 2137.56 727.69 1985.68 727.69 1862.56 604.343 1862.56 452.191 1862.56 300.038 1985.68 176.69 2137.56 176.69 2289.43 176.69 2412.56 300.038 2412.56 452.191Z" fill="#FFFFFF" fill-rule="evenodd"/><path d="M2186.05 297.702C2127.92 297.702 2080.64 345.225 2080.64 403.639 2080.64 462.054 2127.92 509.585 2186.05 509.585 2244.18 509.585 2291.48 462.054 2291.48 403.639 2291.48 345.225 2244.29 297.702 2186.05 297.702ZM2186.05 516.69C2124.06 516.69 2073.56 466.043 2073.56 403.639 2073.56 341.235 2124.06 290.69 2186.05 290.69 2248.04 290.69 2298.56 341.345 2298.56 403.75 2298.56 466.146 2248.04 516.69 2186.05 516.69Z" fill="#F05845" fill-rule="evenodd"/><path d="M2187.06 334.697C2185.16 334.697 2183.56 333.218 2183.56 331.215L2183.56 317.178C2183.56 315.284 2185.05 313.696 2187.06 313.696 2189.07 313.696 2190.56 315.284 2190.56 317.178L2190.56 331.215C2190.45 333.01 2188.87 334.697 2187.06 334.697Z" fill="#F05845" fill-rule="evenodd"/><path d="M2222.98 344.698C2222.45 344.698 2221.82 344.598 2221.3 344.283 2219.61 343.329 2219.08 341.221 2220.03 339.537L2227.09 327.425C2228.04 325.741 2230.15 325.219 2231.83 326.165 2233.51 327.11 2234.04 329.217 2233.1 330.902L2226.15 343.013C2225.19 343.967 2224.04 344.698 2222.98 344.698Z" fill="#F05845" fill-rule="evenodd"/><path d="M2249.07 371.695C2247.8 371.695 2246.64 371.062 2246.01 370.002 2245.06 368.309 2245.69 366.291 2247.28 365.231L2259.38 358.142C2261.07 357.191 2263.07 357.825 2264.12 359.41 2265.07 361.103 2264.44 363.113 2262.86 364.172L2250.75 371.162C2250.33 371.695 2249.8 371.695 2249.07 371.695Z" fill="#F05845" fill-rule="evenodd"/><path d="M2272.89 407.695 2258.19 407.695C2256.2 407.695 2254.54 406.108 2254.54 404.195 2254.54 402.29 2256.09 400.695 2258.19 400.695L2272.89 400.695C2274.89 400.695 2276.54 402.29 2276.54 404.195 2276.54 406.108 2274.77 407.695 2272.89 407.695Z" fill="#F05845" fill-rule="evenodd"/><path d="M2260.93 450.694C2260.38 450.694 2259.71 450.593 2259.15 450.274L2246.36 443.133C2244.59 442.176 2244.04 440.045 2245.03 438.442 2246.03 436.738 2248.26 436.21 2249.92 437.167L2262.71 444.198C2264.49 445.155 2265.05 447.287 2264.05 448.99 2263.38 450.165 2262.16 450.694 2260.93 450.694Z" fill="#F05845" fill-rule="evenodd"/><path d="M2229.05 482.697C2227.79 482.697 2226.62 482.066 2225.99 481.011L2219.01 468.887C2218.06 467.201 2218.69 465.2 2220.27 464.145 2221.97 463.19 2223.98 463.829 2225.04 465.408L2232.12 477.532C2233.07 479.217 2232.43 481.219 2230.85 482.273 2230.22 482.489 2229.58 482.697 2229.05 482.697Z" fill="#F05845" fill-rule="evenodd"/><path d="M2185.06 493.678C2183.16 493.678 2181.56 492.208 2181.56 490.198L2181.56 476.177C2181.56 474.275 2183.16 472.697 2185.06 472.697 2186.97 472.697 2188.56 474.275 2188.56 476.177L2188.56 490.198C2188.56 492.208 2187.07 493.894 2185.06 493.678Z" fill="#F05845" fill-rule="evenodd"/><path d="M2142 481.697C2141.47 481.697 2140.84 481.589 2140.3 481.274 2138.61 480.329 2138.08 478.222 2139.03 476.538L2146.14 464.429C2147.1 462.745 2149.23 462.215 2150.81 463.168 2152.51 464.114 2153.05 466.221 2152.09 467.904L2145.08 480.013C2144.13 481.067 2143.06 481.697 2142 481.697Z" fill="#F05845" fill-rule="evenodd"/><path d="M2123.84 370.696C2123.29 370.696 2122.63 370.588 2122.07 370.271L2109.36 363.185C2107.59 362.236 2107.04 360.121 2108.03 358.431 2109.03 356.741 2111.24 356.216 2113.01 357.166L2125.72 364.243C2127.49 365.2 2128.05 367.315 2127.05 369.006 2126.39 370.163 2125.28 370.696 2123.84 370.696Z" fill="#F05845" fill-rule="evenodd"/><path d="M2150.15 343.697C2148.89 343.697 2147.72 343.058 2147.09 342.003L2140.01 329.882C2139.05 328.196 2139.7 326.196 2141.28 325.141 2142.97 324.195 2144.97 324.826 2146.03 326.403L2153.12 338.525C2154.07 340.218 2153.43 342.219 2151.85 343.274 2151.43 343.697 2150.79 343.697 2150.15 343.697Z" fill="#F05845" fill-rule="evenodd"/><path d="M2186.06 407.688C2184.16 407.688 2182.56 406.169 2182.56 404.113L2182.56 350.264C2182.56 348.318 2184.05 346.688 2186.06 346.688 2187.97 346.688 2189.56 348.318 2189.56 350.264L2189.56 404.113C2189.56 406.058 2187.97 407.688 2186.06 407.688Z" fill="#F05845" fill-rule="evenodd"/><path d="M2197.19 363.696C2196.32 363.696 2195.46 363.38 2194.71 362.748L2186.09 354.83 2177.47 362.748C2176.07 364.012 2173.81 364.012 2172.52 362.64 2171.22 361.268 2171.22 359.055 2172.62 357.783L2183.61 347.644C2184.91 346.38 2187.06 346.38 2188.46 347.644L2199.44 357.783C2200.85 359.055 2200.96 361.268 2199.56 362.64 2198.91 363.38 2198.15 363.696 2197.19 363.696Z" fill="#F05845" fill-rule="evenodd"/><path d="M2153.13 426.691C2151.83 426.691 2150.66 426.049 2150.01 424.975 2149.04 423.25 2149.69 421.213 2151.3 420.14L2184.26 401.144C2185.99 400.18 2188.03 400.823 2189.1 402.437 2190.07 404.153 2189.42 406.191 2187.81 407.265L2154.95 426.26C2154.52 426.471 2153.77 426.691 2153.13 426.691Z" fill="#F05845" fill-rule="evenodd"/><path d="M2167.1 430.693C2166.78 430.693 2166.47 430.593 2166.05 430.593L2152.06 426.216C2150.38 425.687 2149.24 423.873 2149.66 422.059L2153 407.452C2153.42 405.529 2155.29 404.353 2157.17 404.781 2159.05 405.209 2160.2 407.133 2159.78 409.048L2157.17 420.354 2168.14 423.655C2169.91 424.192 2170.95 426.216 2170.44 428.031 2170.02 429.627 2168.66 430.693 2167.1 430.693Z" fill="#F05845" fill-rule="evenodd"/><path d="M2186.05 320.772C2139.99 320.772 2102.67 357.994 2102.67 403.691 2102.67 449.389 2140.1 486.611 2186.05 486.611 2232 486.611 2269.43 449.389 2269.43 403.691 2269.43 357.994 2232.11 320.772 2186.05 320.772ZM2186.05 493.692C2136.11 493.692 2095.55 453.36 2095.55 403.691 2095.55 354.023 2136.11 313.691 2186.05 313.691 2235.99 313.691 2276.55 354.023 2276.55 403.691 2276.55 453.36 2235.99 493.692 2186.05 493.692Z" fill="#F05845" fill-rule="evenodd"/><path d="M2113.89 406.695 2099.19 406.695C2097.2 406.695 2095.54 405.208 2095.54 403.195 2095.54 401.282 2097.09 399.695 2099.19 399.695L2113.89 399.695C2115.89 399.695 2117.54 401.182 2117.54 403.195 2117.44 405.317 2115.77 406.695 2113.89 406.695Z" fill="#F05845" fill-rule="evenodd"/><path d="M2110.23 449.696C2108.9 449.696 2107.68 449.062 2107.01 448.003 2106.01 446.309 2106.68 444.299 2108.34 443.24L2121.09 436.142C2122.86 435.191 2124.96 435.825 2126.07 437.418 2127.07 439.111 2126.4 441.121 2124.74 442.072L2112 449.17C2111.45 449.595 2110.78 449.696 2110.23 449.696Z" fill="#F05845" fill-rule="evenodd"/><path d="M2190.27 613.69 2086.91 613.69C2085.3 613.69 2083.9 612.612 2083.58 611 2078.96 592.903 2068.84 586.87 2049.59 590.747 2027.33 595.159 2013.35 594.413 2006.67 588.38 2004.42 586.327 2001.84 582.449 2002.38 576.094 2002.38 575.772 2002.48 575.56 2002.48 575.339 2005.39 566.617 2005.5 560.907 2002.8 559.507 2002.59 559.405 2002.38 559.295 2002.27 559.184 1997.75 555.629 1995.17 551.752 1994.85 547.764 1994.63 545.719 1994.96 543.674 1995.81 541.842 1994.2 540.874 1993.02 539.686 1992.16 538.185 1990.43 535.054 1990.54 531.075 1992.48 526.221 1993.66 522.242 1993.13 521.054 1992.91 520.732 1992.37 519.866 1990.01 519.442 1987.96 519.111 1986.67 518.899 1985.27 518.576 1983.87 518.254 1979.68 517.066 1977.96 514.487 1977.21 512.332 1974.73 505.434 1979.25 493.691 1991.62 475.381 1995.92 468.381 1996.24 462.561 1992.8 457.605 1992.58 457.503 1992.58 457.503 1992.58 457.503 1979.46 435.418 1988.07 404.288 2002.38 383.288 2014.09 366.047 2029.26 352.802 2047.12 343.859 2063.47 335.782 2082.18 331.582 2101.11 331.692 2103.04 331.692 2104.66 333.304 2104.66 335.247 2104.66 337.182 2103.04 338.802 2101.11 338.802 2100.89 338.802 2100.68 338.802 2100.47 338.802 2062.72 338.802 2029.05 356.468 2008.07 387.267 1995.06 406.332 1987.1 434.34 1998.51 453.838 2003.56 461.16 2003.23 469.781 1997.43 479.258 1997.32 479.368 1997.32 479.368 1997.32 479.368 1982.69 501.022 1982.91 508.022 1983.55 510.066 1983.76 510.609 1984.09 511.254 1985.48 511.577 1986.56 511.899 1987.86 512.111 1989.03 512.332 1992.58 512.976 1996.57 513.732 1998.72 517.177 2000.44 519.866 2000.44 523.531 1999.04 528.597 1999.04 528.699 1998.93 528.809 1998.93 528.919 1997.85 531.719 1997.64 533.875 1998.18 535.054 1998.72 536.131 2000.33 536.564 2001.51 536.785 2002.8 536.997 2003.67 537.854 2004.2 539.042 2004.63 540.229 2004.42 541.519 2003.67 542.486 2002.27 544.209 2001.62 545.829 2001.73 547.34 2001.95 549.274 2003.45 551.54 2006.25 553.796 2015.17 558.751 2010.87 572.437 2009.15 577.605 2008.93 581.16 2010.22 582.67 2011.09 583.637 2014.42 586.547 2023.46 589.127 2047.76 584.282 2069.7 579.972 2083.25 587.404 2089.28 607.123L2184.68 607.123C2179.52 594.413 2175.75 581.482 2173.5 569.417 2169.19 546.364 2177.8 532.687 2187.47 516.744 2188.66 514.911 2189.85 512.976 2191.02 511.034 2192.1 509.311 2194.14 508.878 2195.86 509.854 2197.59 510.932 2198.01 512.976 2197.05 514.699 2195.86 516.633 2194.68 518.576 2193.5 520.52 2184.04 535.809 2176.61 547.874 2180.38 568.127 2182.85 581.16 2187.15 595.38 2193.18 609.269 2193.61 610.347 2193.5 611.645 2192.85 612.612 2192.53 613.147 2191.46 613.69 2190.27 613.69Z" fill="#F05845" fill-rule="evenodd"/><path d="M1848.66 452.338C1848.66 293.004 1977.6 163.839 2136.67 163.839 2295.72 163.839 2424.67 293.004 2424.67 452.338 2424.67 611.673 2295.72 740.84 2136.67 740.84 1977.6 740.84 1848.66 611.673 1848.66 452.338Z" stroke="#F15A45" stroke-width="5.73855" stroke-miterlimit="8" fill="none" fill-rule="evenodd"/></g></svg>