<svg width="684" height="683" xmlns="http://www.w3.org/2000/svg" xmlns:xlink="http://www.w3.org/1999/xlink" xml:space="preserve" overflow="hidden"><g transform="translate(-2044 -954)"><g><g><g><path d="M649 324.5C649 503.716 503.716 649 324.5 649 145.284 649-1.06952e-05 503.716-1.06952e-05 324.5-1.06952e-05 145.284 145.284-1.06952e-05 324.5-1.06952e-05 503.716-1.06952e-05 649 145.284 649 324.5Z" fill="#F05845" fill-rule="evenodd" transform="matrix(1.00154 0 0 1 2061 971)"/><path d="M377.48 532.18 341.179 532.175C338.041 532.175 335.7 529.191 336.45 526.142 348.46 477.418 366.516 403.361 367.298 398.036 367.478 395.507 369.583 393.509 372.155 393.509L388.376 393.512C390.652 393.512 392.618 395.086 393.122 397.301L405.014 449.646C406.087 454.382 390.494 475.597 388.554 481.38L382.304 527.957C381.98 530.376 379.917 532.182 377.48 532.182ZM347.387 522.445 373.221 522.445C373.954 516.991 378.503 479.394 379.615 477.413L395.103 449.967 384.49 403.247 376.108 403.247C372.559 419.726 359.271 474.171 347.387 522.442Z" fill="#FEFEFE" fill-rule="evenodd" transform="matrix(1.00154 0 0 1 2061 971)"/><path d="M270.412 532.18C267.974 532.18 265.91 530.374 265.589 527.957L259.341 481.382C257.401 475.6 241.806 454.385 242.879 449.649L254.77 397.303C255.274 395.089 257.246 393.514 259.516 393.514L275.74 393.514C278.31 393.514 280.417 395.512 280.597 398.041 281.376 403.368 299.44 477.425 311.44 526.146 312.193 529.198 309.856 532.18 306.714 532.18ZM252.787 449.97C254.924 453.757 268.584 477.065 268.864 479.163L274.669 522.447 300.498 522.447C288.614 474.178 275.331 419.728 271.778 403.251L263.398 403.251 252.787 449.972Z" fill="#FEFEFE" fill-rule="evenodd" transform="matrix(1.00154 0 0 1 2061 971)"/><path d="M323.821 442.53C307.539 442.53 291.255 436.923 277.935 425.7 273.053 421.585 279.332 414.145 284.207 418.256 307.306 437.728 340.745 437.621 363.72 418.007 365.762 416.26 368.841 416.511 370.581 418.553 372.323 420.594 372.082 423.671 370.036 425.416 356.677 436.823 340.246 442.532 323.819 442.532Z" fill="#FEFEFE" fill-rule="evenodd" transform="matrix(1.00154 0 0 1 2061 971)"/><path d="M372.153 403.249C370.824 403.249 369.498 402.709 368.539 401.64 357.884 389.832 356.319 373.793 356.884 362.415 357.202 355.973 366.925 356.514 366.609 362.897 365.1 393.429 382.664 395.476 375.419 401.993 374.482 402.83 373.316 403.247 372.153 403.247Z" fill="#FEFEFE" fill-rule="evenodd" transform="matrix(1.00154 0 0 1 2061 971)"/><path d="M322.857 382.484C301.978 382.484 292.752 373.027 277.694 362.754 259.076 350.045 248.567 342.868 247.951 312.356 218.707 295.791 221.082 273.282 240.372 256.815 240.75 231.294 247.355 213.689 260.534 203.043 261.794 202.024 263.478 201.702 265.029 202.179 306.493 214.957 341.636 214.874 383.051 202.179 384.607 201.707 386.283 202.026 387.546 203.043 404.911 217.074 407.469 241.538 407.562 259.713 427.402 275.08 428.533 296.227 399.939 312.356 399.199 348.952 383.343 352.878 358.923 370.627 348.402 378.274 335.596 382.484 322.855 382.484ZM264.751 212.27C254.892 221.508 250.09 236.885 250.09 259.161 250.09 264.948 234.629 269.896 235.704 284.253 236.259 291.669 242.77 298.697 255.048 305.142 256.649 305.984 257.654 307.644 257.654 309.45 257.654 344.357 270.378 344.683 297.003 364.457 313.555 376.75 336.747 374.713 353.201 362.754 378.364 344.469 390.231 343.415 390.231 309.452 390.231 307.644 391.236 305.984 392.837 305.142 401.453 300.622 411.806 293.406 412.217 284.713 412.838 271.61 397.785 268.149 397.822 262.174 397.919 246.535 396.476 224.699 383.319 212.28 342.342 224.524 305.772 224.529 264.749 212.27Z" fill="#FEFEFE" fill-rule="evenodd" transform="matrix(1.00154 0 0 1 2061 971)"/><path d="M474.943 532.18 172.699 532.18C170.012 532.18 167.832 529.997 167.832 527.312L167.832 463.392C167.832 424.861 199.179 393.509 237.71 393.509L275.482 393.512C281.89 393.512 281.89 403.247 275.482 403.247L237.71 403.247C204.547 403.247 177.567 430.222 177.567 463.39L177.567 522.442 470.075 522.442 470.075 463.39C470.075 430.222 443.099 403.247 409.932 403.247L372.155 403.247C365.747 403.247 365.75 393.512 372.155 393.512L409.932 393.512C448.463 393.512 479.815 424.858 479.815 463.394L479.815 527.315C479.813 530.002 477.632 532.182 474.945 532.182Z" fill="#FEFEFE" fill-rule="evenodd" transform="matrix(1.00154 0 0 1 2061 971)"/><path d="M402.697 267.063C398.34 267.063 396.157 261.716 399.333 258.682 414.895 243.794 413.023 209.247 412.602 203.589 402.28 181.006 407.63 164.76 411.005 157.97 395.137 142.472 355.786 147.87 341.3 151.46 336.184 152.74 332.994 146.001 337.209 142.84L351.554 132.08C283.418 122.036 204.652 199.446 249.049 256.165 252.984 261.191 245.32 267.19 241.387 262.164 188.616 194.737 285.355 102.522 364.341 124.886 368.205 125.981 369.147 131.05 365.932 133.465L359.02 138.646C378.663 136.563 407.438 137.02 420.816 154.395 425.837 160.91 407.092 169.017 421.777 200.254 423.004 202.866 426.046 246.613 406.055 265.722 405.116 266.62 403.904 267.066 402.694 267.066Z" fill="#FEFEFE" fill-rule="evenodd" transform="matrix(1.00154 0 0 1 2061 971)"/><path d="M275.737 403.249C271.563 403.249 269.293 398.262 272.128 395.118 287.894 377.636 275.567 358.288 285.91 357.794 288.587 357.667 290.88 359.733 291.012 362.413 291.574 373.796 290.006 389.834 279.354 401.638 278.392 402.704 277.066 403.247 275.74 403.247Z" fill="#FEFEFE" fill-rule="evenodd" transform="matrix(1.00154 0 0 1 2061 971)"/><path d="M487.708 222.759C472.248 222.759 466.651 212.92 460.659 202.542 457.459 197 465.87 192.118 469.089 197.672L473.105 204.625C484.281 223.988 513.223 206.879 502.22 187.815 498.647 181.629 493.794 182.118 494.69 177.175 495.459 172.933 499.341 173.658 503.201 171.429 522.357 160.365 505.554 131.252 486.386 142.311 482.519 144.546 481.217 148.272 477.155 146.809 471.129 144.641 476.719 131.216 461.499 127.137 447.064 123.27 435.122 138.843 442.591 151.779 445.263 156.405 450.167 162.29 444.83 165.381 439.48 168.477 436.828 161.258 434.165 156.646 422.361 136.195 441.264 111.636 464.027 117.738 472.202 119.928 478.798 125.823 481.869 133.694 494.498 126.65 510.536 131.043 517.789 143.604 525.044 156.169 520.821 172.259 508.412 179.667 522.304 197.076 509.777 222.762 487.705 222.762Z" fill="#FEFEFE" fill-rule="evenodd" transform="matrix(1.00154 0 0 1 2061 971)"/><path d="M412.351 192.014C407.873 192.014 405.753 186.414 409.165 183.464L446.881 150.856C451.729 146.663 458.091 154.03 453.246 158.218L415.53 190.826C414.615 191.619 413.478 192.014 412.351 192.014Z" fill="#FEFEFE" fill-rule="evenodd" transform="matrix(1.00154 0 0 1 2061 971)"/><path d="M417.689 221.45C412.256 221.45 410.93 213.776 416.094 211.983L472.903 192.252C478.958 190.147 482.151 199.347 476.096 201.452 469.691 203.679 419.791 221.452 417.689 221.452Z" fill="#FEFEFE" fill-rule="evenodd" transform="matrix(1.00154 0 0 1 2061 971)"/><path d="M161.283 222.759C139.104 222.759 126.731 196.901 140.586 179.66 120.495 167.669 124.771 137.278 147.33 131.228 154.054 129.422 161.071 130.298 167.131 133.686 176.533 109.845 210.892 111.914 217.485 136.5 220.576 148.033 215.918 154.782 210.817 163.595 207.604 169.144 199.186 164.271 202.389 158.727 206.266 152.012 210.235 147.045 208.084 139.019 203.133 120.554 176.031 123.669 175.058 142.475 174.836 146.78 169.509 148.676 166.608 145.509 154.797 132.613 133.428 144.283 137.965 161.21 141.63 174.882 153.161 170.859 154.305 177.16 155.446 183.449 141.014 185.335 145.093 200.556 148.948 214.942 168.411 217.556 175.885 204.608 178.565 199.97 181.2 192.792 186.55 195.876 191.899 198.96 186.985 204.849 184.316 209.481 179.407 217.999 170.468 222.759 161.283 222.759Z" fill="#FEFEFE" fill-rule="evenodd" transform="matrix(1.00154 0 0 1 2061 971)"/><path d="M238.766 193.849C237.637 193.849 236.505 193.459 235.585 192.661L195.745 158.216C190.894 154.025 197.266 146.665 202.114 150.854L241.952 185.299C245.366 188.251 243.237 193.849 238.766 193.849Z" fill="#FEFEFE" fill-rule="evenodd" transform="matrix(1.00154 0 0 1 2061 971)"/><path d="M231.331 221.462C229.343 221.462 179.224 203.649 172.899 201.452 166.853 199.349 170.027 190.147 176.092 192.252L232.928 211.992C238.085 213.786 236.768 221.462 231.331 221.462Z" fill="#FEFEFE" fill-rule="evenodd" transform="matrix(1.00154 0 0 1 2061 971)"/><path d="M301.613 277.511C298.936 277.511 275.182 263.878 270.979 261.604 265.335 258.555 269.964 249.988 275.611 253.038L303.932 268.356C308.367 270.753 306.631 277.509 301.613 277.509Z" fill="#FEFEFE" fill-rule="evenodd" transform="matrix(1.00154 0 0 1 2061 971)"/><path d="M346.285 277.511C341.269 277.511 339.531 270.76 343.965 268.361L372.287 253.042C377.911 249.991 382.555 258.555 376.913 261.609 372.718 263.88 348.957 277.514 346.282 277.514Z" fill="#FEFEFE" fill-rule="evenodd" transform="matrix(1.00154 0 0 1 2061 971)"/><path d="M341.103 339.054 306.794 339.054C290.262 339.054 290.255 313.923 306.794 313.923L341.103 313.925C357.645 313.925 357.643 339.056 341.103 339.056ZM306.794 323.658C303.078 323.658 303.078 329.316 306.794 329.316L341.103 329.316C344.817 329.316 344.819 323.655 341.103 323.655Z" fill="#FEFEFE" fill-rule="evenodd" transform="matrix(1.00154 0 0 1 2061 971)"/></g></g></g><path d="M2047.94 1295.94C2047.94 1109.54 2199.27 958.436 2385.94 958.436 2572.62 958.436 2723.94 1109.54 2723.94 1295.94 2723.94 1482.33 2572.62 1633.44 2385.94 1633.44 2199.27 1633.44 2047.94 1482.33 2047.94 1295.94Z" stroke="#F05845" stroke-width="6.875" stroke-miterlimit="8" fill="none" fill-rule="evenodd"/></g></svg>