<svg width="684" height="683" xmlns="http://www.w3.org/2000/svg" xmlns:xlink="http://www.w3.org/1999/xlink" xml:space="preserve" overflow="hidden"><g transform="translate(-2189 -1560)"><path d="M2192.94 1901.94C2192.94 1715.54 2344.27 1564.44 2530.94 1564.44 2717.62 1564.44 2868.94 1715.54 2868.94 1901.94 2868.94 2088.33 2717.62 2239.44 2530.94 2239.44 2344.27 2239.44 2192.94 2088.33 2192.94 1901.94Z" stroke="#92D050" stroke-width="6.875" stroke-miterlimit="8" fill="none" fill-rule="evenodd"/><path d="M2856 1901.5C2856 2080.72 2710.49 2226 2531 2226 2351.51 2226 2206 2080.72 2206 1901.5 2206 1722.28 2351.51 1577 2531 1577 2710.49 1577 2856 1722.28 2856 1901.5Z" fill="#92D050" fill-rule="evenodd"/><path d="M2580.39 1875.01C2572.1 1875.01 2560.89 1876.96 2560.89 1867.95 2560.89 1858.94 2572.1 1860.88 2580.39 1860.88 2589.89 1860.88 2589.89 1875.01 2580.39 1875.01ZM2691.28 2133C2589.4 2133 2487.28 2133 2385.4 2133 2381.5 2133 2378.33 2129.83 2378.33 2125.94L2378.33 2062.35C2378.33 2023.62 2409.77 1991.95 2448.77 1991.95L2477.78 1991.95 2484.84 1964.42C2459.98 1952 2443.17 1926.17 2443.17 1896.7L2443.17 1879.89C2428.54 1854.31 2424.64 1827.27 2431.71 1801.44 2444.87 1754.43 2493.86 1723 2539.93 1723 2595.25 1723 2629.62 1765.88 2655.21 1745.9 2659.36 1742.73 2665.69 1745.17 2666.42 1750.53 2666.91 1752.72 2675.2 1807.05 2633.52 1831.89L2633.52 1896.7C2633.52 1926.17 2616.7 1952 2591.84 1964.42L2598.91 1991.95 2627.91 1991.95C2666.67 1991.95 2698.35 2023.62 2698.35 2062.35L2698.35 2125.94C2698.35 2129.83 2695.18 2133 2691.28 2133ZM2480.21 2006.08 2448.77 2006.08C2417.57 2006.08 2392.47 2031.41 2392.47 2062.35L2392.47 2118.87 2440.73 2118.87 2440.73 2087.2C2440.73 2077.7 2454.87 2077.7 2454.87 2087.2L2454.87 2118.87 2621.82 2118.87 2621.82 2087.2C2621.82 2077.7 2635.96 2077.7 2635.96 2087.2L2635.96 2118.87 2684.22 2118.87 2684.22 2062.35C2684.22 2031.41 2659.11 2006.08 2627.91 2006.08L2596.47 2006.08 2543.34 2058.94C2540.66 2061.87 2536.03 2061.87 2533.35 2058.94ZM2490.94 1996.82 2538.22 2044.08 2585.5 1996.82 2578.68 1969.78C2571.86 1971.73 2564.79 1972.7 2557.48 1972.7L2519.21 1972.7C2511.9 1972.7 2504.59 1971.73 2498.01 1969.78ZM2495.08 1953.7C2495.57 1953.94 2495.81 1953.94 2496.3 1954.19 2503.37 1957.11 2511.17 1958.57 2519.21 1958.57L2557.48 1958.57C2591.11 1958.57 2619.38 1931.29 2619.38 1896.7L2619.38 1831.41C2583.55 1807.29 2561.86 1817.03 2528.47 1839.69 2511.9 1850.65 2498.74 1850.9 2488.26 1850.9 2475.09 1850.9 2467.78 1851.14 2457.3 1879.16L2457.3 1896.7C2457.3 1922.28 2472.9 1944.44 2495.08 1953.7ZM2495.81 2061.13 2464.61 2061.13C2455.35 2061.13 2455.35 2047 2464.61 2047L2495.81 2047C2505.07 2047 2505.07 2061.13 2495.81 2061.13ZM2539.93 1737.13C2480.94 1737.13 2421.47 1793.89 2449.5 1861.13 2469.73 1820.93 2489.96 1848.46 2520.43 1828 2557.72 1802.66 2585.5 1791.7 2626.94 1819.47 2650.34 1804.85 2653.51 1778.06 2653.26 1763.2 2621.09 1775.13 2587.45 1737.13 2539.93 1737.13ZM2561.13 1938.84 2513.85 1926.42C2504.83 1923.98 2508.49 1910.34 2517.5 1912.77L2562.84 1924.95C2570.88 1927.15 2569.17 1938.84 2561.13 1938.84ZM2370.05 1797.3C2349.57 1797.3 2333 1780.49 2333 1760.03 2333 1739.57 2349.57 1723 2370.05 1723 2390.52 1723 2407.09 1739.57 2407.09 1760.03 2407.09 1780.49 2390.52 1797.3 2370.05 1797.3ZM2370.05 1737.13C2357.37 1737.13 2347.14 1747.36 2347.14 1760.03 2347.14 1772.7 2357.37 1783.17 2370.05 1783.17 2382.72 1783.17 2392.96 1772.7 2392.96 1760.03 2392.96 1747.36 2382.72 1737.13 2370.05 1737.13ZM2670.32 1960.77C2654.97 1960.77 2642.54 1948.34 2642.54 1933.24 2642.54 1917.89 2654.97 1905.47 2670.32 1905.47 2685.68 1905.47 2698.11 1917.89 2698.11 1933.24 2698.11 1948.34 2685.68 1960.77 2670.32 1960.77ZM2670.32 1919.6C2652.53 1919.6 2652.53 1946.64 2670.32 1946.64 2688.12 1946.64 2688.12 1919.6 2670.32 1919.6ZM2381.99 1988.05C2368.1 1988.05 2357.13 1976.84 2357.13 1963.2 2357.13 1949.32 2368.1 1938.35 2381.99 1938.35 2395.64 1938.35 2406.85 1949.32 2406.85 1963.2 2406.85 1976.84 2395.64 1988.05 2381.99 1988.05ZM2381.99 1952.48C2367.85 1952.48 2367.85 1973.92 2381.99 1973.92 2396.13 1973.92 2396.13 1952.48 2381.99 1952.48ZM2692.75 1785.36C2684.7 1785.36 2683 1773.67 2691.04 1771.48L2714.93 1765.14C2723.94 1762.71 2727.6 1776.35 2718.58 1778.79ZM2381.01 1923.01C2372.73 1923.01 2371.27 1911.31 2379.06 1909.12L2402.95 1902.79C2411.97 1900.35 2415.62 1913.99 2406.61 1916.43ZM2719.31 1995.6 2693.48 1989.02C2684.46 1986.59 2688.12 1972.95 2697.13 1975.38L2721.02 1981.72C2729.06 1983.91 2727.36 1995.6 2719.31 1995.6ZM2720.53 1898.89C2712.49 1898.89 2702.98 1879.4 2712.49 1861.62 2718.34 1850.9 2711.76 1842.61 2711.51 1842.61 2705.66 1835.55 2716.63 1826.54 2722.48 1833.6 2722.97 1834.33 2735.16 1849.43 2724.92 1868.19 2719.31 1878.91 2725.89 1887.19 2725.89 1887.44 2729.79 1892.07 2726.38 1898.89 2720.53 1898.89ZM2686.9 1887.68C2678.61 1887.68 2671.79 1870.14 2679.34 1856.01 2683.48 1848.46 2678.85 1842.61 2678.61 1842.61 2672.76 1835.55 2683.73 1826.54 2689.58 1833.6 2693.72 1838.47 2698.6 1850.17 2691.77 1862.83 2687.87 1870.14 2692.02 1875.74 2692.5 1876.23 2696.16 1881.1 2692.5 1887.68 2686.9 1887.68ZM2356.15 1898.89C2350.3 1898.89 2346.89 1892.07 2350.55 1887.44 2351.28 1886.46 2357.13 1878.67 2351.52 1868.19 2341.29 1848.95 2353.96 1824.34 2364.2 1832.63 2367.12 1835.06 2367.61 1839.45 2365.17 1842.61 2364.44 1843.34 2358.59 1851.38 2364.2 1861.62 2373.46 1879.4 2364.2 1898.89 2356.15 1898.89ZM2389.79 1887.93C2383.94 1887.93 2380.53 1881.1 2384.18 1876.23 2384.67 1875.74 2388.81 1870.14 2384.91 1862.83 2375.9 1845.78 2387.35 1824.83 2397.1 1832.63 2400.03 1835.06 2400.51 1839.45 2398.08 1842.61 2397.59 1843.1 2393.45 1848.95 2397.34 1856.01 2404.9 1870.14 2398.08 1887.93 2389.79 1887.93ZM2502.39 1901.08C2494.35 1901.08 2495.32 1892.31 2495.32 1887.68 2495.32 1878.42 2509.46 1878.42 2509.46 1887.68 2509.46 1892.31 2510.68 1901.08 2502.39 1901.08ZM2508.73 1875.01C2500.44 1875.01 2488.99 1876.96 2488.99 1867.95 2488.99 1858.94 2500.44 1860.88 2508.73 1860.88 2517.99 1860.88 2517.99 1875.01 2508.73 1875.01ZM2574.29 1901.08C2566.01 1901.08 2567.23 1892.31 2567.23 1887.68 2567.23 1878.42 2581.36 1878.42 2581.36 1887.68 2581.36 1892.31 2582.34 1901.08 2574.29 1901.08Z" fill="#FDFDFD" fill-rule="evenodd"/></g></svg>