<svg width="684" height="684" xmlns="http://www.w3.org/2000/svg" xmlns:xlink="http://www.w3.org/1999/xlink" xml:space="preserve" overflow="hidden"><g transform="translate(-216 -1405)"><path d="M219.942 1747.44C219.942 1560.76 371.27 1409.44 557.943 1409.44 744.615 1409.44 895.943 1560.76 895.943 1747.44 895.943 1934.11 744.615 2085.44 557.943 2085.44 371.27 2085.44 219.942 1934.11 219.942 1747.44Z" stroke="#F05845" stroke-width="6.875" stroke-miterlimit="8" fill="none" fill-rule="evenodd"/><path d="M883 1747.5C883 1926.72 737.492 2072 558 2072 378.508 2072 233 1926.72 233 1747.5 233 1568.28 378.508 1423 558 1423 737.492 1423 883 1568.28 883 1747.5Z" fill="#FFFFFF" fill-rule="evenodd"/><path d="M510.332 1712.29C502.063 1712.29 500.604 1700.35 508.629 1698.16 509.116 1698.16 519.087 1695.48 524.195 1685.24 528.329 1676.96 540.976 1683.3 536.841 1691.58 528.815 1707.66 512.764 1712.29 510.332 1712.29ZM699.06 1952C597.156 1952 495.496 1952 393.593 1952 389.701 1952 386.539 1948.83 386.539 1944.94L386.539 1881.35C386.539 1842.62 418.156 1810.95 457.07 1810.95L485.768 1810.95 492.821 1783.42C468.257 1771 451.233 1745.17 451.233 1715.7L451.233 1698.89C436.883 1673.31 432.992 1646.27 440.045 1620.44 452.935 1573.43 501.819 1542 548.029 1542 603.237 1542 637.529 1584.88 662.822 1564.9 667.2 1561.73 673.28 1564.17 674.253 1569.53 674.739 1571.72 683.009 1626.05 641.42 1650.89L641.42 1715.7C641.42 1745.17 624.396 1771 599.832 1783.42L606.885 1810.95 635.826 1810.95C674.496 1810.95 706.113 1842.62 706.113 1881.35L706.113 1944.94C706.113 1948.83 702.951 1952 699.06 1952ZM488.443 1825.08 457.07 1825.08C425.939 1825.08 400.645 1850.41 400.645 1881.35L400.645 1937.87 449.044 1937.87 449.044 1906.2C449.044 1896.7 463.15 1896.7 463.15 1906.2L463.15 1937.87 629.746 1937.87 629.746 1906.2C629.746 1896.7 643.852 1896.7 643.852 1906.2L643.852 1937.87 692.007 1937.87 692.007 1881.35C692.007 1850.41 666.714 1825.08 635.826 1825.08L604.21 1825.08 551.434 1877.94C548.515 1880.87 544.138 1880.87 541.462 1877.94ZM499.144 1815.82 546.326 1863.08 593.509 1815.82 586.699 1788.78C579.889 1790.73 572.836 1791.7 565.54 1791.7L527.113 1791.7C519.817 1791.7 512.764 1790.73 506.197 1788.78ZM503.279 1772.7C512.277 1775.62 515.439 1777.57 527.113 1777.57L565.54 1777.57C599.102 1777.57 627.314 1750.29 627.314 1715.7L627.314 1650.41C591.563 1626.29 569.917 1636.03 536.355 1658.69 519.817 1669.65 506.927 1669.9 496.469 1669.9 483.336 1669.9 475.796 1670.14 465.338 1698.16L465.338 1715.7C465.338 1741.28 481.147 1763.44 503.279 1772.7ZM503.765 1880.13 472.878 1880.13C463.636 1880.13 463.636 1866.01 472.878 1866.01L503.765 1866.01C513.007 1866.01 513.007 1880.13 503.765 1880.13ZM548.029 1556.13C489.173 1556.13 429.83 1612.89 457.799 1680.13 477.985 1639.93 498.172 1667.46 528.572 1647 565.783 1621.66 593.509 1610.7 634.61 1638.47 657.715 1624.1 661.12 1597.06 661.12 1582.2 628.773 1594.13 595.454 1556.13 548.029 1556.13ZM401.132 1712.77C392.62 1712.77 394.079 1703.27 394.079 1697.67 388.729 1697.67 379 1699.13 379 1690.85 379 1682.32 388.729 1683.78 394.079 1683.78 394.079 1678.18 392.62 1668.68 401.132 1668.68 409.644 1668.68 408.185 1678.18 408.185 1683.78 413.779 1683.78 423.264 1682.32 423.264 1690.85 423.264 1699.13 413.779 1697.67 408.185 1697.67 408.185 1703.27 409.644 1712.77 401.132 1712.77ZM702.465 1822.4C693.953 1822.4 695.412 1812.9 695.412 1807.54 689.818 1807.54 680.333 1808.76 680.333 1800.47 680.333 1791.95 689.818 1793.41 695.412 1793.41 695.412 1787.81 693.953 1778.3 702.465 1778.3 710.977 1778.3 709.518 1787.81 709.518 1793.41 714.869 1793.41 724.353 1791.95 724.353 1800.47 724.353 1809 714.869 1807.54 709.518 1807.54 709.518 1812.9 710.977 1822.4 702.465 1822.4ZM414.995 1801.2C397.727 1801.2 383.621 1787.32 383.621 1769.78 383.621 1752.48 397.727 1738.6 414.995 1738.6 432.263 1738.6 446.369 1752.48 446.369 1769.78 446.369 1787.32 432.263 1801.2 414.995 1801.2ZM414.995 1752.73C405.51 1752.73 397.727 1760.28 397.727 1769.78 397.727 1779.52 405.51 1787.07 414.995 1787.07 424.48 1787.07 432.263 1779.52 432.263 1769.78 432.263 1760.28 424.48 1752.73 414.995 1752.73ZM390.431 1621.9C384.594 1621.9 381.189 1615.08 385.08 1610.21 385.567 1609.72 390.431 1602.66 385.81 1593.89 376.082 1575.62 387.999 1552.48 397.97 1560.76 401.132 1563.19 401.375 1567.58 398.943 1570.75 398.457 1571.48 393.593 1578.3 398.213 1587.07 406.969 1603.63 398.213 1621.9 390.431 1621.9ZM420.832 1611.92C414.995 1611.92 411.59 1605.1 415.238 1600.22 415.724 1599.74 419.129 1595.11 415.724 1588.77 407.212 1572.94 418.4 1552.96 427.641 1560.76 430.803 1563.19 431.046 1567.58 428.858 1570.75 428.371 1571.23 424.966 1576.11 428.128 1582.2 435.181 1595.11 429.101 1611.92 420.832 1611.92ZM669.632 1750.78C663.795 1750.78 660.39 1743.95 664.281 1739.33 664.768 1738.6 669.875 1731.77 665.011 1722.76 655.526 1704.73 667.443 1681.59 677.415 1689.63 680.333 1692.07 680.819 1696.69 678.387 1699.62 677.658 1700.35 672.794 1707.17 677.415 1716.18 686.413 1732.51 677.658 1750.78 669.632 1750.78ZM700.033 1740.79C694.196 1740.79 690.791 1733.97 694.682 1729.34 694.925 1728.85 698.33 1723.98 695.169 1717.89 686.656 1701.81 697.601 1682.08 707.086 1689.63 710.004 1692.07 710.491 1696.69 708.059 1699.62 707.572 1700.1 704.167 1704.98 707.572 1711.07 714.382 1724.22 708.302 1740.79 700.033 1740.79ZM572.106 1745.66C565.54 1745.66 567.242 1737.62 546.326 1737.62 535.382 1737.62 528.086 1740.79 526.14 1743.22 520.303 1750.29 509.359 1741.28 515.196 1734.21 526.87 1720.08 566.026 1720.08 577.457 1734.21 581.348 1738.84 577.7 1745.66 572.106 1745.66ZM710.734 1650.41C696.385 1650.41 684.468 1638.71 684.468 1624.1 684.468 1609.72 696.385 1597.79 710.734 1597.79 725.326 1597.79 737 1609.72 737 1624.1 737 1638.71 725.326 1650.41 710.734 1650.41ZM710.734 1611.92C694.682 1611.92 694.682 1636.28 710.734 1636.28 726.785 1636.28 726.785 1611.92 710.734 1611.92ZM582.564 1712.29C571.376 1712.29 545.353 1689.14 558.973 1682.08 562.621 1680.37 566.756 1681.83 568.458 1685.24 573.566 1695.48 584.023 1698.16 584.023 1698.16 592.292 1700.35 590.59 1712.29 582.564 1712.29Z" fill="#F05845" fill-rule="evenodd"/></g></svg>