<svg width="671" height="671" xmlns="http://www.w3.org/2000/svg" xmlns:xlink="http://www.w3.org/1999/xlink" xml:space="preserve" overflow="hidden"><g transform="translate(-2345 -1571)"><g><g><g><path d="M2997.39 1906.5C2997.39 2081.52 2855.52 2223.39 2680.5 2223.39 2505.48 2223.39 2363.61 2081.52 2363.61 1906.5 2363.61 1731.48 2505.48 1589.61 2680.5 1589.61 2855.52 1589.61 2997.39 1731.48 2997.39 1906.5Z" fill="#F05845"/><path d="M2523.35 2056.67 2523.35 2093.37C2523.35 2104.78 2532.64 2114.07 2544.05 2114.07L2796.96 2114.07C2808.37 2114.07 2817.65 2104.78 2817.65 2093.37L2817.65 2056.67C2817.65 2007.8 2777.91 1968.04 2729.05 1968.04L2718.47 1968.04C2715.84 1968.04 2713.71 1970.17 2713.71 1972.79 2713.71 1975.42 2715.84 1977.55 2718.47 1977.55L2729.05 1977.55C2772.66 1977.55 2808.15 2013.04 2808.15 2056.67L2808.15 2093.37C2808.15 2099.54 2803.13 2104.56 2796.96 2104.56L2773.76 2104.56 2769.94 2063.68C2769.7 2061.07 2767.38 2059.12 2764.77 2059.39 2762.15 2059.64 2760.23 2061.95 2760.48 2064.57L2764.22 2104.56 2576.79 2104.56 2580.52 2064.57C2580.77 2061.95 2578.85 2059.64 2576.23 2059.39 2573.61 2059.13 2571.3 2061.07 2571.06 2063.68L2567.24 2104.56 2544.05 2104.56C2537.88 2104.56 2532.86 2099.54 2532.86 2093.37L2532.86 2056.67C2532.86 2013.04 2568.34 1977.55 2611.96 1977.55L2622.54 1977.55C2625.16 1977.55 2627.29 1975.42 2627.29 1972.79 2627.29 1970.17 2625.16 1968.04 2622.54 1968.04L2611.96 1968.04C2563.1 1968.04 2523.35 2007.8 2523.35 2056.67Z" fill="#FFFFFF"/><path d="M2670.49 2022.2C2689.08 2022.2 2704.21 2007.09 2704.21 1988.51L2704.21 1952.85C2733.28 1942.18 2755.14 1916.49 2760.37 1885.23 2778.12 1862.91 2786.91 1834.94 2785.1 1806.31 2781.44 1748.85 2735.38 1702.79 2677.95 1699.16 2608.57 1694.82 2551.56 1752.09 2555.91 1821.2 2557.46 1845.87 2566.84 1868.9 2583.02 1887.91 2588.89 1917.25 2609.5 1941.32 2636.77 1952.08L2636.77 1988.51C2636.77 2006.96 2651.7 2022.2 2670.49 2022.2ZM2694.7 1988.51C2694.7 2001.84 2683.84 2012.69 2670.48 2012.69 2657.13 2012.69 2646.28 2001.89 2646.28 1988.51L2646.28 1955.22C2660.78 1959.08 2680.23 1959.2 2694.7 1955.71ZM2582.77 1842.66C2581.84 1843.55 2581.32 1844.78 2581.32 1846.07L2581.32 1869.6C2571.97 1854.85 2566.5 1838.19 2565.4 1820.61 2561.4 1757.15 2613.72 1704.69 2677.35 1708.66 2730.02 1711.98 2772.26 1754.22 2775.61 1806.92 2776.94 1828 2772 1848.68 2761.59 1866.62L2761.59 1828.51C2761.59 1826.03 2759.69 1823.97 2757.23 1823.77 2740.35 1822.39 2723.71 1815.62 2706.35 1803.07 2702.57 1800.35 2697.55 1800.4 2693.85 1803.2 2658.44 1830.01 2623.21 1842.49 2586.22 1841.32 2584.97 1841.23 2583.69 1841.76 2582.77 1842.66ZM2590.83 1870.74 2590.83 1850.9 2590.98 1850.9C2628.4 1850.9 2663.98 1837.74 2699.59 1810.78 2699.94 1810.51 2700.41 1810.51 2700.78 1810.78 2718.12 1823.31 2734.95 1830.53 2752.09 1832.78L2752.09 1870.74C2752.09 1974.18 2590.83 1975.13 2590.83 1870.74Z" fill="#FFFFFF"/><path d="M2695.21 1915.15C2695.91 1917.09 2697.74 1918.29 2699.68 1918.29 2700.22 1918.29 2700.77 1918.2 2701.3 1918 2703.77 1917.11 2705.04 1914.38 2704.15 1911.91 2699.16 1898.15 2685.96 1888.9 2671.31 1888.9 2656.87 1888.9 2644.11 1897.59 2638.81 1911.02 2637.85 1913.47 2639.05 1916.23 2641.49 1917.19 2643.92 1918.15 2646.69 1916.96 2647.65 1914.51 2651.51 1904.73 2660.8 1898.41 2671.31 1898.41 2681.97 1898.41 2691.58 1905.14 2695.21 1915.15Z" fill="#FFFFFF"/><path d="M2819.69 1893.34C2821.72 1894.17 2824.02 1893.49 2825.3 1891.76L2866.57 1835.94C2868.33 1833.57 2868.59 1830.45 2867.26 1827.82 2865.93 1825.18 2863.27 1823.54 2860.31 1823.54L2852.26 1823.54 2862.19 1801.06C2863.59 1797.91 2863.29 1794.31 2861.41 1791.42 2859.54 1788.54 2856.36 1786.82 2852.91 1786.82L2826.39 1786.82C2821.89 1786.82 2817.88 1789.83 2816.64 1794.15L2802.94 1841.75C2802.19 1844.36 2802.69 1847.1 2804.33 1849.28 2805.96 1851.45 2808.46 1852.69 2811.18 1852.69L2821.58 1852.69 2816.76 1888.3C2816.47 1890.45 2817.67 1892.52 2819.69 1893.34ZM2812.42 1843.19 2825.77 1796.78C2825.85 1796.51 2826.1 1796.32 2826.39 1796.32L2852.91 1796.32C2853 1796.32 2853.26 1796.32 2853.45 1796.61 2853.64 1796.9 2853.53 1797.14 2853.5 1797.22L2840.61 1826.38C2839.96 1827.85 2840.1 1829.54 2840.98 1830.89 2841.85 1832.24 2843.36 1833.05 2844.96 1833.05L2856.89 1833.05 2828.67 1871.21 2831.73 1848.58C2831.92 1847.22 2831.51 1845.84 2830.61 1844.81 2829.7 1843.78 2828.4 1843.19 2827.02 1843.19Z" fill="#FFFFFF"/><path d="M2491.89 1852.69 2487.07 1888.3C2486.78 1890.45 2487.98 1892.52 2489.99 1893.34 2492.03 1894.17 2494.32 1893.49 2495.6 1891.76L2536.88 1835.94C2538.63 1833.57 2538.89 1830.45 2537.56 1827.82 2536.23 1825.18 2533.57 1823.54 2530.62 1823.54L2522.56 1823.54 2532.5 1801.06C2533.89 1797.91 2533.6 1794.31 2531.72 1791.42 2529.84 1788.54 2526.66 1786.82 2523.22 1786.82L2496.69 1786.82C2492.19 1786.82 2488.18 1789.83 2486.94 1794.15L2473.24 1841.75C2472.49 1844.36 2472.99 1847.1 2474.63 1849.28 2476.26 1851.45 2478.76 1852.69 2481.48 1852.69ZM2496.08 1796.78C2496.15 1796.51 2496.41 1796.32 2496.69 1796.32L2523.22 1796.32C2523.3 1796.32 2523.56 1796.32 2523.75 1796.61 2523.94 1796.9 2523.83 1797.14 2523.8 1797.22L2510.92 1826.38C2510.27 1827.85 2510.4 1829.54 2511.28 1830.89 2512.16 1832.24 2513.66 1833.05 2515.26 1833.05L2527.19 1833.05 2498.97 1871.21 2502.04 1848.58C2502.22 1847.22 2501.81 1845.84 2500.91 1844.81 2500 1843.78 2498.7 1843.19 2497.33 1843.19L2482.72 1843.19Z" fill="#FFFFFF"/></g></g></g><path d="M2348.95 1906.94C2348.95 1723.85 2497.37 1575.44 2680.45 1575.44 2863.54 1575.44 3011.95 1723.85 3011.95 1906.94 3011.95 2090.02 2863.54 2238.44 2680.45 2238.44 2497.37 2238.44 2348.95 2090.02 2348.95 1906.94Z" stroke="#F05845" stroke-width="6.875" stroke-miterlimit="8" fill="none" fill-rule="evenodd"/></g></svg>