<svg width="584" height="583" xmlns="http://www.w3.org/2000/svg" xmlns:xlink="http://www.w3.org/1999/xlink" xml:space="preserve" overflow="hidden"><g transform="translate(-3195 -160)"><path d="M3763.74 451.397C3763.74 603.273 3640.61 726.397 3488.74 726.397 3336.86 726.397 3213.74 603.273 3213.74 451.397 3213.74 299.521 3336.86 176.397 3488.74 176.397 3640.61 176.397 3763.74 299.521 3763.74 451.397Z" fill="#92D050" fill-rule="evenodd"/><path d="M3507.58 607.397 3391.25 607.397C3389.06 607.397 3387.28 605.611 3387.28 603.418L3387.28 496.084C3369.56 473.32 3361.92 436.995 3359.44 422.257 3355.85 400.957 3357.94 380.885 3365.67 362.591 3372.64 346.059 3384.31 331.261 3399.42 319.782 3435.3 292.54 3485.81 286.597 3525.12 305.001 3565.51 323.904 3589.15 365.004 3591.72 420.749 3592.92 425.312 3609.17 460.885 3615.33 474.362 3617.3 478.67 3618.72 481.777 3619.39 483.284 3619.95 484.52 3619.83 485.942 3619.1 487.068 3618.36 488.203 3617.11 488.88 3615.76 488.88L3594.82 488.88C3594.02 495.686 3592.01 511.245 3588.94 526.585 3586.53 538.657 3583.92 548.291 3581.19 555.207 3578.62 561.734 3574.37 570.352 3567.09 570.064L3511.57 570.064 3511.57 603.418C3511.57 605.611 3509.78 607.397 3507.58 607.397ZM3395.23 599.448 3503.61 599.448 3503.61 569.107C3500.77 568.1 3496.56 566.06 3492.61 562.047 3486.7 556.036 3480.14 544.219 3482.4 522.031 3482.62 519.846 3484.58 518.272 3486.77 518.484 3488.95 518.704 3490.53 520.659 3490.31 522.843 3486.87 556.655 3505.68 561.641 3507.94 562.115L3567.18 562.115C3567.25 562.115 3567.33 562.115 3567.39 562.123L3567.39 562.123C3567.48 562.123 3573.87 561.353 3581.13 525.07 3585.14 505.083 3587.29 484.698 3587.32 484.495 3587.53 482.463 3589.23 480.931 3591.27 480.931L3609.59 480.931C3609.13 479.923 3608.63 478.831 3608.09 477.663 3587.55 432.669 3583.89 423.661 3583.78 421.359 3581.41 368.585 3559.38 329.813 3521.75 312.197 3485.04 295.011 3437.81 300.607 3404.24 326.114 3374.41 348.759 3360.94 383.324 3367.28 420.936 3369.7 435.302 3377.18 470.984 3394.35 492.198 3394.92 492.909 3395.23 493.79 3395.23 494.696L3395.23 599.448Z" fill="#FEFEFE" fill-rule="evenodd"/><path d="M3514.24 438.396C3512.05 438.396 3510.28 436.616 3510.28 434.422L3510.28 411.704C3510.28 409.509 3512.05 407.721 3514.24 407.721 3525.04 407.721 3533.82 398.892 3533.82 388.037 3533.82 377.182 3525.04 368.352 3514.24 368.352 3503.45 368.352 3494.65 377.182 3494.65 388.037 3494.65 390.232 3492.88 392.02 3490.7 392.02 3488.52 392.02 3486.74 390.232 3486.74 388.037 3486.74 372.793 3499.08 360.396 3514.24 360.396 3529.4 360.396 3541.74 372.793 3541.74 388.037 3541.74 401.925 3531.49 413.458 3518.2 415.398L3518.2 434.422C3518.2 436.616 3516.43 438.396 3514.24 438.396Z" fill="#FEFEFE" fill-rule="evenodd"/><path d="M3515.79 451.393 3512.69 451.393C3510.51 451.393 3508.74 449.604 3508.74 447.397 3508.74 445.19 3510.51 443.393 3512.69 443.393L3515.79 443.393C3517.97 443.393 3519.74 445.19 3519.74 447.397 3519.74 449.604 3517.97 451.393 3515.79 451.393Z" fill="#FEFEFE" fill-rule="evenodd"/><path d="M3432.24 438.396C3430.06 438.396 3428.28 436.616 3428.28 434.422L3428.28 411.704C3428.28 409.509 3430.06 407.721 3432.24 407.721 3443.04 407.721 3451.82 398.892 3451.82 388.037 3451.82 377.182 3443.04 368.352 3432.24 368.352 3421.44 368.352 3412.65 377.182 3412.65 388.037 3412.65 390.232 3410.88 392.02 3408.7 392.02 3406.51 392.02 3404.74 390.232 3404.74 388.037 3404.74 372.793 3417.08 360.396 3432.24 360.396 3447.41 360.396 3459.74 372.793 3459.74 388.037 3459.74 401.925 3449.49 413.458 3436.19 415.398L3436.19 434.422C3436.19 436.616 3434.42 438.396 3432.24 438.396Z" fill="#FEFEFE" fill-rule="evenodd"/><path d="M3433.78 451.393 3430.69 451.393C3428.51 451.393 3426.74 449.604 3426.74 447.397 3426.74 445.19 3428.51 443.393 3430.69 443.393L3433.78 443.393C3435.97 443.393 3437.74 445.19 3437.74 447.397 3437.74 449.604 3435.97 451.393 3433.78 451.393Z" fill="#FEFEFE" fill-rule="evenodd"/><path d="M3198.66 451.834C3198.66 292.778 3327.83 163.839 3487.16 163.839 3646.5 163.839 3775.66 292.778 3775.66 451.834 3775.66 610.891 3646.5 739.839 3487.16 739.839 3327.83 739.839 3198.66 610.891 3198.66 451.834Z" stroke="#92D050" stroke-width="5.73025" stroke-miterlimit="8" fill="none" fill-rule="evenodd"/></g></svg>