<svg width="684" height="684" xmlns="http://www.w3.org/2000/svg" xmlns:xlink="http://www.w3.org/1999/xlink" xml:space="preserve" overflow="hidden"><g transform="translate(-73 -884)"><path d="M76.9425 1226.44C76.9425 1039.76 228.27 888.436 414.943 888.436 601.615 888.436 752.943 1039.76 752.943 1226.44 752.943 1413.11 601.615 1564.44 414.943 1564.44 228.27 1564.44 76.9425 1413.11 76.9425 1226.44Z" stroke="#F05845" stroke-width="6.875" stroke-miterlimit="8" fill="none" fill-rule="evenodd"/><path d="M740 1226C740 1405.49 594.493 1551 415 1551 235.507 1551 90.0001 1405.49 90.0001 1226 90.0001 1046.51 235.507 901 415 901 594.493 901 740 1046.51 740 1226Z" fill="#FFFFFF" fill-rule="evenodd"/><path d="M468.317 1434 431.887 1433.99C428.738 1433.99 426.389 1431 427.141 1427.95 439.194 1379.11 457.314 1304.88 458.098 1299.54 458.279 1297 460.391 1295 462.973 1295L479.251 1295C481.535 1295 483.508 1296.58 484.014 1298.8L495.947 1351.27C497.024 1356.02 481.376 1377.28 479.429 1383.08L473.157 1429.77C472.833 1432.19 470.761 1434 468.317 1434ZM438.117 1424.24 464.043 1424.24C464.778 1418.77 469.343 1381.09 470.459 1379.1L486.002 1351.59 475.351 1304.76 466.939 1304.76C463.378 1321.28 450.043 1375.85 438.117 1424.24Z" fill="#F05845" fill-rule="evenodd"/><path d="M360.684 1434C358.237 1434 356.165 1432.19 355.843 1429.77L349.573 1383.08C347.627 1377.28 331.976 1356.02 333.053 1351.27L344.987 1298.8C345.492 1296.58 347.471 1295 349.749 1295L366.03 1295C368.609 1295 370.725 1297 370.905 1299.54 371.687 1304.88 389.814 1379.11 401.858 1427.95 402.612 1431.01 400.268 1434 397.114 1434ZM342.996 1351.59C345.14 1355.39 358.85 1378.75 359.13 1380.86L364.956 1424.24 390.877 1424.24C378.951 1375.86 365.62 1321.28 362.054 1304.76L353.645 1304.76 342.996 1351.59Z" fill="#F05845" fill-rule="evenodd"/><path d="M414.365 1344C398.181 1344 381.995 1338.54 368.755 1327.62 363.903 1323.61 370.144 1316.37 374.99 1320.37 397.949 1339.32 431.188 1339.22 454.024 1320.13 456.054 1318.43 459.114 1318.68 460.843 1320.66 462.576 1322.65 462.336 1325.64 460.301 1327.34 447.023 1338.44 430.692 1344 414.363 1344Z" fill="#F05845" fill-rule="evenodd"/><path d="M463.071 1305C461.768 1305 460.468 1304.45 459.527 1303.37 449.079 1291.41 447.544 1275.16 448.098 1263.64 448.41 1257.11 457.945 1257.66 457.635 1264.12 456.155 1295.05 473.379 1297.13 466.274 1303.73 465.355 1304.58 464.212 1305 463.071 1305Z" fill="#F05845" fill-rule="evenodd"/><path d="M413.906 1284C393.036 1284 383.813 1274.52 368.762 1264.22 350.152 1251.47 339.648 1244.28 339.032 1213.69 309.801 1197.08 312.175 1174.51 331.457 1158 331.834 1132.41 338.437 1114.76 351.609 1104.08 352.869 1103.06 354.553 1102.74 356.103 1103.22 397.548 1116.03 432.676 1115.95 474.073 1103.22 475.628 1102.74 477.304 1103.06 478.566 1104.08 495.924 1118.15 498.48 1142.68 498.573 1160.9 518.404 1176.31 519.535 1197.51 490.954 1213.69 490.214 1250.38 474.365 1254.31 449.956 1272.11 439.439 1279.78 426.638 1284 413.903 1284ZM355.825 1113.33C345.971 1122.6 341.171 1138.01 341.171 1160.35 341.171 1166.15 325.716 1171.11 326.791 1185.51 327.346 1192.94 333.853 1199.99 346.126 1206.45 347.727 1207.3 348.732 1208.96 348.732 1210.77 348.732 1245.77 361.45 1246.1 388.063 1265.93 404.608 1278.25 427.789 1276.21 444.236 1264.22 469.388 1245.88 481.25 1244.83 481.25 1210.77 481.25 1208.96 482.254 1207.3 483.855 1206.45 492.467 1201.92 502.816 1194.69 503.226 1185.97 503.847 1172.83 488.801 1169.36 488.837 1163.37 488.935 1147.69 487.492 1125.8 474.341 1113.34 433.382 1125.62 396.828 1125.63 355.823 1113.33Z" fill="#F05845" fill-rule="evenodd"/><path d="M566.112 1434 262.883 1434C260.188 1434 258 1431.81 258 1429.12L258 1365.05C258 1326.43 289.449 1295 328.106 1295L366.001 1295C372.43 1295 372.43 1304.76 366.001 1304.76L328.106 1304.76C294.836 1304.76 267.767 1331.8 267.767 1365.05L267.767 1424.24 561.228 1424.24 561.228 1365.05C561.228 1331.8 534.165 1304.76 500.889 1304.76L462.99 1304.76C456.561 1304.76 456.563 1295 462.99 1295L500.889 1295C539.546 1295 571 1326.42 571 1365.05L571 1429.12C570.998 1431.81 568.81 1434 566.114 1434Z" fill="#F05845" fill-rule="evenodd"/><path d="M493.033 1169C488.685 1169 486.506 1163.64 489.676 1160.59 505.208 1145.66 503.34 1111.02 502.92 1105.35 492.618 1082.7 497.957 1066.41 501.326 1059.6 485.489 1044.06 446.212 1049.47 431.754 1053.07 426.648 1054.36 423.464 1047.6 427.671 1044.43L441.988 1033.64C373.982 1023.57 295.367 1101.19 339.678 1158.07 343.606 1163.11 335.957 1169.12 332.031 1164.09 279.361 1096.47 375.916 1004 454.751 1026.43 458.608 1027.52 459.548 1032.61 456.339 1035.03L449.44 1040.22C469.046 1038.14 497.765 1038.59 511.118 1056.02 516.129 1062.55 497.42 1070.68 512.078 1102 513.302 1104.62 516.338 1148.49 496.385 1167.65 495.448 1168.55 494.238 1169 493.031 1169Z" fill="#F05845" fill-rule="evenodd"/><path d="M366.811 1305C362.687 1305 360.444 1299.95 363.245 1296.77 378.822 1279.08 366.643 1259.51 376.862 1259.01 379.507 1258.88 381.772 1260.97 381.902 1263.68 382.458 1275.2 380.909 1291.43 370.384 1303.37 369.434 1304.45 368.124 1305 366.814 1305Z" fill="#F05845" fill-rule="evenodd"/><path d="M578.293 1124C562.799 1124 557.189 1114.16 551.184 1103.78 547.976 1098.23 556.406 1093.35 559.633 1098.9L563.658 1105.86C574.858 1125.23 603.865 1108.11 592.838 1089.04 589.257 1082.86 584.393 1083.35 585.291 1078.4 586.062 1074.16 589.952 1074.88 593.82 1072.65 613.019 1061.59 596.179 1032.47 576.968 1043.53 573.093 1045.76 571.788 1049.49 567.716 1048.03 561.677 1045.86 567.28 1032.43 552.025 1028.35 537.559 1024.48 525.59 1040.06 533.075 1053 535.753 1057.63 540.668 1063.51 535.319 1066.6 529.958 1069.7 527.299 1062.48 524.631 1057.87 512.801 1037.41 531.746 1012.85 554.559 1018.95 562.753 1021.14 569.363 1027.04 572.441 1034.91 585.098 1027.86 601.172 1032.26 608.441 1044.82 615.712 1057.39 611.48 1073.48 599.043 1080.89 612.966 1098.31 600.411 1124 578.29 1124Z" fill="#F05845" fill-rule="evenodd"/><path d="M502.924 1094C498.399 1094 496.256 1088.32 499.704 1085.33L537.819 1052.27C542.718 1048.01 549.147 1055.48 544.25 1059.73L506.136 1092.8C505.211 1093.6 504.063 1094 502.924 1094Z" fill="#F05845" fill-rule="evenodd"/><path d="M508.809 1123C503.418 1123 502.101 1115.2 507.227 1113.37L563.608 1093.32C569.618 1091.18 572.787 1100.53 566.777 1102.67 560.42 1104.93 510.896 1123 508.809 1123Z" fill="#F05845" fill-rule="evenodd"/><path d="M251.665 1124C229.432 1124 217.029 1098.11 230.918 1080.85 210.779 1068.84 215.065 1038.42 237.679 1032.36 244.419 1030.55 251.453 1031.43 257.528 1034.82 266.952 1010.95 301.396 1013.02 308.005 1037.64 311.103 1049.18 306.434 1055.94 301.32 1064.76 298.1 1070.32 289.661 1065.44 292.872 1059.89 296.758 1053.17 300.737 1048.19 298.58 1040.16 293.618 1021.67 266.45 1024.79 265.474 1043.62 265.252 1047.93 259.911 1049.83 257.003 1046.66 245.163 1033.74 223.743 1045.43 228.291 1062.38 231.965 1076.07 243.524 1072.04 244.671 1078.35 245.815 1084.64 231.348 1086.53 235.436 1101.77 239.301 1116.17 258.811 1118.79 266.303 1105.83 268.99 1101.18 271.632 1094 276.994 1097.08 282.356 1100.17 277.431 1106.07 274.754 1110.71 269.834 1119.23 260.873 1124 251.665 1124Z" fill="#F05845" fill-rule="evenodd"/><path d="M329.19 1095C328.075 1095 326.957 1094.61 326.049 1093.82L286.711 1059.56C281.922 1055.39 288.213 1048.07 293 1052.24L332.335 1086.5C335.707 1089.43 333.604 1095 329.19 1095Z" fill="#F05845" fill-rule="evenodd"/><path d="M322.12 1123C320.117 1123 269.639 1104.9 263.269 1102.67 257.18 1100.53 260.376 1091.18 266.485 1093.32L323.728 1113.38C328.922 1115.2 327.596 1123 322.12 1123Z" fill="#F05845" fill-rule="evenodd"/><path d="M392.144 1179C389.471 1179 365.758 1165.43 361.561 1163.17 355.927 1160.13 360.548 1151.61 366.185 1154.64L394.46 1169.89C398.886 1172.27 397.154 1179 392.144 1179Z" fill="#F05845" fill-rule="evenodd"/><path d="M436.857 1179C431.848 1179 430.112 1172.28 434.541 1169.89L462.822 1154.64C468.439 1151.61 473.076 1160.13 467.443 1163.17 463.253 1165.43 439.525 1179 436.854 1179Z" fill="#F05845" fill-rule="evenodd"/><path d="M431.619 1241 397.378 1241C380.878 1241 380.871 1216 397.378 1216L431.619 1216C448.129 1216 448.126 1241 431.619 1241ZM397.378 1225.68C393.669 1225.68 393.669 1231.31 397.378 1231.31L431.619 1231.31C435.326 1231.31 435.328 1225.68 431.619 1225.68Z" fill="#F05845" fill-rule="evenodd"/></g></svg>