<svg width="684" height="684" xmlns="http://www.w3.org/2000/svg" xmlns:xlink="http://www.w3.org/1999/xlink" xml:space="preserve" overflow="hidden"><g transform="translate(-2281 13)"><g><g><g><path d="M2947.76 328.878C2947.76 508.304 2802.3 653.756 2622.88 653.756 2443.45 653.756 2298 508.304 2298 328.878 2298 149.453 2443.45 4.00013 2622.88 4.00013 2802.3 4.00013 2947.76 149.453 2947.76 328.878Z" fill="#F05845" fill-rule="evenodd"/><path d="M2672.35 275.991C2664.07 275.991 2652.86 277.941 2652.86 268.923 2652.86 259.906 2664.07 261.855 2672.35 261.855 2681.86 261.855 2681.86 275.991 2672.35 275.991ZM2783.25 534.09C2681.37 534.09 2579.25 534.09 2477.38 534.09 2473.48 534.09 2470.31 530.922 2470.31 527.022L2470.31 463.411C2470.31 424.66 2501.75 392.977 2540.74 392.977L2569.75 392.977 2576.82 365.436C2551.96 353.007 2535.14 327.172 2535.14 297.682L2535.14 280.866C2520.52 255.275 2516.62 228.222 2523.68 202.388 2536.85 155.35 2585.83 123.91 2631.9 123.91 2687.22 123.91 2721.58 166.805 2747.18 146.82 2751.32 143.651 2757.66 146.089 2758.39 151.45 2758.87 153.644 2767.16 207.993 2725.48 232.853L2725.48 297.682C2725.48 327.172 2708.67 353.007 2683.81 365.436L2690.88 392.977 2719.88 392.977C2758.63 392.977 2790.31 424.66 2790.31 463.411L2790.31 527.022C2790.31 530.922 2787.15 534.09 2783.25 534.09ZM2572.18 407.112 2540.74 407.112C2509.55 407.112 2484.45 432.459 2484.45 463.411L2484.45 519.954 2532.7 519.954 2532.7 488.271C2532.7 478.766 2546.84 478.766 2546.84 488.271L2546.84 519.954 2713.79 519.954 2713.79 488.271C2713.79 478.766 2727.92 478.766 2727.92 488.271L2727.92 519.954 2776.18 519.954 2776.18 463.411C2776.18 432.459 2751.07 407.112 2719.88 407.112L2688.44 407.112 2635.31 459.999C2632.63 462.924 2628 462.924 2625.32 459.999ZM2582.91 397.851 2630.19 445.133 2677.47 397.851 2670.65 370.798C2663.82 372.748 2656.76 373.723 2649.44 373.723L2611.18 373.723C2603.87 373.723 2596.56 372.748 2589.98 370.798ZM2587.05 354.713C2587.54 354.956 2587.78 354.956 2588.27 355.2 2595.34 358.125 2603.14 359.587 2611.18 359.587L2649.44 359.587C2683.08 359.587 2711.35 332.29 2711.35 297.682L2711.35 232.365C2675.52 208.237 2653.83 217.986 2620.44 240.652 2603.87 251.619 2590.71 251.863 2580.23 251.863 2567.07 251.863 2559.75 252.107 2549.27 280.134L2549.27 297.682C2549.27 323.273 2564.87 345.451 2587.05 354.713ZM2587.78 462.193 2556.59 462.193C2547.33 462.193 2547.33 448.057 2556.59 448.057L2587.78 448.057C2597.04 448.057 2597.04 462.193 2587.78 462.193ZM2631.9 138.046C2572.92 138.046 2513.45 194.833 2541.48 262.099 2561.7 221.885 2581.93 249.426 2612.4 228.953 2649.69 203.606 2677.47 192.639 2718.9 220.423 2742.3 205.8 2745.47 178.991 2745.23 164.124 2713.05 176.066 2679.42 138.046 2631.9 138.046ZM2653.1 339.846 2605.82 327.416C2596.8 324.979 2600.46 311.33 2609.47 313.768L2654.81 325.954C2662.85 328.147 2661.14 339.846 2653.1 339.846ZM2462.02 198.245C2441.55 198.245 2424.98 181.428 2424.98 160.956 2424.98 140.483 2441.55 123.91 2462.02 123.91 2482.5 123.91 2499.07 140.483 2499.07 160.956 2499.07 181.428 2482.5 198.245 2462.02 198.245ZM2462.02 138.046C2449.35 138.046 2439.11 148.282 2439.11 160.956 2439.11 173.629 2449.35 184.109 2462.02 184.109 2474.7 184.109 2484.93 173.629 2484.93 160.956 2484.93 148.282 2474.7 138.046 2462.02 138.046ZM2762.29 361.78C2746.93 361.78 2734.5 349.351 2734.5 334.24 2734.5 318.886 2746.93 306.456 2762.29 306.456 2777.64 306.456 2790.07 318.886 2790.07 334.24 2790.07 349.351 2777.64 361.78 2762.29 361.78ZM2762.29 320.592C2744.49 320.592 2744.49 347.645 2762.29 347.645 2780.08 347.645 2780.08 320.592 2762.29 320.592ZM2473.97 389.077C2460.07 389.077 2449.11 377.866 2449.11 364.218 2449.11 350.326 2460.07 339.358 2473.97 339.358 2487.61 339.358 2498.82 350.326 2498.82 364.218 2498.82 377.866 2487.61 389.077 2473.97 389.077ZM2473.97 353.494C2459.83 353.494 2459.83 374.941 2473.97 374.941 2488.1 374.941 2488.1 353.494 2473.97 353.494ZM2784.71 186.302C2776.67 186.302 2774.96 174.604 2783 172.41L2806.89 166.074C2815.9 163.636 2819.56 177.285 2810.54 179.722ZM2472.99 324.004C2464.7 324.004 2463.24 312.305 2471.04 310.112L2494.93 303.775C2503.94 301.338 2507.6 314.986 2498.58 317.423ZM2811.27 396.632 2785.44 390.052C2776.42 387.615 2780.08 373.966 2789.09 376.404L2812.98 382.74C2821.02 384.934 2819.32 396.632 2811.27 396.632ZM2812.49 299.876C2804.45 299.876 2794.94 280.378 2804.45 262.587 2810.3 251.863 2803.72 243.576 2803.47 243.576 2797.62 236.509 2808.59 227.491 2814.44 234.559 2814.93 235.29 2827.12 250.401 2816.88 269.167 2811.27 279.891 2817.85 288.177 2817.85 288.421 2821.75 293.052 2818.34 299.876 2812.49 299.876ZM2778.86 288.665C2770.57 288.665 2763.75 271.117 2771.3 256.981 2775.45 249.426 2770.82 243.576 2770.57 243.576 2764.72 236.509 2775.69 227.491 2781.54 234.559 2785.68 239.433 2790.56 251.132 2783.73 263.805 2779.83 271.117 2783.98 276.722 2784.46 277.21 2788.12 282.084 2784.46 288.665 2778.86 288.665ZM2448.13 299.876C2442.28 299.876 2438.87 293.052 2442.53 288.421 2443.26 287.446 2449.11 279.647 2443.5 269.167 2433.26 249.913 2445.94 225.297 2456.17 233.584 2459.1 236.021 2459.59 240.408 2457.15 243.576 2456.42 244.308 2450.57 252.35 2456.17 262.587 2465.44 280.378 2456.17 299.876 2448.13 299.876ZM2481.76 288.908C2475.92 288.908 2472.5 282.084 2476.16 277.21 2476.65 276.722 2480.79 271.117 2476.89 263.805 2467.87 246.745 2479.33 225.785 2489.08 233.584 2492 236.021 2492.49 240.408 2490.05 243.576 2489.56 244.064 2485.42 249.913 2489.32 256.981 2496.88 271.117 2490.05 288.908 2481.76 288.908ZM2594.36 302.069C2586.32 302.069 2587.3 293.295 2587.3 288.665 2587.3 279.403 2601.43 279.403 2601.43 288.665 2601.43 293.295 2602.65 302.069 2594.36 302.069ZM2600.7 275.991C2592.41 275.991 2580.96 277.941 2580.96 268.923 2580.96 259.906 2592.41 261.855 2600.7 261.855 2609.96 261.855 2609.96 275.991 2600.7 275.991ZM2666.26 302.069C2657.97 302.069 2659.19 293.295 2659.19 288.665 2659.19 279.403 2673.33 279.403 2673.33 288.665 2673.33 293.295 2674.3 302.069 2666.26 302.069Z" fill="#FDFDFD" fill-rule="evenodd"/></g></g></g><path d="M2284.94 329.436C2284.94 142.764 2436.27-8.56376 2622.94-8.56376 2809.62-8.56376 2960.94 142.764 2960.94 329.436 2960.94 516.109 2809.62 667.437 2622.94 667.437 2436.27 667.437 2284.94 516.109 2284.94 329.436Z" stroke="#F05845" stroke-width="6.875" stroke-miterlimit="8" fill="none" fill-rule="evenodd"/></g></svg>