<svg width="683" height="684" xmlns="http://www.w3.org/2000/svg" xmlns:xlink="http://www.w3.org/1999/xlink" xml:space="preserve" overflow="hidden"><g transform="translate(-1336 -740)"><path d="M1339.94 1082.44C1339.94 895.764 1491.05 744.436 1677.44 744.436 1863.84 744.436 2014.94 895.764 2014.94 1082.44 2014.94 1269.11 1863.84 1420.44 1677.44 1420.44 1491.05 1420.44 1339.94 1269.11 1339.94 1082.44Z" stroke="#F05845" stroke-width="6.875" stroke-miterlimit="8" fill="none" fill-rule="evenodd"/><path d="M2002 1082C2002 1261.49 1856.72 1407 1677.5 1407 1498.28 1407 1353 1261.49 1353 1082 1353 902.508 1498.28 757 1677.5 757 1856.72 757 2002 902.508 2002 1082Z" fill="#FFFFFF" fill-rule="evenodd"/><path d="M1633.51 1029.5C1628.63 1029.5 1619.61 1030.48 1619.61 1022.44 1619.61 1018.54 1622.78 1015.37 1626.68 1015.37L1652.52 1015.37C1664.22 1015.37 1673.48 1026.58 1673.48 1040.22 1673.48 1054.11 1663.97 1065.31 1652.52 1065.31 1636.67 1065.31 1626.68 1045.58 1633.51 1029.5ZM1836.54 1287C1734.41 1287 1632.29 1287 1530.4 1287 1526.5 1287 1523.34 1283.83 1523.34 1279.94L1523.34 1216.35C1523.34 1177.62 1555.02 1145.95 1593.78 1145.95L1622.78 1145.95 1629.85 1118.42C1605.23 1106 1588.17 1080.17 1588.17 1050.7L1588.17 1033.89C1573.55 1008.31 1569.65 981.266 1576.71 955.443 1589.88 908.426 1638.87 877 1684.93 877 1740.26 877 1774.63 919.876 1800.22 899.899 1804.37 896.732 1810.7 899.169 1811.68 904.528 1811.92 906.721 1820.21 961.046 1778.53 985.895L1778.53 1050.7C1778.53 1080.17 1761.71 1106 1737.09 1118.42L1743.92 1145.95 1772.92 1145.95C1811.92 1145.95 1843.61 1177.62 1843.61 1216.35L1843.61 1279.94C1843.61 1283.83 1840.44 1287 1836.54 1287ZM1625.46 1160.08 1593.78 1160.08C1562.82 1160.08 1537.47 1185.41 1537.47 1216.35L1537.47 1272.87 1585.73 1272.87 1585.73 1241.2C1585.73 1231.7 1599.87 1231.7 1599.87 1241.2L1599.87 1272.87 1766.83 1272.87 1766.83 1241.2C1766.83 1231.7 1780.97 1231.7 1780.97 1241.2L1780.97 1272.87 1829.47 1272.87 1829.47 1216.35C1829.47 1185.41 1804.12 1160.08 1772.92 1160.08L1741.48 1160.08 1688.35 1212.94C1685.67 1215.87 1681.28 1215.87 1678.35 1212.94ZM1636.19 1150.82 1683.47 1198.08 1730.76 1150.82 1723.69 1123.78C1717.11 1125.73 1710.04 1126.7 1702.73 1126.7L1664.22 1126.7C1656.9 1126.7 1649.84 1125.73 1643.01 1123.78ZM1640.09 1107.7C1640.57 1107.94 1641.06 1107.94 1641.3 1108.19 1648.37 1111.11 1656.17 1112.57 1664.22 1112.57L1702.73 1112.57C1736.12 1112.57 1764.64 1085.29 1764.64 1050.7L1764.64 985.407C1728.81 961.29 1706.87 971.034 1673.48 993.69 1656.9 1004.65 1643.99 1004.9 1633.51 1004.9 1620.1 1004.9 1612.79 1005.14 1602.31 1033.16L1602.31 1050.7C1602.31 1076.28 1617.91 1098.44 1640.09 1107.7ZM1640.82 1215.13 1609.62 1215.13C1600.36 1215.13 1600.36 1201 1609.62 1201L1640.82 1201C1650.08 1201 1650.08 1215.13 1640.82 1215.13ZM1684.93 891.129C1626.19 891.129 1566.48 947.891 1594.75 1015.13 1614.74 974.932 1634.97 1002.46 1665.68 981.997 1702.97 956.661 1730.76 945.699 1771.95 973.471 1795.35 958.854 1798.52 932.056 1798.27 917.196 1766.1 929.133 1732.71 891.129 1684.93 891.129ZM1515.05 951.302C1494.57 951.302 1478 934.492 1478 914.029 1478 893.565 1494.57 877 1515.05 877 1535.52 877 1552.34 893.565 1552.34 914.029 1552.34 934.492 1535.52 951.302 1515.05 951.302ZM1515.05 891.129C1502.37 891.129 1492.14 901.361 1492.14 914.029 1492.14 926.697 1502.37 937.172 1515.05 937.172 1527.72 937.172 1538.2 926.697 1538.2 914.029 1538.2 901.361 1527.72 891.129 1515.05 891.129ZM1519.44 1031.45C1510.91 1031.45 1512.37 1021.95 1512.37 1016.35 1507.01 1016.35 1497.5 1017.81 1497.5 1009.28 1497.5 1001 1507.01 1002.22 1512.37 1002.22 1512.37 996.857 1510.91 987.357 1519.44 987.357 1527.97 987.357 1526.5 996.857 1526.5 1002.22 1532.11 1002.22 1541.62 1001 1541.62 1009.28 1541.62 1017.81 1532.11 1016.35 1526.5 1016.35 1526.5 1021.95 1527.97 1031.45 1519.44 1031.45ZM1834.59 999.537C1826.06 999.537 1827.52 990.036 1827.52 984.433 1821.92 984.433 1812.41 985.895 1812.41 977.368 1812.41 969.085 1821.92 970.304 1827.52 970.304 1827.52 964.944 1826.06 955.443 1834.59 955.443 1842.88 955.443 1841.66 964.944 1841.66 970.304 1847.02 970.304 1856.53 969.085 1856.53 977.368 1856.53 985.895 1847.02 984.433 1841.66 984.433 1841.66 990.036 1842.88 999.537 1834.59 999.537ZM1854.82 1161.3C1846.29 1161.3 1847.75 1151.8 1847.75 1146.19 1842.39 1146.19 1832.64 1147.65 1832.64 1139.37 1832.64 1130.84 1842.39 1132.31 1847.75 1132.31 1847.75 1126.7 1846.29 1117.2 1854.82 1117.2 1863.35 1117.2 1861.89 1126.7 1861.89 1132.31 1867.49 1132.31 1877 1130.84 1877 1139.37 1877 1147.65 1867.49 1146.19 1861.89 1146.19 1861.89 1151.8 1863.35 1161.3 1854.82 1161.3ZM1708.33 1093.08C1701.75 1093.08 1703.7 1085.78 1683.47 1085.78 1672.75 1085.78 1665.68 1088.46 1663.97 1090.65 1657.88 1097.71 1647.15 1088.46 1653.25 1081.39 1664.46 1068.24 1702.24 1068.24 1713.7 1081.39 1717.6 1086.02 1714.18 1093.08 1708.33 1093.08ZM1831.91 1094.55C1811.43 1094.55 1794.86 1077.98 1794.86 1057.52 1794.86 1037.05 1811.43 1020.24 1831.91 1020.24 1852.38 1020.24 1869.2 1037.05 1869.2 1057.52 1869.2 1077.98 1852.38 1094.55 1831.91 1094.55ZM1831.91 1034.37C1819.23 1034.37 1809 1044.85 1809 1057.52 1809 1070.18 1819.23 1080.42 1831.91 1080.42 1844.58 1080.42 1855.06 1070.18 1855.06 1057.52 1855.06 1044.85 1844.58 1034.37 1831.91 1034.37ZM1526.5 1146.68C1509.2 1146.68 1495.06 1132.55 1495.06 1115.25 1495.06 1097.96 1509.2 1083.83 1526.5 1083.83 1543.81 1083.83 1557.95 1097.96 1557.95 1115.25 1557.95 1132.55 1543.81 1146.68 1526.5 1146.68ZM1526.5 1097.96C1517 1097.96 1509.2 1105.75 1509.2 1115.25 1509.2 1124.75 1517 1132.55 1526.5 1132.55 1536.01 1132.55 1543.81 1124.75 1543.81 1115.25 1543.81 1105.75 1536.01 1097.96 1526.5 1097.96ZM1652.52 1029.5C1643.26 1029.5 1643.26 1051.18 1652.52 1051.18 1661.54 1051.18 1661.54 1029.5 1652.52 1029.5ZM1726.13 1065.31C1710.28 1065.31 1700.29 1045.58 1707.11 1029.5 1702.48 1029.5 1693.46 1030.48 1693.46 1022.44 1693.46 1018.54 1696.63 1015.37 1700.53 1015.37L1726.61 1015.37C1738.07 1015.62 1747.09 1026.82 1747.09 1040.22 1747.09 1054.11 1737.58 1065.31 1726.13 1065.31ZM1726.13 1029.5C1716.86 1029.5 1716.86 1051.18 1726.13 1051.18 1735.14 1051.18 1735.14 1029.5 1726.13 1029.5Z" fill="#F05845" fill-rule="evenodd"/></g></svg>