<svg width="684" height="684" xmlns="http://www.w3.org/2000/svg" xmlns:xlink="http://www.w3.org/1999/xlink" xml:space="preserve" overflow="hidden"><g transform="translate(-3372 -284)"><g><g><g><path d="M4038.76 625.878C4038.76 805.304 3893.3 950.756 3713.88 950.756 3534.45 950.756 3389 805.304 3389 625.878 3389 446.453 3534.45 301 3713.88 301 3893.3 301 4038.76 446.453 4038.76 625.878Z" fill="#F05845" fill-rule="evenodd"/><path d="M3666.11 591.27C3657.82 591.27 3656.36 579.328 3664.4 577.134 3664.89 577.134 3674.88 574.453 3680 564.217 3684.14 555.931 3696.82 562.267 3692.67 570.554 3684.63 586.639 3668.55 591.27 3666.11 591.27ZM3855.24 831.09C3753.12 831.09 3651.24 831.09 3549.12 831.09 3545.22 831.09 3542.06 827.922 3542.06 824.022L3542.06 760.411C3542.06 721.66 3573.74 689.977 3612.73 689.977L3641.49 689.977 3648.56 662.436C3623.95 650.006 3606.89 624.172 3606.89 594.682L3606.89 577.866C3592.51 552.275 3588.61 525.222 3595.67 499.388 3608.59 452.35 3657.58 420.91 3703.89 420.91 3759.21 420.91 3793.57 463.805 3818.92 443.82 3823.31 440.651 3829.4 443.089 3830.38 448.45 3830.86 450.644 3839.15 504.993 3797.47 529.853L3797.47 594.682C3797.47 624.172 3780.41 650.006 3755.8 662.436L3762.87 689.977 3791.87 689.977C3830.62 689.977 3862.3 721.66 3862.3 760.411L3862.3 824.022C3862.3 827.922 3859.14 831.09 3855.24 831.09ZM3644.17 704.112 3612.73 704.112C3581.54 704.112 3556.19 729.459 3556.19 760.411L3556.19 816.954 3604.69 816.954 3604.69 785.271C3604.69 775.766 3618.83 775.766 3618.83 785.271L3618.83 816.954 3785.78 816.954 3785.78 785.271C3785.78 775.766 3799.91 775.766 3799.91 785.271L3799.91 816.954 3848.17 816.954 3848.17 760.411C3848.17 729.459 3822.82 704.112 3791.87 704.112L3760.18 704.112 3707.3 756.999C3704.37 759.924 3699.99 759.924 3697.31 756.999ZM3654.9 694.851 3702.18 742.133 3749.46 694.851 3742.64 667.798C3735.81 669.748 3728.75 670.723 3721.43 670.723L3682.93 670.723C3675.61 670.723 3668.55 669.748 3661.97 667.798ZM3659.04 651.713C3668.06 654.637 3671.23 656.587 3682.93 656.587L3721.43 656.587C3755.07 656.587 3783.34 629.29 3783.34 594.682L3783.34 529.365C3747.51 505.237 3725.82 514.986 3692.19 537.652 3675.61 548.619 3662.7 548.863 3652.22 548.863 3639.06 548.863 3631.5 549.107 3621.02 577.134L3621.02 594.682C3621.02 620.273 3636.86 642.451 3659.04 651.713ZM3659.53 759.193 3628.58 759.193C3619.31 759.193 3619.31 745.057 3628.58 745.057L3659.53 745.057C3668.79 745.057 3668.79 759.193 3659.53 759.193ZM3703.89 435.046C3644.91 435.046 3585.44 491.833 3613.47 559.099 3633.69 518.885 3653.92 546.426 3684.39 525.953 3721.68 500.606 3749.46 489.639 3790.65 517.423 3813.8 503.044 3817.22 475.991 3817.22 461.124 3784.8 473.066 3751.41 435.046 3703.89 435.046ZM3556.68 591.758C3548.15 591.758 3549.61 582.252 3549.61 576.647 3544.25 576.647 3534.5 578.109 3534.5 569.823 3534.5 561.293 3544.25 562.755 3549.61 562.755 3549.61 557.149 3548.15 547.644 3556.68 547.644 3565.21 547.644 3563.75 557.149 3563.75 562.755 3569.35 562.755 3578.86 561.293 3578.86 569.823 3578.86 578.109 3569.35 576.647 3563.75 576.647 3563.75 582.252 3565.21 591.758 3556.68 591.758ZM3858.65 701.431C3850.12 701.431 3851.58 691.926 3851.58 686.564 3845.97 686.564 3836.47 687.783 3836.47 679.497 3836.47 670.966 3845.97 672.429 3851.58 672.429 3851.58 666.823 3850.12 657.318 3858.65 657.318 3867.18 657.318 3865.72 666.823 3865.72 672.429 3871.08 672.429 3880.58 670.966 3880.58 679.497 3880.58 688.027 3871.08 686.564 3865.72 686.564 3865.72 691.926 3867.18 701.431 3858.65 701.431ZM3570.57 680.228C3553.27 680.228 3539.13 666.336 3539.13 648.788 3539.13 631.484 3553.27 617.592 3570.57 617.592 3587.88 617.592 3602.01 631.484 3602.01 648.788 3602.01 666.336 3587.88 680.228 3570.57 680.228ZM3570.57 631.728C3561.07 631.728 3553.27 639.283 3553.27 648.788 3553.27 658.537 3561.07 666.092 3570.57 666.092 3580.08 666.092 3587.88 658.537 3587.88 648.788 3587.88 639.283 3580.08 631.728 3570.57 631.728ZM3545.96 500.85C3540.11 500.85 3536.69 494.026 3540.59 489.152 3541.08 488.664 3545.96 481.596 3541.32 472.822 3531.58 454.543 3543.52 431.39 3553.51 439.677 3556.68 442.114 3556.92 446.501 3554.49 449.669 3554 450.4 3549.12 457.224 3553.75 465.998 3562.53 482.571 3553.75 500.85 3545.96 500.85ZM3576.42 490.858C3570.57 490.858 3567.16 484.034 3570.81 479.159 3571.3 478.672 3574.71 474.041 3571.3 467.704 3562.77 451.863 3573.98 431.878 3583.24 439.677 3586.41 442.114 3586.66 446.501 3584.46 449.669 3583.98 450.156 3580.56 455.031 3583.73 461.124 3590.8 474.041 3584.71 490.858 3576.42 490.858ZM3825.75 629.778C3819.9 629.778 3816.48 622.954 3820.38 618.323 3820.87 617.592 3825.99 610.768 3821.11 601.75 3811.61 583.715 3823.55 560.561 3833.54 568.604 3836.47 571.041 3836.96 575.672 3834.52 578.597 3833.79 579.328 3828.91 586.152 3833.54 595.17 3842.56 611.499 3833.79 629.778 3825.75 629.778ZM3856.21 619.785C3850.36 619.785 3846.95 612.961 3850.85 608.33 3851.09 607.843 3854.5 602.969 3851.34 596.876 3842.81 580.79 3853.77 561.049 3863.28 568.604 3866.2 571.041 3866.69 575.672 3864.25 578.597 3863.77 579.084 3860.35 583.958 3863.77 590.052 3870.59 603.212 3864.5 619.785 3856.21 619.785ZM3728.01 624.66C3721.43 624.66 3723.14 616.617 3702.18 616.617 3691.21 616.617 3683.9 619.785 3681.95 622.222 3676.1 629.29 3665.13 620.273 3670.98 613.205 3682.68 599.069 3721.92 599.069 3733.38 613.205 3737.28 617.836 3733.62 624.66 3728.01 624.66ZM3866.93 529.365C3852.55 529.365 3840.61 517.667 3840.61 503.044 3840.61 488.664 3852.55 476.722 3866.93 476.722 3881.56 476.722 3893.26 488.664 3893.26 503.044 3893.26 517.667 3881.56 529.365 3866.93 529.365ZM3866.93 490.858C3850.85 490.858 3850.85 515.23 3866.93 515.23 3883.02 515.23 3883.02 490.858 3866.93 490.858ZM3738.49 591.27C3727.28 591.27 3701.2 568.117 3714.85 561.049 3718.51 559.343 3722.65 560.805 3724.36 564.217 3729.48 574.453 3739.96 577.134 3739.96 577.134 3748.24 579.328 3746.54 591.27 3738.49 591.27Z" fill="#FDFDFD" fill-rule="evenodd"/></g></g></g><path d="M3375.94 626.436C3375.94 439.764 3527.27 288.436 3713.94 288.436 3900.62 288.436 4051.94 439.764 4051.94 626.436 4051.94 813.109 3900.62 964.437 3713.94 964.437 3527.27 964.437 3375.94 813.109 3375.94 626.436Z" stroke="#F05845" stroke-width="6.875" stroke-miterlimit="8" fill="none" fill-rule="evenodd"/></g></svg>