<svg width="670" height="670" xmlns="http://www.w3.org/2000/svg" xmlns:xlink="http://www.w3.org/1999/xlink" xml:space="preserve" overflow="hidden"><g transform="translate(-2852 -716)"><path d="M2855.95 1051.44C2855.95 868.631 3004.15 720.438 3186.95 720.438 3369.76 720.438 3517.95 868.631 3517.95 1051.44 3517.95 1234.24 3369.76 1382.44 3186.95 1382.44 3004.15 1382.44 2855.95 1234.24 2855.95 1051.44Z" stroke="#F05845" stroke-width="6.875" stroke-miterlimit="8" fill="none" fill-rule="evenodd"/><path d="M3504 1051C3504 1226.07 3362.07 1368 3187 1368 3011.93 1368 2870 1226.07 2870 1051 2870 875.926 3011.93 734 3187 734 3362.07 734 3504 875.926 3504 1051Z" fill="#FFFFFF" fill-rule="evenodd"/><path d="M3030 1201.62 3030 1238.31C3030 1249.72 3039.27 1259 3050.67 1259L3303.33 1259C3314.73 1259 3324 1249.72 3324 1238.31L3324 1201.62C3324 1152.75 3284.29 1113 3235.49 1113L3224.91 1113C3222.29 1113 3220.17 1115.13 3220.17 1117.75 3220.17 1120.38 3222.29 1122.51 3224.91 1122.51L3235.49 1122.51C3279.06 1122.51 3314.5 1158 3314.5 1201.62L3314.5 1238.31C3314.5 1244.48 3309.49 1249.5 3303.33 1249.5L3280.16 1249.5 3276.34 1208.62C3276.09 1206.01 3273.78 1204.07 3271.17 1204.34 3268.56 1204.58 3266.64 1206.89 3266.88 1209.51L3270.62 1249.49 3083.38 1249.49 3087.11 1209.51C3087.36 1206.89 3085.44 1204.58 3082.83 1204.34 3080.21 1204.07 3077.9 1206.01 3077.66 1208.62L3073.84 1249.5 3050.67 1249.5C3044.51 1249.5 3039.5 1244.48 3039.5 1238.31L3039.5 1201.62C3039.5 1158 3074.94 1122.51 3118.51 1122.51L3129.09 1122.51C3131.71 1122.51 3133.84 1120.38 3133.84 1117.75 3133.84 1115.13 3131.71 1113 3129.09 1113L3118.51 1113C3069.71 1113 3030 1152.75 3030 1201.62Z" fill="#F05845" fill-rule="evenodd"/><path d="M3176.98 1167C3195.6 1167 3210.75 1151.85 3210.75 1133.24L3210.75 1097.49C3239.87 1086.8 3261.76 1061.05 3267 1029.72 3284.78 1007.35 3293.58 979.319 3291.77 950.623 3288.1 893.03 3241.97 846.862 3184.46 843.232 3114.97 838.882 3057.87 896.274 3062.23 965.549 3063.79 990.276 3073.18 1013.36 3089.39 1032.4 3095.26 1061.82 3115.9 1085.94 3143.22 1096.73L3143.22 1133.24C3143.21 1151.73 3158.17 1167 3176.98 1167ZM3201.23 1133.24C3201.23 1146.6 3190.35 1157.47 3176.98 1157.47 3163.6 1157.47 3152.74 1146.65 3152.74 1133.24L3152.74 1099.88C3167.26 1103.74 3186.74 1103.86 3201.23 1100.36ZM3089.13 987.051C3088.21 987.948 3087.68 989.182 3087.68 990.473L3087.68 1014.06C3078.32 999.277 3072.84 982.573 3071.74 964.952 3067.73 901.352 3120.13 848.769 3183.86 852.744 3236.6 856.073 3278.91 898.411 3282.27 951.23 3283.6 972.359 3278.65 993.091 3268.23 1011.06L3268.23 972.869C3268.23 970.388 3266.32 968.322 3263.85 968.12 3246.95 966.74 3230.29 959.953 3212.9 947.379 3209.11 944.643 3204.09 944.695 3200.39 947.503 3164.92 974.38 3129.63 986.882 3092.59 985.713 3091.34 985.625 3090.06 986.154 3089.13 987.051ZM3097.21 1015.2 3097.21 995.315 3097.36 995.315C3134.83 995.315 3170.47 982.126 3206.13 955.098 3206.48 954.831 3206.95 954.828 3207.32 955.1 3224.69 967.659 3241.54 974.898 3258.7 977.151L3258.7 1015.2C3258.7 1118.88 3097.21 1119.82 3097.21 1015.2Z" fill="#F05845" fill-rule="evenodd"/><path d="M3201.77 1059.8C3202.47 1061.77 3204.3 1063 3206.24 1063 3206.78 1063 3207.33 1062.91 3207.86 1062.71 3210.33 1061.8 3211.61 1059.01 3210.71 1056.49 3205.72 1042.44 3192.51 1033 3177.85 1033 3163.4 1033 3150.64 1041.87 3145.33 1055.58 3144.37 1058.08 3145.57 1060.9 3148.01 1061.88 3150.45 1062.86 3153.22 1061.64 3154.18 1059.14 3158.04 1049.16 3167.33 1042.71 3177.85 1042.71 3188.52 1042.71 3198.14 1049.58 3201.77 1059.8Z" fill="#F05845" fill-rule="evenodd"/><path d="M3326.22 1037.65C3328.27 1038.48 3330.59 1037.8 3331.87 1036.07L3373.46 980.185C3375.23 977.808 3375.49 974.689 3374.15 972.049 3372.81 969.41 3370.13 967.77 3367.15 967.77L3359.04 967.77 3369.05 945.264C3370.45 942.111 3370.16 938.504 3368.26 935.613 3366.37 932.726 3363.17 931 3359.7 931L3332.97 931C3328.44 931 3324.4 934.02 3323.15 938.347L3309.34 985.995C3308.59 988.611 3309.1 991.358 3310.74 993.533 3312.39 995.709 3314.9 996.954 3317.65 996.954L3328.13 996.954 3323.27 1032.6C3322.98 1034.76 3324.19 1036.83 3326.22 1037.65ZM3318.89 987.436 3332.35 940.98C3332.43 940.707 3332.69 940.518 3332.97 940.518L3359.7 940.518C3359.78 940.518 3360.05 940.518 3360.24 940.808 3360.43 941.099 3360.32 941.338 3360.29 941.416L3347.31 970.605C3346.65 972.077 3346.79 973.778 3347.67 975.125 3348.56 976.476 3350.07 977.288 3351.69 977.288L3363.7 977.288 3335.27 1015.49 3338.36 992.833C3338.55 991.473 3338.13 990.097 3337.22 989.063 3336.31 988.031 3334.99 987.436 3333.61 987.436Z" fill="#F05845" fill-rule="evenodd"/><path d="M2998.13 996.954 2993.28 1032.6C2992.98 1034.76 2994.19 1036.83 2996.22 1037.65 2998.27 1038.48 3000.59 1037.8 3001.87 1036.07L3043.46 980.185C3045.23 977.808 3045.49 974.689 3044.15 972.049 3042.81 969.41 3040.13 967.77 3037.15 967.77L3029.04 967.77 3039.05 945.264C3040.45 942.111 3040.16 938.504 3038.26 935.613 3036.37 932.726 3033.17 931 3029.7 931L3002.97 931C2998.44 931 2994.4 934.02 2993.15 938.347L2979.34 985.995C2978.59 988.611 2979.1 991.358 2980.74 993.533 2982.39 995.709 2984.9 996.954 2987.65 996.954ZM3002.35 940.98C3002.43 940.707 3002.69 940.518 3002.97 940.518L3029.7 940.518C3029.78 940.518 3030.05 940.518 3030.24 940.808 3030.43 941.099 3030.32 941.338 3030.29 941.416L3017.31 970.605C3016.65 972.077 3016.79 973.778 3017.67 975.125 3018.56 976.476 3020.07 977.288 3021.69 977.288L3033.7 977.288 3005.27 1015.49 3008.36 992.833C3008.55 991.473 3008.13 990.097 3007.22 989.063 3006.31 988.031 3004.99 987.436 3003.61 987.436L2988.89 987.436Z" fill="#F05845" fill-rule="evenodd"/></g></svg>