<svg width="684" height="683" xmlns="http://www.w3.org/2000/svg" xmlns:xlink="http://www.w3.org/1999/xlink" xml:space="preserve" overflow="hidden"><g transform="translate(-1294 -20)"><path d="M1297.94 361.937C1297.94 175.54 1449.27 24.4363 1635.94 24.4363 1822.62 24.4363 1973.94 175.54 1973.94 361.937 1973.94 548.333 1822.62 699.437 1635.94 699.437 1449.27 699.437 1297.94 548.333 1297.94 361.937Z" stroke="#92D050" stroke-width="6.875" stroke-miterlimit="8" fill="none" fill-rule="evenodd"/><path d="M1961 361.5C1961 540.716 1815.72 686 1636.5 686 1457.28 686 1312 540.716 1312 361.5 1312 182.284 1457.28 37.0001 1636.5 37.0001 1815.72 37.0001 1961 182.284 1961 361.5Z" fill="#92D050" fill-rule="evenodd"/><path d="M1592.51 309.13C1587.63 309.13 1578.61 310.102 1578.61 302.082 1578.61 298.194 1581.78 295.035 1585.68 295.035L1611.52 295.035C1623.22 295.035 1632.48 306.213 1632.48 319.822 1632.48 333.675 1622.97 344.853 1611.52 344.853 1595.67 344.853 1585.68 325.169 1592.51 309.13ZM1795.54 566C1693.41 566 1591.29 566 1489.4 566 1485.5 566 1482.34 562.841 1482.34 558.953L1482.34 495.525C1482.34 456.885 1514.02 425.293 1552.78 425.293L1581.78 425.293 1588.85 397.831C1564.23 385.438 1547.17 359.678 1547.17 330.272L1547.17 313.504C1532.55 287.987 1528.65 261.012 1535.71 235.252 1548.88 188.349 1597.87 157 1643.93 157 1699.26 157 1733.63 199.771 1759.22 179.844 1763.37 176.685 1769.7 179.115 1770.68 184.461 1770.92 186.648 1779.21 240.841 1737.53 265.629L1737.53 330.272C1737.53 359.678 1720.71 385.438 1696.09 397.831L1702.92 425.293 1731.92 425.293C1770.92 425.293 1802.61 456.885 1802.61 495.525L1802.61 558.953C1802.61 562.841 1799.44 566 1795.54 566ZM1584.46 439.388 1552.78 439.388C1521.82 439.388 1496.47 464.661 1496.47 495.525L1496.47 551.905 1544.73 551.905 1544.73 520.313C1544.73 510.835 1558.87 510.835 1558.87 520.313L1558.87 551.905 1725.83 551.905 1725.83 520.313C1725.83 510.835 1739.97 510.835 1739.97 520.313L1739.97 551.905 1788.47 551.905 1788.47 495.525C1788.47 464.661 1763.12 439.388 1731.92 439.388L1700.48 439.388 1647.35 492.123C1644.67 495.039 1640.28 495.039 1637.35 492.123ZM1595.19 430.153 1642.47 477.298 1689.76 430.153 1682.69 403.178C1676.11 405.122 1669.04 406.094 1661.73 406.094L1623.22 406.094C1615.9 406.094 1608.84 405.122 1602.01 403.178ZM1599.09 387.139C1599.57 387.382 1600.06 387.382 1600.3 387.625 1607.37 390.541 1615.17 391.999 1623.22 391.999L1661.73 391.999C1695.12 391.999 1723.64 364.781 1723.64 330.272L1723.64 265.143C1687.81 241.085 1665.87 250.805 1632.48 273.406 1615.9 284.342 1602.99 284.585 1592.51 284.585 1579.1 284.585 1571.79 284.828 1561.31 312.775L1561.31 330.272C1561.31 355.789 1576.91 377.904 1599.09 387.139ZM1599.82 494.31 1568.62 494.31C1559.36 494.31 1559.36 480.215 1568.62 480.215L1599.82 480.215C1609.08 480.215 1609.08 494.31 1599.82 494.31ZM1643.93 171.095C1585.19 171.095 1525.48 227.718 1553.75 294.792 1573.74 254.693 1593.97 282.155 1624.68 261.741 1661.97 236.467 1689.76 225.531 1730.95 253.236 1754.35 238.654 1757.52 211.922 1757.27 197.098 1725.1 209.006 1691.71 171.095 1643.93 171.095ZM1474.05 231.121C1453.57 231.121 1437 214.352 1437 193.939 1437 173.525 1453.57 157 1474.05 157 1494.52 157 1511.34 173.525 1511.34 193.939 1511.34 214.352 1494.52 231.121 1474.05 231.121ZM1474.05 171.095C1461.37 171.095 1451.14 181.302 1451.14 193.939 1451.14 206.576 1461.37 217.026 1474.05 217.026 1486.72 217.026 1497.2 206.576 1497.2 193.939 1497.2 181.302 1486.72 171.095 1474.05 171.095ZM1478.44 311.074C1469.9 311.074 1471.37 301.596 1471.37 296.007 1466 296.007 1456.5 297.465 1456.5 288.959 1456.5 280.696 1466 281.912 1471.37 281.912 1471.37 276.565 1469.9 267.088 1478.44 267.088 1486.97 267.088 1485.5 276.565 1485.5 281.912 1491.11 281.912 1500.62 280.696 1500.62 288.959 1500.62 297.465 1491.11 296.007 1485.5 296.007 1485.5 301.596 1486.97 311.074 1478.44 311.074ZM1793.59 279.239C1785.06 279.239 1786.52 269.761 1786.52 264.171 1780.92 264.171 1771.41 265.629 1771.41 257.124 1771.41 248.861 1780.92 250.076 1786.52 250.076 1786.52 244.73 1785.06 235.252 1793.59 235.252 1801.88 235.252 1800.66 244.73 1800.66 250.076 1806.02 250.076 1815.53 248.861 1815.53 257.124 1815.53 265.629 1806.02 264.171 1800.66 264.171 1800.66 269.761 1801.88 279.239 1793.59 279.239ZM1813.82 440.603C1805.29 440.603 1806.75 431.125 1806.75 425.536 1801.39 425.536 1791.64 426.993 1791.64 418.731 1791.64 410.225 1801.39 411.684 1806.75 411.684 1806.75 406.094 1805.29 396.616 1813.82 396.616 1822.35 396.616 1820.89 406.094 1820.89 411.684 1826.49 411.684 1836 410.225 1836 418.731 1836 426.993 1826.49 425.536 1820.89 425.536 1820.89 431.125 1822.35 440.603 1813.82 440.603ZM1667.33 372.557C1660.75 372.557 1662.7 365.267 1642.47 365.267 1631.75 365.267 1624.68 367.94 1622.97 370.127 1616.88 377.175 1606.15 367.94 1612.25 360.892 1623.46 347.77 1661.24 347.77 1672.7 360.892 1676.6 365.51 1673.18 372.557 1667.33 372.557ZM1790.91 374.016C1770.43 374.016 1753.86 357.49 1753.86 337.077 1753.86 316.663 1770.43 299.895 1790.91 299.895 1811.38 299.895 1828.2 316.663 1828.2 337.077 1828.2 357.49 1811.38 374.016 1790.91 374.016ZM1790.91 313.99C1778.23 313.99 1768 324.44 1768 337.077 1768 349.714 1778.23 359.921 1790.91 359.921 1803.58 359.921 1814.06 349.714 1814.06 337.077 1814.06 324.44 1803.58 313.99 1790.91 313.99ZM1485.5 426.022C1468.2 426.022 1454.06 411.927 1454.06 394.672 1454.06 377.418 1468.2 363.323 1485.5 363.323 1502.81 363.323 1516.95 377.418 1516.95 394.672 1516.95 411.927 1502.81 426.022 1485.5 426.022ZM1485.5 377.418C1476 377.418 1468.2 385.195 1468.2 394.672 1468.2 404.15 1476 411.927 1485.5 411.927 1495.01 411.927 1502.81 404.15 1502.81 394.672 1502.81 385.195 1495.01 377.418 1485.5 377.418ZM1611.52 309.13C1602.25 309.13 1602.25 330.758 1611.52 330.758 1620.54 330.758 1620.54 309.13 1611.52 309.13ZM1685.13 344.853C1669.28 344.853 1659.29 325.169 1666.11 309.13 1661.48 309.13 1652.46 310.102 1652.46 302.082 1652.46 298.194 1655.63 295.035 1659.53 295.035L1685.61 295.035C1697.07 295.278 1706.09 306.456 1706.09 319.822 1706.09 333.675 1696.58 344.853 1685.13 344.853ZM1685.13 309.13C1675.86 309.13 1675.86 330.758 1685.13 330.758 1694.14 330.758 1694.14 309.13 1685.13 309.13Z" fill="#FDFDFD" fill-rule="evenodd"/></g></svg>