<svg width="671" height="670" xmlns="http://www.w3.org/2000/svg" xmlns:xlink="http://www.w3.org/1999/xlink" xml:space="preserve" overflow="hidden"><g transform="translate(-2884 -33)"><path d="M2887.95 368.438C2887.95 185.631 3036.37 37.4376 3219.45 37.4376 3402.54 37.4376 3550.95 185.631 3550.95 368.438 3550.95 551.244 3402.54 699.438 3219.45 699.438 3036.37 699.438 2887.95 551.244 2887.95 368.438Z" stroke="#92D050" stroke-width="6.875" stroke-miterlimit="8" fill="none" fill-rule="evenodd"/><path d="M3537 368C3537 543.075 3394.85 685 3219.5 685 3044.15 685 2902 543.075 2902 368 2902 192.926 3044.15 50.9999 3219.5 50.9999 3394.85 50.9999 3537 192.926 3537 368Z" fill="#92D050" fill-rule="evenodd"/><path d="M3062 518.619 3062 555.309C3062 566.717 3071.31 576 3082.74 576L3336.26 576C3347.69 576 3357 566.718 3357 555.309L3357 518.619C3357 469.754 3317.16 430 3268.19 430L3257.58 430C3254.95 430 3252.81 432.129 3252.81 434.753 3252.81 437.376 3254.95 439.505 3257.58 439.505L3268.19 439.505C3311.9 439.505 3347.47 474.995 3347.47 518.619L3347.47 555.309C3347.47 561.476 3342.44 566.495 3336.26 566.495L3313.01 566.495 3309.18 525.624C3308.93 523.009 3306.61 521.066 3303.99 521.335 3301.37 521.58 3299.44 523.894 3299.69 526.508L3303.44 566.494 3115.56 566.494 3119.31 526.508C3119.55 523.894 3117.63 521.58 3115.01 521.335 3112.38 521.071 3110.06 523.009 3109.82 525.624L3105.99 566.495 3082.74 566.495C3076.56 566.495 3071.53 561.476 3071.53 555.309L3071.53 518.619C3071.53 474.995 3107.1 439.505 3150.81 439.505L3161.42 439.505C3164.05 439.505 3166.19 437.376 3166.19 434.753 3166.19 432.129 3164.05 430 3161.42 430L3150.81 430C3101.84 430 3062 469.754 3062 518.619Z" fill="#FFFFFF" fill-rule="evenodd"/><path d="M3208.98 484C3227.6 484 3242.75 468.855 3242.75 450.237L3242.75 414.494C3271.87 403.804 3293.76 378.048 3299 346.719 3316.78 324.347 3325.58 296.319 3323.77 267.623 3320.1 210.03 3273.97 163.862 3216.46 160.232 3146.97 155.882 3089.87 213.274 3094.23 282.549 3095.79 307.276 3105.18 330.355 3121.39 349.403 3127.26 378.818 3147.9 402.943 3175.22 413.726L3175.22 450.236C3175.21 468.73 3190.17 484 3208.98 484ZM3233.23 450.237C3233.23 463.6 3222.35 474.472 3208.98 474.472 3195.6 474.472 3184.74 463.648 3184.74 450.237L3184.74 416.875C3199.26 420.743 3218.74 420.864 3233.23 417.36ZM3121.13 304.051C3120.21 304.948 3119.68 306.182 3119.68 307.473L3119.68 331.058C3110.32 316.277 3104.84 299.573 3103.74 281.952 3099.73 218.352 3152.13 165.768 3215.86 169.744 3268.6 173.073 3310.91 215.411 3314.27 268.23 3315.6 289.359 3310.65 310.091 3300.23 328.064L3300.23 289.869C3300.23 287.388 3298.32 285.322 3295.85 285.12 3278.95 283.74 3262.29 276.953 3244.9 264.379 3241.11 261.643 3236.09 261.695 3232.38 264.503 3196.92 291.38 3161.63 303.882 3124.59 302.713 3123.34 302.625 3122.06 303.154 3121.13 304.051ZM3129.21 332.202 3129.21 312.314 3129.36 312.314C3166.83 312.314 3202.47 299.126 3238.13 272.098 3238.48 271.831 3238.95 271.828 3239.32 272.1 3256.69 284.659 3273.54 291.898 3290.7 294.151L3290.7 332.202C3290.7 435.876 3129.21 436.821 3129.21 332.202Z" fill="#FFFFFF" fill-rule="evenodd"/><path d="M3233.77 376.802C3234.47 378.773 3236.3 380 3238.24 380 3238.78 380 3239.33 379.908 3239.86 379.709 3242.33 378.795 3243.61 376.013 3242.71 373.491 3237.72 359.44 3224.51 350 3209.85 350 3195.4 350 3182.64 358.866 3177.33 372.583 3176.37 375.08 3177.57 377.897 3180.01 378.88 3182.45 379.86 3185.22 378.644 3186.18 376.145 3190.04 366.158 3199.33 359.706 3209.85 359.706 3220.52 359.707 3230.14 366.576 3233.77 376.802Z" fill="#FFFFFF" fill-rule="evenodd"/><path d="M3358.96 354.65C3360.98 355.475 3363.26 354.8 3364.53 353.07L3405.48 297.185C3407.22 294.808 3407.49 291.689 3406.17 289.049 3404.84 286.41 3402.2 284.77 3399.27 284.77L3391.28 284.77 3401.14 262.264C3402.52 259.11 3402.23 255.504 3400.36 252.613 3398.5 249.726 3395.35 248 3391.93 248L3365.61 248C3361.15 248 3357.17 251.02 3355.93 255.347L3342.34 302.995C3341.59 305.611 3342.09 308.358 3343.72 310.533 3345.34 312.709 3347.82 313.954 3350.51 313.954L3360.84 313.954 3356.06 349.603C3355.77 351.757 3356.96 353.832 3358.96 354.65ZM3351.74 304.436 3365 257.98C3365.08 257.707 3365.33 257.518 3365.61 257.518L3391.93 257.518C3392.02 257.518 3392.27 257.518 3392.46 257.808 3392.65 258.099 3392.54 258.338 3392.51 258.416L3379.73 287.605C3379.08 289.077 3379.22 290.778 3380.09 292.125 3380.96 293.476 3382.45 294.288 3384.04 294.288L3395.87 294.288 3367.87 332.491 3370.91 309.833C3371.1 308.473 3370.69 307.097 3369.79 306.063 3368.9 305.031 3367.6 304.436 3366.24 304.436Z" fill="#FFFFFF" fill-rule="evenodd"/><path d="M3030.84 313.954 3026.06 349.603C3025.77 351.757 3026.96 353.833 3028.96 354.65 3030.98 355.475 3033.26 354.8 3034.53 353.07L3075.48 297.185C3077.22 294.808 3077.49 291.689 3076.17 289.049 3074.84 286.41 3072.2 284.77 3069.27 284.77L3061.28 284.77 3071.14 262.264C3072.52 259.11 3072.23 255.504 3070.36 252.613 3068.5 249.726 3065.35 248 3061.93 248L3035.61 248C3031.15 248 3027.17 251.02 3025.93 255.347L3012.34 302.995C3011.59 305.611 3012.09 308.358 3013.72 310.533 3015.34 312.709 3017.82 313.954 3020.51 313.954ZM3035 257.98C3035.08 257.707 3035.33 257.518 3035.61 257.518L3061.93 257.518C3062.02 257.518 3062.27 257.518 3062.46 257.808 3062.65 258.099 3062.54 258.338 3062.51 258.416L3049.73 287.605C3049.08 289.077 3049.22 290.778 3050.09 292.125 3050.96 293.476 3052.45 294.288 3054.04 294.288L3065.87 294.288 3037.87 332.491 3040.91 309.833C3041.1 308.473 3040.69 307.097 3039.79 306.063 3038.9 305.031 3037.6 304.436 3036.24 304.436L3021.74 304.436Z" fill="#FFFFFF" fill-rule="evenodd"/></g></svg>