<svg width="684" height="684" xmlns="http://www.w3.org/2000/svg" xmlns:xlink="http://www.w3.org/1999/xlink" xml:space="preserve" overflow="hidden"><g transform="translate(-126 -73)"><path d="M129.943 415.436C129.943 228.764 281.27 77.4362 467.943 77.4362 654.615 77.4362 805.943 228.764 805.943 415.436 805.943 602.109 654.615 753.437 467.943 753.437 281.27 753.437 129.943 602.109 129.943 415.436Z" stroke="#92D050" stroke-width="6.875" stroke-miterlimit="8" fill="none" fill-rule="evenodd"/><path d="M793 415C793 594.493 647.493 740 468 740 288.507 740 143 594.493 143 415 143 235.507 288.507 90.0001 468 90.0001 647.493 90.0001 793 235.507 793 415Z" fill="#92D050" fill-rule="evenodd"/><path d="M521.317 622.997 484.887 622.993C481.738 622.993 479.389 620.002 480.141 616.945 492.194 568.107 510.314 493.875 511.098 488.537 511.279 486.003 513.391 484 515.973 484L532.251 484.003C534.535 484.003 536.508 485.581 537.014 487.801L548.947 540.269C550.024 545.017 534.376 566.282 532.429 572.078L526.157 618.765C525.833 621.19 523.761 623 521.317 623ZM491.117 613.24 517.042 613.24C517.778 607.773 522.342 570.087 523.458 568.102L539.002 540.591 528.351 493.76 519.939 493.76C516.378 510.278 503.043 564.852 491.117 613.237Z" fill="#FEFEFE" fill-rule="evenodd"/><path d="M413.684 623C411.237 623 409.166 621.19 408.843 618.767L402.574 572.08C400.627 566.284 384.976 545.017 386.053 540.27L397.987 487.798C398.492 485.579 400.471 484 402.749 484L419.03 484C421.61 484 423.725 486.003 423.905 488.538 424.687 493.878 442.814 568.113 454.858 616.952 455.613 620.012 453.268 623 450.115 623ZM395.996 540.592C398.14 544.388 411.85 567.752 412.13 569.855L417.956 613.244 443.877 613.244C431.951 564.859 418.62 510.277 415.054 493.761L406.645 493.761 395.996 540.594Z" fill="#FEFEFE" fill-rule="evenodd"/><path d="M467.365 532.998C451.181 532.998 434.995 527.541 421.755 516.62 416.902 512.615 423.144 505.374 427.989 509.375 450.949 528.325 484.187 528.221 507.024 509.133 509.054 507.432 512.114 507.676 513.843 509.663 515.576 511.651 515.336 514.644 513.301 516.343 500.023 527.444 483.692 533 467.363 533Z" fill="#FEFEFE" fill-rule="evenodd"/><path d="M515.825 494C514.457 494 513.091 493.453 512.104 492.37 501.133 480.408 499.522 464.161 500.103 452.636 500.431 446.11 510.443 446.657 510.117 453.124 508.563 484.052 526.649 486.126 519.188 492.728 518.224 493.576 517.023 493.998 515.825 493.998Z" fill="#FEFEFE" fill-rule="evenodd"/><path d="M465.906 473C445.036 473 435.814 463.517 420.762 453.217 402.152 440.475 391.648 433.278 391.032 402.686 361.801 386.077 364.175 363.508 383.457 346.997 383.834 321.409 390.437 303.757 403.609 293.083 404.869 292.061 406.553 291.739 408.103 292.217 449.548 305.028 484.676 304.945 526.074 292.217 527.628 291.743 529.304 292.063 530.567 293.083 547.924 307.151 550.481 331.68 550.573 349.904 570.404 365.311 571.536 386.514 542.954 402.686 542.214 439.379 526.365 443.315 501.956 461.112 491.439 468.779 478.639 473 465.903 473ZM407.825 302.334C397.971 311.597 393.171 327.014 393.171 349.35 393.171 355.153 377.716 360.113 378.791 374.508 379.346 381.944 385.853 388.991 398.126 395.453 399.727 396.297 400.732 397.961 400.732 399.772 400.732 434.772 413.45 435.099 440.063 454.926 456.608 467.251 479.789 465.209 496.236 453.217 521.388 434.884 533.25 433.828 533.25 399.774 533.25 397.961 534.255 396.297 535.855 395.453 544.467 390.921 554.816 383.686 555.227 374.97 555.847 361.831 540.801 358.361 540.837 352.371 540.935 336.69 539.492 314.796 526.341 302.344 485.382 314.62 448.828 314.625 407.823 302.334Z" fill="#FEFEFE" fill-rule="evenodd"/><path d="M618.128 622.997 315.868 622.997C313.181 622.997 311 620.809 311 618.118L311 554.048C311 515.426 342.349 484 380.882 484L418.656 484.003C425.064 484.003 425.064 493.76 418.656 493.76L380.882 493.76C347.718 493.76 320.736 520.8 320.736 554.045L320.736 613.237 613.26 613.237 613.26 554.045C613.26 520.8 586.283 493.76 553.113 493.76L515.335 493.76C508.926 493.76 508.929 484.003 515.335 484.003L553.113 484.003C591.647 484.003 623 515.423 623 554.05L623 618.121C622.998 620.814 620.817 623 618.13 623Z" fill="#FEFEFE" fill-rule="evenodd"/><path d="M546.034 357.998C541.685 357.998 539.506 352.636 542.677 349.593 558.208 334.664 556.34 300.021 555.92 294.347 545.618 271.702 550.958 255.411 554.327 248.602 538.489 233.061 499.212 238.474 484.754 242.074 479.648 243.357 476.464 236.6 480.671 233.43L494.988 222.64C426.982 212.568 348.366 290.193 392.678 347.069 396.606 352.109 388.957 358.125 385.031 353.085 332.361 285.471 428.916 193 507.751 215.426 511.608 216.524 512.548 221.608 509.339 224.029L502.441 229.225C522.046 227.136 550.766 227.595 564.119 245.017 569.13 251.55 550.421 259.68 565.078 291.003 566.302 293.622 569.339 337.49 549.386 356.653 548.448 357.554 547.239 358 546.031 358Z" fill="#FEFEFE" fill-rule="evenodd"/><path d="M418.811 494C414.687 494 412.444 488.954 415.245 485.772 430.822 468.083 418.643 448.505 428.862 448.005 431.508 447.877 433.773 449.968 433.903 452.68 434.458 464.197 432.909 480.426 422.384 492.37 421.434 493.449 420.124 493.998 418.814 493.998Z" fill="#FEFEFE" fill-rule="evenodd"/><path d="M631.293 312.998C615.799 312.998 610.189 303.156 604.184 292.775 600.976 287.232 609.406 282.349 612.633 287.904L616.658 294.859C627.859 314.227 656.865 297.114 645.838 278.045 642.257 271.856 637.393 272.346 638.291 267.401 639.062 263.159 642.952 263.884 646.821 261.654 666.02 250.587 649.179 221.466 629.968 232.529 626.093 234.763 624.788 238.49 620.716 237.027 614.677 234.858 620.28 221.43 605.025 217.35 590.559 213.482 578.59 229.06 586.075 241.999 588.753 246.626 593.668 252.512 588.319 255.604 582.958 258.701 580.299 251.481 577.631 246.867 565.801 226.411 584.746 201.845 607.559 207.948 615.753 210.139 622.363 216.035 625.441 223.908 638.098 216.863 654.172 221.257 661.441 233.821 668.713 246.39 664.48 262.484 652.043 269.894 665.966 287.308 653.411 313.001 631.29 313.001Z" fill="#FEFEFE" fill-rule="evenodd"/><path d="M555.821 283C551.39 283 549.293 277.322 552.669 274.331L589.989 241.266C594.786 237.014 601.082 244.484 596.287 248.732L558.966 281.796C558.061 282.6 556.936 283 555.821 283Z" fill="#FEFEFE" fill-rule="evenodd"/><path d="M560.882 311.998C555.409 311.998 554.072 304.197 559.276 302.374L616.511 282.316C622.612 280.176 625.829 289.528 619.728 291.668 613.274 293.932 563 312 560.882 312Z" fill="#FEFEFE" fill-rule="evenodd"/><path d="M304.665 313.001C282.432 313.001 270.029 287.111 283.918 269.849 263.779 257.843 268.065 227.416 290.678 221.359 297.419 219.551 304.453 220.428 310.528 223.82 319.952 199.95 354.396 202.021 361.005 226.636 364.103 238.184 359.434 244.941 354.32 253.764 351.1 259.32 342.661 254.442 345.871 248.891 349.758 242.168 353.737 237.195 351.58 229.159 346.618 210.671 319.45 213.79 318.474 232.619 318.252 236.929 312.911 238.827 310.003 235.657 298.163 222.745 276.743 234.429 281.29 251.376 284.965 265.066 296.524 261.038 297.671 267.347 298.815 273.643 284.348 275.531 288.436 290.77 292.301 305.174 311.811 307.791 319.303 294.828 321.99 290.183 324.632 282.997 329.994 286.085 335.356 289.172 330.431 295.069 327.754 299.706 322.834 308.234 313.872 313.001 304.665 313.001Z" fill="#FEFEFE" fill-rule="evenodd"/><path d="M382.092 284C380.954 284 379.814 283.613 378.887 282.819L338.746 248.562C333.859 244.394 340.278 237.075 345.163 241.24L385.301 275.497C388.741 278.433 386.596 284 382.092 284Z" fill="#FEFEFE" fill-rule="evenodd"/><path d="M375.12 312C373.117 312 322.639 293.898 316.269 291.665 310.18 289.528 313.376 280.176 319.485 282.316L376.728 302.377C381.922 304.199 380.596 312 375.12 312Z" fill="#FEFEFE" fill-rule="evenodd"/><path d="M445.144 368.001C442.471 368.001 418.758 354.432 414.562 352.169 408.927 349.134 413.548 340.608 419.185 343.643L447.459 358.888C451.886 361.274 450.154 367.998 445.144 367.998Z" fill="#FEFEFE" fill-rule="evenodd"/><path d="M489.857 367.998C484.848 367.998 483.112 361.279 487.54 358.89L515.822 343.644C521.439 340.607 526.076 349.131 520.442 352.171 516.253 354.431 492.525 368.001 489.854 368.001Z" fill="#FEFEFE" fill-rule="evenodd"/><path d="M484.619 429.998 450.378 429.998C433.878 429.998 433.871 405 450.378 405L484.619 405.002C501.129 405.002 501.126 430 484.619 430ZM450.378 414.684C446.669 414.684 446.669 420.312 450.378 420.312L484.619 420.312C488.326 420.312 488.328 414.681 484.619 414.681Z" fill="#FEFEFE" fill-rule="evenodd"/></g></svg>