<svg width="584" height="583" xmlns="http://www.w3.org/2000/svg" xmlns:xlink="http://www.w3.org/1999/xlink" xml:space="preserve" overflow="hidden"><g transform="translate(-694 -817)"><path d="M697.662 1108.83C697.662 949.778 826.831 820.839 986.159 820.839 1145.49 820.839 1274.66 949.778 1274.66 1108.83 1274.66 1267.89 1145.49 1396.84 986.159 1396.84 826.831 1396.84 697.662 1267.89 697.662 1108.83Z" stroke="#F15A45" stroke-width="5.73025" stroke-miterlimit="8" fill="none" fill-rule="evenodd"/><path d="M1263.01 1109.01C1263.01 1260.89 1139.89 1384.01 988.007 1384.01 836.129 1384.01 713.007 1260.89 713.007 1109.01 713.007 957.129 836.129 834.007 988.007 834.007 1139.89 834.007 1263.01 957.129 1263.01 1109.01Z" fill="#FFFFFF" fill-rule="evenodd"/><path d="M945.265 1265.01C922.38 1265.01 902.919 1246.06 899.17 1220.55 877.61 1210.81 863.805 1189.52 863.805 1165.66 863.805 1162.97 863.984 1160.28 864.339 1157.62 848.428 1146.32 839.007 1128.14 839.007 1108.51 839.007 1083.62 854.476 1061.31 877.26 1052.4 872.952 1045.85 870.627 1038.16 870.627 1030.22 870.627 1007.99 888.675 989.907 910.858 989.907 911.11 989.907 911.364 989.909 911.618 989.914 912.865 968.799 930.401 952.007 951.777 952.007 973.96 952.007 992.008 970.094 992.008 992.324L992.008 1211.64C992.007 1241.07 971.039 1265.01 945.265 1265.01ZM910.858 997.853C893.048 997.853 878.557 1012.37 878.557 1030.22 878.557 1038.17 881.463 1045.82 886.738 1051.75 887.647 1052.77 887.967 1054.19 887.584 1055.51 887.202 1056.82 886.172 1057.85 884.856 1058.22 862.53 1064.55 846.937 1085.23 846.937 1108.51 846.937 1126.31 855.857 1142.72 870.796 1152.41 872.137 1153.28 872.826 1154.87 872.545 1156.44 872.008 1159.46 871.735 1162.57 871.735 1165.66 871.735 1187.06 884.521 1206.07 904.304 1214.11 905.659 1214.66 906.601 1215.91 906.758 1217.37 909.194 1239.99 925.747 1257.06 945.264 1257.06 966.664 1257.06 984.076 1236.68 984.076 1211.64L984.076 992.324C984.076 974.476 969.586 959.955 951.776 959.955 943.148 959.955 935.037 963.322 928.937 969.435 922.836 975.55 919.476 983.679 919.476 992.324 919.476 992.863 919.49 993.421 919.519 993.984 919.578 995.16 919.113 996.301 918.253 997.099 917.391 997.899 916.22 998.274 915.056 998.127 913.645 997.946 912.233 997.854 910.858 997.854Z" fill="#F05845" fill-rule="evenodd"/><path d="M949.956 1042.01C949.326 1042.01 948.688 1041.86 948.091 1041.56 940.545 1037.75 933.918 1032.99 928.392 1027.41 922.344 1021.31 914.465 1010.98 911.262 996.443 911.23 996.295 911.203 996.175 911.184 996.086 910.577 994.156 911.579 992.063 913.542 991.294 915.614 990.48 917.973 991.455 918.81 993.469 918.974 993.864 919.046 994.195 919.179 994.798 921.983 1007.52 928.909 1016.59 934.226 1021.96 939.141 1026.92 945.062 1031.17 951.826 1034.59 953.81 1035.59 954.581 1037.96 953.551 1039.89 952.829 1041.24 951.417 1042.01 949.956 1042.01ZM911.202 996.142C911.24 996.264 911.278 996.354 911.302 996.412 911.266 996.322 911.232 996.232 911.202 996.142Z" fill="#F05845" fill-rule="evenodd"/><path d="M918.005 1052.01C917.362 1052.01 916.71 1051.86 916.105 1051.54 914.162 1050.52 913.439 1048.17 914.49 1046.29L927.488 1023.04C928.539 1021.16 930.967 1020.46 932.91 1021.47 934.853 1022.49 935.576 1024.84 934.525 1026.72L921.527 1049.98C920.802 1051.27 919.426 1052.01 918.005 1052.01Z" fill="#F05845" fill-rule="evenodd"/><path d="M988.023 1078.01C987.973 1078.01 987.923 1078.01 987.874 1078 956.72 1076.88 946.88 1059.47 946.476 1058.73 945.441 1056.84 946.177 1054.48 948.121 1053.47 950.058 1052.46 952.46 1053.17 953.503 1055.05 953.872 1055.7 961.944 1069.28 988.166 1070.22 990.367 1070.3 992.086 1072.1 992.005 1074.25 991.926 1076.36 990.157 1078.01 988.023 1078.01Z" fill="#F05845" fill-rule="evenodd"/><path d="M932.986 1128.01C932.577 1128.01 932.161 1127.94 931.751 1127.81 929.664 1127.14 928.523 1124.92 929.204 1122.86 934.327 1107.37 942.398 1097.99 953.193 1095.01 971.362 1089.99 989.843 1105.41 990.621 1106.07 992.288 1107.48 992.478 1109.96 991.049 1111.6 989.618 1113.25 987.111 1113.44 985.444 1112.03 985.285 1111.89 969.368 1098.67 955.314 1102.58 947.248 1104.82 941.007 1112.46 936.765 1125.3 936.219 1126.95 934.661 1128.01 932.987 1128.01Z" fill="#F05845" fill-rule="evenodd"/><path d="M941.006 1112.01 915.008 1112.01C912.798 1112.01 911.007 1110.22 911.007 1108.01 911.007 1105.8 912.798 1104.01 915.008 1104.01L941.006 1104.01C943.217 1104.01 945.008 1105.8 945.008 1108.01 945.008 1110.22 943.217 1112.01 941.006 1112.01Z" fill="#F05845" fill-rule="evenodd"/><path d="M905.835 1125.01C905.034 1125.01 904.226 1124.74 903.537 1124.2 901.845 1122.87 901.505 1120.35 902.775 1118.57L910.469 1107.82 903.004 1096.29C901.813 1094.45 902.268 1091.95 904.017 1090.7 905.766 1089.45 908.149 1089.93 909.339 1091.77L918.344 1105.67C919.265 1107.1 919.223 1108.97 918.24 1110.35L908.901 1123.4C908.148 1124.45 906.998 1125.01 905.835 1125.01Z" fill="#F05845" fill-rule="evenodd"/><path d="M984.394 1166.01C976.008 1166.01 963.661 1162.69 956.034 1150.45 952.242 1154.67 945.98 1159.98 937.905 1160.9 930.063 1161.79 922.402 1158.45 915.135 1150.96 913.6 1149.37 913.637 1146.85 915.217 1145.31 916.797 1143.77 919.322 1143.81 920.857 1145.39 926.312 1151.01 931.745 1153.56 937.001 1152.96 946.455 1151.88 953.243 1141.04 953.308 1140.93 954.089 1139.64 955.529 1138.9 957.037 1139.02 958.542 1139.14 959.85 1140.1 960.417 1141.5 968.108 1160.48 986.629 1157.92 987.415 1157.8 989.587 1157.47 991.623 1158.96 991.959 1161.14 992.296 1163.31 990.823 1165.35 988.655 1165.69 987.414 1165.89 985.973 1166.01 984.394 1166.01Z" fill="#F05845" fill-rule="evenodd"/><path d="M922.885 1177.01C920.799 1177.01 919.078 1175.26 919.017 1173.06 918.642 1159.33 928.721 1152.85 929.152 1152.58 930.988 1151.43 933.363 1152.06 934.459 1153.99 935.551 1155.91 934.96 1158.39 933.142 1159.55 932.817 1159.76 926.516 1164 926.757 1172.83 926.819 1175.07 925.136 1176.94 922.998 1177.01 922.96 1177.01 922.922 1177.01 922.885 1177.01Z" fill="#F05845" fill-rule="evenodd"/><path d="M922.082 1258.01C920.716 1258.01 919.391 1257.27 918.68 1255.95 918.084 1254.85 904.292 1228.7 922.016 1204.6 923.311 1202.83 925.75 1202.48 927.464 1203.82 929.177 1205.15 929.515 1207.66 928.22 1209.42 913.521 1229.41 925.355 1251.84 925.477 1252.06 926.521 1253.99 925.845 1256.43 923.969 1257.5 923.371 1257.84 922.722 1258.01 922.082 1258.01Z" fill="#F05845" fill-rule="evenodd"/><path d="M917.015 1241.01C915.838 1241.01 914.674 1240.5 913.883 1239.52 912.503 1237.81 912.784 1235.32 914.512 1233.95 915.331 1233.3 932.599 1219.89 950.908 1223.22 949.631 1216.52 948.932 1206.64 953.687 1199.9 955.819 1196.89 960.013 1193.24 967.884 1193.01 970.098 1192.95 971.939 1194.66 972.006 1196.85 972.07 1199.04 970.332 1200.86 968.122 1200.93 964.419 1201.04 961.845 1202.19 960.25 1204.44 955.943 1210.54 958.936 1223.71 960.324 1227.84 960.826 1229.34 960.386 1230.99 959.2 1232.04 958.014 1233.09 956.312 1233.35 954.862 1232.7 938.55 1225.33 919.7 1239.99 919.51 1240.14 918.773 1240.72 917.891 1241.01 917.015 1241.01Z" fill="#F05845" fill-rule="evenodd"/><path d="M1030.75 1265.01C1004.98 1265.01 984.007 1241.07 984.007 1211.64L984.007 992.324C984.007 970.094 1002.05 952.007 1024.24 952.007 1034.98 952.007 1045.09 956.201 1052.68 963.815 1059.71 970.859 1063.82 980.051 1064.4 989.914 1064.65 989.909 1064.9 989.906 1065.16 989.906 1087.34 989.906 1105.39 1007.99 1105.39 1030.22 1105.39 1038.16 1103.06 1045.85 1098.75 1052.4 1121.54 1061.31 1137.01 1083.62 1137.01 1108.51 1137.01 1128.14 1127.59 1146.32 1111.68 1157.62 1112.03 1160.28 1112.21 1162.97 1112.21 1165.66 1112.21 1189.52 1098.4 1210.81 1076.84 1220.55 1073.1 1246.06 1053.63 1265.01 1030.75 1265.01ZM1024.24 959.955C1006.43 959.955 991.937 974.477 991.937 992.326L991.937 1211.64C991.937 1236.68 1009.35 1257.06 1030.75 1257.06 1050.27 1257.06 1066.82 1240 1069.26 1217.37 1069.41 1215.91 1070.35 1214.66 1071.71 1214.11 1091.49 1206.07 1104.28 1187.06 1104.28 1165.66 1104.28 1162.57 1104.01 1159.46 1103.47 1156.44 1103.19 1154.87 1103.88 1153.28 1105.22 1152.41 1120.16 1142.72 1129.08 1126.31 1129.08 1108.51 1129.08 1085.23 1113.48 1064.55 1091.16 1058.22 1089.84 1057.85 1088.81 1056.82 1088.43 1055.51 1088.05 1054.19 1088.37 1052.77 1089.28 1051.75 1094.55 1045.82 1097.46 1038.17 1097.46 1030.22 1097.46 1011 1080.65 995.612 1060.96 998.126 1059.79 998.276 1058.62 997.898 1057.76 997.099 1056.9 996.299 1056.44 995.16 1056.49 993.984 1056.52 993.421 1056.54 992.862 1056.54 992.324 1056.54 974.476 1042.05 959.955 1024.24 959.955Z" fill="#F05845" fill-rule="evenodd"/><path d="M1025.96 1042.01C1024.54 1042.01 1023.16 1041.24 1022.45 1039.89 1021.45 1037.96 1022.2 1035.59 1024.14 1034.59 1030.74 1031.17 1036.53 1026.92 1041.33 1021.96 1046.52 1016.59 1053.29 1007.52 1056.03 994.797 1056.16 994.194 1056.23 993.862 1056.39 993.469 1057.2 991.454 1059.51 990.481 1061.53 991.294 1063.45 992.063 1064.43 994.156 1063.84 996.085 1063.82 996.175 1063.79 996.294 1063.76 996.443 1060.63 1010.98 1052.93 1021.31 1047.03 1027.41 1041.63 1032.99 1035.16 1037.75 1027.79 1041.56 1027.2 1041.86 1026.58 1042.01 1025.96 1042.01ZM1063.82 996.141C1063.79 996.231 1063.75 996.321 1063.72 996.411 1063.74 996.352 1063.78 996.262 1063.82 996.141Z" fill="#F05845" fill-rule="evenodd"/><path d="M1057.2 1052.01C1055.85 1052.01 1054.54 1051.27 1053.85 1049.98L1041.47 1026.72C1040.47 1024.84 1041.15 1022.49 1043.01 1021.47 1044.85 1020.46 1047.17 1021.16 1048.17 1023.04L1060.55 1046.29C1061.55 1048.17 1060.86 1050.52 1059.01 1051.54 1058.43 1051.86 1057.81 1052.01 1057.2 1052.01Z" fill="#F05845" fill-rule="evenodd"/><path d="M987.992 1078.01C985.857 1078.01 984.089 1076.36 984.01 1074.26 983.928 1072.11 985.647 1070.3 987.847 1070.22 1014.14 1069.28 1022.18 1055.64 1022.51 1055.06 1023.55 1053.16 1025.96 1052.46 1027.9 1053.47 1029.84 1054.48 1030.57 1056.85 1029.54 1058.75 1029.13 1059.49 1019.29 1076.89 988.141 1078 988.091 1078.01 988.041 1078.01 987.992 1078.01Z" fill="#F05845" fill-rule="evenodd"/><path d="M1043.03 1128.01C1041.35 1128.01 1039.8 1126.95 1039.25 1125.3 1035 1112.46 1028.76 1104.82 1020.7 1102.58 1006.65 1098.67 990.729 1111.89 990.569 1112.03 988.9 1113.43 986.391 1113.24 984.965 1111.6 983.537 1109.95 983.728 1107.48 985.393 1106.07 986.171 1105.41 1004.65 1089.99 1022.82 1095.01 1033.62 1097.99 1041.69 1107.37 1046.81 1122.86 1047.49 1124.92 1046.35 1127.14 1044.26 1127.81 1043.85 1127.94 1043.44 1128.01 1043.03 1128.01Z" fill="#F05845" fill-rule="evenodd"/><path d="M1060.12 1112.01 1034.89 1112.01C1032.75 1112.01 1031.01 1110.22 1031.01 1108.01 1031.01 1105.8 1032.75 1104.01 1034.89 1104.01L1060.12 1104.01C1062.27 1104.01 1064.01 1105.8 1064.01 1108.01 1064.01 1110.22 1062.27 1112.01 1060.12 1112.01Z" fill="#F05845" fill-rule="evenodd"/><path d="M1069.95 1125.01C1068.72 1125.01 1067.51 1124.45 1066.71 1123.4L1056.82 1110.35C1055.78 1108.97 1055.73 1107.1 1056.71 1105.67L1066.24 1091.77C1067.5 1089.93 1070.03 1089.45 1071.88 1090.7 1073.73 1091.95 1074.21 1094.45 1072.95 1096.29L1065.05 1107.82 1073.19 1118.57C1074.54 1120.34 1074.18 1122.87 1072.39 1124.2 1071.66 1124.75 1070.8 1125.01 1069.95 1125.01Z" fill="#F05845" fill-rule="evenodd"/><path d="M991.627 1166.01C990.048 1166.01 988.609 1165.89 987.369 1165.69 985.194 1165.34 983.711 1163.3 984.057 1161.12 984.404 1158.94 986.433 1157.46 988.611 1157.8 989.427 1157.92 1007.92 1160.47 1015.6 1141.5 1016.17 1140.1 1017.48 1139.14 1018.98 1139.02 1020.49 1138.9 1021.93 1139.64 1022.71 1140.93 1022.77 1141.04 1029.5 1151.9 1039.05 1152.96 1044.3 1153.55 1049.72 1151 1055.16 1145.39 1056.69 1143.81 1059.22 1143.77 1060.8 1145.31 1062.38 1146.85 1062.41 1149.37 1060.88 1150.96 1053.61 1158.45 1045.95 1161.79 1038.11 1160.9 1030.04 1159.98 1023.78 1154.67 1019.98 1150.45 1012.36 1162.69 1000.01 1166.01 991.627 1166.01Z" fill="#F05845" fill-rule="evenodd"/><path d="M1053.13 1177.01C1053.1 1177.01 1053.06 1177.01 1053.02 1177.01 1050.89 1176.94 1049.2 1175.07 1049.27 1172.83 1049.51 1163.96 1043.15 1159.72 1042.88 1159.55 1041.05 1158.4 1040.46 1155.91 1041.56 1153.98 1042.65 1152.06 1045.04 1151.43 1046.87 1152.59 1047.3 1152.85 1057.37 1159.33 1057 1173.06 1056.94 1175.26 1055.22 1177.01 1053.13 1177.01Z" fill="#F05845" fill-rule="evenodd"/><path d="M1053.37 1258.01C1052.69 1258.01 1052 1257.84 1051.36 1257.5 1049.37 1256.43 1048.65 1254 1049.75 1252.07 1050.29 1251.13 1062.37 1229.29 1046.84 1209.42 1045.47 1207.66 1045.83 1205.15 1047.65 1203.82 1049.47 1202.49 1052.06 1202.83 1053.44 1204.59 1072.27 1228.7 1057.61 1254.85 1056.98 1255.95 1056.22 1257.27 1054.82 1258.01 1053.37 1258.01Z" fill="#F05845" fill-rule="evenodd"/><path d="M1058.07 1241.01C1057.21 1241.01 1056.34 1240.72 1055.62 1240.14 1055.36 1239.94 1036.8 1225.37 1020.86 1232.7 1019.44 1233.35 1017.76 1233.09 1016.6 1232.04 1015.43 1230.99 1015 1229.34 1015.49 1227.84 1016.95 1223.4 1019.8 1210.53 1015.56 1204.44 1013.99 1202.18 1011.46 1201.04 1007.83 1200.93 1005.65 1200.86 1003.94 1199.04 1004.01 1196.85 1004.07 1194.66 1005.9 1192.95 1008.06 1193.01 1015.8 1193.24 1019.92 1196.89 1022.02 1199.9 1026.69 1206.64 1026 1216.52 1024.75 1223.22 1042.75 1219.89 1059.72 1233.3 1060.53 1233.95 1062.23 1235.32 1062.5 1237.81 1061.15 1239.52 1060.37 1240.5 1059.22 1241.01 1058.07 1241.01Z" fill="#F05845" fill-rule="evenodd"/></g></svg>