<svg width="683" height="683" xmlns="http://www.w3.org/2000/svg" xmlns:xlink="http://www.w3.org/1999/xlink" xml:space="preserve" overflow="hidden"><g transform="translate(-1526 -1466)"><g><g><g><path d="M648.757 324.378C648.757 503.528 503.528 648.757 324.378 648.757 145.229 648.757 0 503.528 0 324.378 0 145.229 145.229-5.53302e-14 324.378-1.1066e-13 503.528-1.6599e-13 648.757 145.229 648.757 324.378Z" fill="#F05845" fill-rule="evenodd" transform="matrix(1 0 0 1.00154 1543 1483)"/><path d="M280.576 272.059C275.709 272.059 266.706 273.033 266.706 265.002 266.706 261.109 269.869 257.945 273.763 257.945L299.557 257.945C311.238 257.945 320.485 269.139 320.485 282.766 320.485 296.637 310.994 307.831 299.557 307.831 283.74 307.831 273.763 288.12 280.576 272.059ZM483.282 529.274C381.321 529.274 279.36 529.274 177.642 529.274 173.748 529.274 170.585 526.111 170.585 522.217L170.585 458.705C170.585 420.013 202.219 388.378 240.911 388.378L269.869 388.378 276.926 360.88C252.348 348.469 235.314 322.675 235.314 293.23L235.314 276.439C220.714 250.888 216.82 223.877 223.877 198.082 237.018 151.117 285.93 119.726 331.922 119.726 387.161 119.726 421.473 162.554 447.024 142.6 451.161 139.436 457.488 141.87 458.461 147.223 458.705 149.414 466.978 203.679 425.366 228.501L425.366 293.23C425.366 322.675 408.576 348.469 383.998 360.88L390.811 388.378 419.769 388.378C458.705 388.378 490.339 420.013 490.339 458.705L490.339 522.217C490.339 526.111 487.176 529.274 483.282 529.274ZM272.546 402.492 240.911 402.492C210.006 402.492 184.699 427.8 184.699 458.705L184.699 515.16 232.881 515.16 232.881 483.526C232.881 474.035 246.995 474.035 246.995 483.526L246.995 515.16 413.686 515.16 413.686 483.526C413.686 474.035 427.8 474.035 427.8 483.526L427.8 515.16 476.225 515.16 476.225 458.705C476.225 427.8 450.918 402.492 419.769 402.492L388.378 402.492 335.329 455.298C332.652 458.218 328.272 458.218 325.352 455.298ZM283.253 393.245 330.462 440.454 377.671 393.245 370.614 366.234C364.043 368.18 356.986 369.154 349.686 369.154L311.238 369.154C303.937 369.154 296.88 368.18 290.067 366.234ZM287.147 350.173C287.633 350.416 288.12 350.416 288.363 350.66 295.42 353.58 303.207 355.04 311.238 355.04L349.686 355.04C383.024 355.04 411.496 327.785 411.496 293.23L411.496 228.014C375.724 203.923 353.823 213.657 320.485 236.288 303.937 247.238 291.04 247.481 280.576 247.481 267.192 247.481 259.892 247.725 249.428 275.709L249.428 293.23C249.428 318.781 265.002 340.926 287.147 350.173ZM287.877 457.488 256.729 457.488C247.481 457.488 247.481 443.374 256.729 443.374L287.877 443.374C297.124 443.374 297.124 457.488 287.877 457.488ZM331.922 133.84C273.276 133.84 213.657 190.539 241.885 257.702 261.839 217.55 282.036 245.048 312.698 224.607 349.93 199.299 377.671 188.349 418.796 216.09 442.157 201.489 445.321 174.721 445.077 159.877 412.956 171.801 379.618 133.84 331.922 133.84ZM162.311 193.946C141.87 193.946 125.322 177.155 125.322 156.714 125.322 136.273 141.87 119.726 162.311 119.726 182.752 119.726 199.543 136.273 199.543 156.714 199.543 177.155 182.752 193.946 162.311 193.946ZM162.311 133.84C149.657 133.84 139.436 144.06 139.436 156.714 139.436 169.368 149.657 179.832 162.311 179.832 174.965 179.832 185.429 169.368 185.429 156.714 185.429 144.06 174.965 133.84 162.311 133.84ZM166.691 274.006C158.174 274.006 159.634 264.516 159.634 258.919 154.28 258.919 144.79 260.379 144.79 251.862 144.79 243.588 154.28 244.805 159.634 244.805 159.634 239.451 158.174 229.961 166.691 229.961 175.208 229.961 173.748 239.451 173.748 244.805 179.345 244.805 188.835 243.588 188.835 251.862 188.835 260.379 179.345 258.919 173.748 258.919 173.748 264.516 175.208 274.006 166.691 274.006ZM481.336 242.128C472.819 242.128 474.279 232.637 474.279 227.04 468.682 227.04 459.191 228.501 459.191 219.983 459.191 211.71 468.682 212.926 474.279 212.926 474.279 207.573 472.819 198.082 481.336 198.082 489.609 198.082 488.393 207.573 488.393 212.926 493.746 212.926 503.237 211.71 503.237 219.983 503.237 228.501 493.746 227.04 488.393 227.04 488.393 232.637 489.609 242.128 481.336 242.128ZM501.533 403.709C493.016 403.709 494.476 394.218 494.476 388.621 489.123 388.621 479.389 390.081 479.389 381.808 479.389 373.291 489.123 374.751 494.476 374.751 494.476 369.154 493.016 359.663 501.533 359.663 510.05 359.663 508.59 369.154 508.59 374.751 514.187 374.751 523.678 373.291 523.678 381.808 523.678 390.081 514.187 388.621 508.59 388.621 508.59 394.218 510.05 403.709 501.533 403.709ZM355.283 335.572C348.713 335.572 350.66 328.272 330.462 328.272 319.755 328.272 312.698 330.949 310.994 333.139 304.911 340.196 294.204 330.949 300.287 323.892 311.481 310.751 349.199 310.751 360.637 323.892 364.53 328.515 361.123 335.572 355.283 335.572ZM478.659 337.032C458.218 337.032 441.67 320.485 441.67 300.044 441.67 279.603 458.218 262.812 478.659 262.812 499.1 262.812 515.891 279.603 515.891 300.044 515.891 320.485 499.1 337.032 478.659 337.032ZM478.659 276.926C466.005 276.926 455.784 287.39 455.784 300.044 455.784 312.698 466.005 322.918 478.659 322.918 491.313 322.918 501.777 312.698 501.777 300.044 501.777 287.39 491.313 276.926 478.659 276.926ZM173.748 389.108C156.471 389.108 142.357 374.994 142.357 357.717 142.357 340.439 156.471 326.325 173.748 326.325 191.025 326.325 205.139 340.439 205.139 357.717 205.139 374.994 191.025 389.108 173.748 389.108ZM173.748 340.439C164.258 340.439 156.471 348.226 156.471 357.717 156.471 367.207 164.258 374.994 173.748 374.994 183.238 374.994 191.025 367.207 191.025 357.717 191.025 348.226 183.238 340.439 173.748 340.439ZM299.557 272.059C290.31 272.059 290.31 293.717 299.557 293.717 308.561 293.717 308.561 272.059 299.557 272.059ZM373.047 307.831C357.23 307.831 347.253 288.12 354.066 272.059 349.443 272.059 340.439 273.033 340.439 265.002 340.439 261.109 343.603 257.945 347.496 257.945L373.534 257.945C384.971 258.189 393.975 269.382 393.975 282.766 393.975 296.637 384.484 307.831 373.047 307.831ZM373.047 272.059C363.8 272.059 363.8 293.717 373.047 293.717 382.051 293.717 382.051 272.059 373.047 272.059Z" fill="#FDFDFD" fill-rule="evenodd" transform="matrix(1 0 0 1.00154 1543 1483)"/></g></g></g><path d="M1529.94 1807.94C1529.94 1621.54 1681.05 1470.44 1867.44 1470.44 2053.84 1470.44 2204.94 1621.54 2204.94 1807.94 2204.94 1994.33 2053.84 2145.44 1867.44 2145.44 1681.05 2145.44 1529.94 1994.33 1529.94 1807.94Z" stroke="#F05845" stroke-width="6.875" stroke-miterlimit="8" fill="none" fill-rule="evenodd"/></g></svg>