<svg width="583" height="584" xmlns="http://www.w3.org/2000/svg" xmlns:xlink="http://www.w3.org/1999/xlink" xml:space="preserve" overflow="hidden"><g transform="translate(-2612 -767)"><path d="M3179.36 1063.84C3179.36 1215.72 3056.23 1338.84 2904.36 1338.84 2752.48 1338.84 2629.36 1215.72 2629.36 1063.84 2629.36 911.96 2752.48 788.839 2904.36 788.839 3056.23 788.839 3179.36 911.96 3179.36 1063.84Z" fill="#92D050" fill-rule="evenodd"/><path d="M2923.99 1235.84 2803.92 1235.84C2800.62 1235.84 2797.73 1233.16 2797.73 1229.65 2797.73 1111.76 2757.36 1076.66 2757.36 1017.83 2757.36 943.917 2814.83 883.839 2885.68 883.839 2918.02 883.839 2948.91 896.226 2972.81 919.142 2996.49 941.646 3011.12 972.407 3014.01 1005.65 3014.42 1018.65 3061.79 1059.12 3050.67 1080.79 3046.14 1089.88 3034.4 1091.94 3024.31 1092.15L3024.31 1156.77C3024.31 1172.05 3011.94 1184.43 2996.71 1184.43L2949.33 1184.43C2938.62 1184.43 2930.18 1193.1 2930.18 1204.25L2930.18 1229.65C2930.18 1233.16 2927.5 1235.84 2923.99 1235.84ZM2893.72 1115.89C2850.67 1115.89 2812.98 1086.78 2801.24 1044.25 2787.64 993.878 2812.77 934.626 2865.29 918.936 2909.99 905.517 2955.92 930.291 2968.07 975.71 2981.46 1025.88 2948.51 1082.86 2895.37 1082.86 2843.46 1082.86 2811.74 1025.67 2839.75 976.949 2865.29 932.768 2926.88 941.233 2937.79 987.891 2947.27 1028.15 2911.84 1063.87 2879.09 1045.28 2850.67 1029.18 2864.47 992.639 2866.53 992.639 2876.82 975.091 2901.96 977.775 2906.69 996.355 2909.57 1007.3 2903.4 1021.13 2895.37 1016.17 2892.48 1014.32 2891.66 1010.6 2893.51 1007.71 2900.51 996.149 2884.45 986.652 2877.24 998.833 2873.53 1005.65 2872.5 1013.7 2874.56 1020.72 2880.33 1041.16 2908.75 1044.25 2920.91 1023.61 2933.06 1002.34 2927.08 976.742 2907.31 965.387 2898.66 960.226 2888.36 958.987 2878.06 961.672 2866.73 964.562 2856.64 972.407 2850.67 983.142 2834.4 1010.81 2840.78 1047.14 2868.8 1063.25 2895.57 1078.94 2930.79 1068.2 2947.68 1039.5 2968.28 1004.2 2960.04 957.13 2923.99 936.485 2889.81 916.871 2844.69 930.704 2823.28 967.246 2810.3 989.749 2806.8 1016.79 2813.39 1040.95 2819.36 1063.04 2833.37 1081.21 2852.52 1092.15L2852.52 1092.36C2895.57 1117.54 2949.33 1098.14 2974.46 1054.57 2978.58 1047.56 2989.29 1053.75 2985.17 1060.77 2965.81 1094.42 2931.41 1115.89 2893.72 1115.89ZM3011.74 1158.83 2974.05 1158.83C2962.31 1158.83 2952.21 1148.72 2952.21 1136.74 2952.21 1124.98 2962.1 1115.48 2974.05 1115.48L3011.94 1115.48 3011.94 1085.96C3011.94 1082.45 3014.62 1079.56 3018.12 1079.76 3035.63 1080.38 3039.13 1076.46 3039.75 1075.22 3045.52 1063.45 3002.88 1024.02 3001.65 1006.68 2996.29 944.742 2945.42 896.226 2885.68 896.226 2821.63 896.226 2769.72 950.729 2769.72 1017.83 2769.72 1071.71 2808.85 1109.08 2810.09 1223.45L2917.81 1223.45 2917.81 1204.25C2917.81 1186.08 2931.83 1171.84 2949.33 1171.84L2996.71 1171.84C3004.32 1171.84 3010.71 1166.27 3011.74 1158.83ZM2974.05 1127.87C2960.86 1127.87 2962.1 1146.45 2974.05 1146.45L3011.94 1146.45 3011.94 1127.87Z" fill="#FFFFFF" fill-rule="evenodd"/><path d="M2615.66 1059.34C2615.66 900.004 2744.6 770.839 2903.67 770.839 3062.72 770.839 3191.67 900.004 3191.67 1059.34 3191.67 1218.67 3062.72 1347.84 2903.67 1347.84 2744.6 1347.84 2615.66 1218.67 2615.66 1059.34Z" stroke="#92D050" stroke-width="5.73855" stroke-miterlimit="8" fill="none" fill-rule="evenodd"/></g></svg>